Interface-Regular.ufo
<glyph name="dollar" format="1">
  <advance width="1632"/>
  <unicode hex="0024"/>
  <outline>
    <contour>
      <point x="1456" y="528" type="curve" smooth="yes"/>
      <point x="1456" y="816"/>
      <point x="1308" y="988"/>
      <point x="904" y="1112" type="curve"/>
      <point x="916" y="1840" type="line"/>
      <point x="1140" y="1804"/>
      <point x="1244" y="1660"/>
      <point x="1244" y="1488" type="curve"/>
      <point x="1480" y="1488" type="line"/>
      <point x="1480" y="1748"/>
      <point x="1284" y="1996"/>
      <point x="916" y="2040" type="curve"/>
      <point x="920" y="2308" type="line"/>
      <point x="736" y="2308" type="line"/>
      <point x="732" y="2044" type="line"/>
      <point x="372" y="2020"/>
      <point x="176" y="1796"/>
      <point x="176" y="1512" type="curve" smooth="yes"/>
      <point x="176" y="1224"/>
      <point x="368" y="1064"/>
      <point x="720" y="956" type="curve"/>
      <point x="712" y="188" type="line"/>
      <point x="484" y="212"/>
      <point x="300" y="328"/>
      <point x="300" y="496" type="curve"/>
      <point x="68" y="496" type="line"/>
      <point x="68" y="188"/>
      <point x="384" y="24"/>
      <point x="712" y="-4" type="curve"/>
      <point x="708" y="-260" type="line"/>
      <point x="888" y="-260" type="line"/>
      <point x="892" y="-8" type="line"/>
      <point x="1256" y="20"/>
      <point x="1452" y="232"/>
    </contour>
    <contour>
      <point x="388" y="1516" type="curve" smooth="yes"/>
      <point x="388" y="1692"/>
      <point x="492" y="1824"/>
      <point x="732" y="1848" type="curve"/>
      <point x="724" y="1172" type="line"/>
      <point x="484" y="1256"/>
      <point x="388" y="1372"/>
    </contour>
    <contour>
      <point x="1244" y="524" type="curve" smooth="yes"/>
      <point x="1244" y="348"/>
      <point x="1124" y="212"/>
      <point x="892" y="188" type="curve"/>
      <point x="904" y="896" type="line"/>
      <point x="1176" y="796"/>
      <point x="1244" y="692"/>
    </contour>
  </outline>
</glyph>
<glyph name="percent" format="1">
  <advance width="2272"/>
  <unicode hex="0025"/>
  <outline>
    <contour>
      <point x="1248" y="384" type="line" smooth="yes"/>
      <point x="1248" y="160"/>
      <point x="1388" y="-28"/>
      <point x="1648" y="-28" type="curve" smooth="yes"/>
      <point x="1904" y="-28"/>
      <point x="2044" y="160"/>
      <point x="2044" y="384" type="curve" smooth="yes"/>
      <point x="2044" y="492" type="line" smooth="yes"/>
      <point x="2044" y="716"/>
      <point x="1908" y="904"/>
      <point x="1648" y="904" type="curve" smooth="yes"/>
      <point x="1392" y="904"/>
      <point x="1248" y="716"/>
      <point x="1248" y="492" type="curve" smooth="yes"/>
    </contour>
    <contour>
      <point x="1452" y="492" type="line" smooth="yes"/>
      <point x="1452" y="616"/>
      <point x="1508" y="732"/>
      <point x="1648" y="732" type="curve" smooth="yes"/>
      <point x="1792" y="732"/>
      <point x="1840" y="616"/>
      <point x="1840" y="492" type="curve" smooth="yes"/>
      <point x="1840" y="384" type="line" smooth="yes"/>
      <point x="1840" y="260"/>
      <point x="1788" y="144"/>
      <point x="1648" y="144" type="curve" smooth="yes"/>
      <point x="1504" y="144"/>
      <point x="1452" y="260"/>
      <point x="1452" y="384" type="curve" smooth="yes"/>
    </contour>
    <contour>
      <point x="1944" y="2048" type="line"/>
      <point x="1712" y="2048" type="line"/>
      <point x="304" y="0" type="line"/>
      <point x="536" y="0" type="line"/>
    </contour>
    <contour>
      <point x="228" y="1556" type="line" smooth="yes"/>
      <point x="228" y="1332"/>
      <point x="368" y="1144"/>
      <point x="628" y="1144" type="curve" smooth="yes"/>
      <point x="884" y="1144"/>
      <point x="1024" y="1332"/>
      <point x="1024" y="1556" type="curve" smooth="yes"/>
      <point x="1024" y="1664" type="line" smooth="yes"/>
      <point x="1024" y="1888"/>
      <point x="888" y="2076"/>
      <point x="628" y="2076" type="curve" smooth="yes"/>
      <point x="372" y="2076"/>
      <point x="228" y="1888"/>
      <point x="228" y="1664" type="curve" smooth="yes"/>
    </contour>
    <contour>
      <point x="432" y="1664" type="line" smooth="yes"/>
      <point x="432" y="1788"/>
      <point x="488" y="1904"/>
      <point x="628" y="1904" type="curve" smooth="yes"/>
      <point x="772" y="1904"/>
      <point x="820" y="1788"/>
      <point x="820" y="1664" type="curve" smooth="yes"/>
      <point x="820" y="1556" type="line" smooth="yes"/>
      <point x="820" y="1432"/>
      <point x="768" y="1316"/>
      <point x="628" y="1316" type="curve" smooth="yes"/>
      <point x="484" y="1316"/>
      <point x="432" y="1432"/>
      <point x="432" y="1556" type="curve" smooth="yes"/>
    </contour>
  </outline>
</glyph>
<glyph name="ampersand" format="1">
  <advance width="1760"/>
  <unicode hex="0026"/>
  <outline>
    <contour>
      <point x="540" y="1128" type="line"/>
      <point x="288" y="956"/>
      <point x="112" y="800"/>
      <point x="112" y="544" type="curve"/>
      <point x="112" y="212"/>
      <point x="360" y="-28"/>
      <point x="764" y="-28" type="curve"/>
      <point x="960" y="-28"/>
      <point x="1180" y="44"/>
      <point x="1316" y="192" type="curve" smooth="yes"/>
      <point x="1332" y="208"/>
      <point x="1336" y="236"/>
      <point x="1356" y="252" type="curve" smooth="yes"/>
      <point x="1528" y="424"/>
      <point x="1604" y="620"/>
      <point x="1604" y="896" type="curve"/>
      <point x="1376" y="896" type="line"/>
      <point x="1376" y="456"/>
      <point x="1060" y="180"/>
      <point x="764" y="180" type="curve" smooth="yes"/>
      <point x="508" y="180"/>
      <point x="352" y="352"/>
      <point x="352" y="544" type="curve"/>
      <point x="352" y="600"/>
      <point x="396" y="740"/>
      <point x="588" y="880" type="curve" smooth="yes"/>
      <point x="996" y="1184" type="line" smooth="yes"/>
      <point x="1164" y="1308"/>
      <point x="1268" y="1444"/>
      <point x="1268" y="1640" type="curve"/>
      <point x="1268" y="1868"/>
      <point x="1080" y="2068"/>
      <point x="780" y="2068" type="curve" smooth="yes"/>
      <point x="472" y="2068"/>
      <point x="276" y="1892"/>
      <point x="276" y="1576" type="curve" smooth="yes"/>
      <point x="276" y="1372"/>
      <point x="456" y="1184"/>
      <point x="664" y="936" type="curve" smooth="yes"/>
      <point x="1440" y="0" type="line"/>
      <point x="1724" y="0" type="line"/>
      <point x="784" y="1148" type="line" smooth="yes"/>
      <point x="652" y="1308"/>
      <point x="516" y="1460"/>
      <point x="516" y="1584" type="curve" smooth="yes"/>
      <point x="516" y="1732"/>
      <point x="624" y="1864"/>
      <point x="780" y="1864" type="curve" smooth="yes"/>
      <point x="928" y="1864"/>
      <point x="1028" y="1744"/>
      <point x="1028" y="1640" type="curve"/>
      <point x="1028" y="1500"/>
      <point x="952" y="1424"/>
      <point x="836" y="1348" type="curve"/>
    </contour>
  </outline>
</glyph>
<glyph name="hyphen" format="1">
  <advance width="1280"/>
  <unicode hex="002D"/>
  <outline>
    <contour>
      <point x="1088" y="988" type="line"/>
      <point x="192" y="988" type="line"/>
      <point x="192" y="768" type="line"/>
      <point x="1088" y="768" type="line"/>
    </contour>
  </outline>
</glyph>
<glyph name="period" format="1">
  <advance width="768"/>
  <unicode hex="002E"/>
  <outline>
    <contour>
      <point x="216" y="132" type="curve" smooth="yes"/>
      <point x="216" y="44"/>
      <point x="272" y="-28"/>
      <point x="384" y="-28" type="curve" smooth="yes"/>
      <point x="488" y="-28"/>
      <point x="552" y="44"/>
      <point x="552" y="132" type="curve" smooth="yes"/>
      <point x="552" y="220"/>
      <point x="488" y="292"/>
      <point x="384" y="292" type="curve" smooth="yes"/>
      <point x="272" y="292"/>
      <point x="216" y="220"/>
    </contour>
  </outline>
</glyph>
<glyph name="zero" format="1">
  <advance width="1664"/>
  <unicode hex="0030"/>
  <outline>
    <contour>
      <point x="1516" y="1204" type="line" smooth="yes"/>
      <point x="1516" y="1804"/>
      <point x="1232" y="2076"/>
      <point x="834" y="2076" type="curve" smooth="yes"/>
      <point x="436" y="2076"/>
      <point x="148" y="1804"/>
      <point x="148" y="1204" type="curve" smooth="yes"/>
      <point x="148" y="880" type="line" smooth="yes"/>
      <point x="148" y="276"/>
      <point x="440" y="-28"/>
      <point x="838" y="-28" type="curve" smooth="yes"/>
      <point x="1236" y="-28"/>
      <point x="1516" y="276"/>
      <point x="1516" y="880" type="curve" smooth="yes"/>
    </contour>
    <contour>
      <point x="1268" y="836" type="line" smooth="yes"/>
      <point x="1268" y="452"/>
      <point x="1084" y="192"/>
      <point x="838" y="192" type="curve" smooth="yes"/>
      <point x="592" y="192"/>
      <point x="396" y="452"/>
      <point x="396" y="836" type="curve" smooth="yes"/>
      <point x="396" y="1248" type="line" smooth="yes"/>
      <point x="396" y="1636"/>
      <point x="588" y="1856"/>
      <point x="834" y="1856" type="curve" smooth="yes"/>
      <point x="1080" y="1856"/>
      <point x="1268" y="1636"/>
      <point x="1268" y="1248" type="curve" smooth="yes"/>
    </contour>
  </outline>
</glyph>
<glyph name="one" format="1">
  <advance width="1280"/>
  <unicode hex="0031"/>
  <outline>
    <contour>
      <point x="876" y="2048" type="line"/>
      <point x="836" y="2048" type="line"/>
      <point x="128" y="1748" type="line"/>
      <point x="128" y="1504" type="line"/>
      <point x="640" y="1716" type="line"/>
      <point x="640" y="0" type="line"/>
      <point x="876" y="0" type="line"/>
    </contour>
  </outline>
</glyph>
<glyph name="seven" format="1">
  <advance width="1536"/>
  <unicode hex="0037"/>
  <outline>
    <contour>
      <point x="1408" y="2048" type="line"/>
      <point x="128" y="2048" type="line"/>
      <point x="128" y="1816" type="line"/>
      <point x="1168" y="1816" type="line"/>
      <point x="320" y="0" type="line"/>
      <point x="592" y="0" type="line"/>
      <point x="1408" y="1792" type="line"/>
    </contour>
  </outline>
</glyph>
<glyph name="eight" format="1">
  <advance width="1664"/>
  <unicode hex="0038"/>
  <outline>
    <contour>
      <point x="1480" y="580" type="curve" smooth="yes"/>
      <point x="1480" y="896"/>
      <point x="1200" y="1164"/>
      <point x="828" y="1164" type="curve" smooth="yes"/>
      <point x="456" y="1164"/>
      <point x="184" y="896"/>
      <point x="184" y="580" type="curve" smooth="yes"/>
      <point x="184" y="212"/>
      <point x="472" y="-28"/>
      <point x="834" y="-28" type="curve" smooth="yes"/>
      <point x="1196" y="-28"/>
      <point x="1480" y="212"/>
    </contour>
    <contour>
      <point x="1236" y="579.109" type="curve" smooth="yes"/>
      <point x="1236" y="364"/>
      <point x="1064" y="180"/>
      <point x="836" y="180" type="curve" smooth="yes"/>
      <point x="608" y="180"/>
      <point x="424" y="364"/>
      <point x="424" y="584" type="curve" smooth="yes"/>
      <point x="424" y="804"/>
      <point x="608" y="992"/>
      <point x="828" y="992" type="curve" smooth="yes"/>
      <point x="1048" y="992"/>
      <point x="1236" y="804"/>
    </contour>
    <contour>
      <point x="1432" y="1544" type="curve" smooth="yes"/>
      <point x="1432" y="1892"/>
      <point x="1176" y="2076"/>
      <point x="834" y="2076" type="curve" smooth="yes"/>
      <point x="492" y="2076"/>
      <point x="232" y="1892"/>
      <point x="232" y="1544" type="curve" smooth="yes"/>
      <point x="232" y="1252"/>
      <point x="488" y="1016"/>
      <point x="830" y="1016" type="curve" smooth="yes"/>
      <point x="1172" y="1016"/>
      <point x="1432" y="1252"/>
    </contour>
    <contour>
      <point x="1200" y="1534" type="curve" smooth="yes"/>
      <point x="1200" y="1336"/>
      <point x="1024" y="1192"/>
      <point x="834" y="1192" type="curve" smooth="yes"/>
      <point x="644" y="1192"/>
      <point x="464" y="1336"/>
      <point x="464" y="1540" type="curve" smooth="yes"/>
      <point x="464" y="1744"/>
      <point x="644" y="1864"/>
      <point x="829.474" y="1864" type="curve" smooth="yes"/>
      <point x="1024" y="1864"/>
      <point x="1200" y="1732"/>
    </contour>
  </outline>
</glyph>
<glyph name="nine" format="1">
  <advance width="1664"/>
  <unicode hex="0039"/>
  <outline>
    <contour>
      <point x="428.074" y="510" type="curve"/>
      <point x="192.4938" y="510" type="line"/>
      <point x="265" y="161.5"/>
      <point x="449.463" y="-30"/>
      <point x="787.228" y="-30" type="curve" smooth="yes"/>
      <point x="1242.45" y="-30"/>
      <point x="1476" y="367"/>
      <point x="1476" y="1000" type="curve" smooth="yes"/>
      <point x="1476" y="1068" type="line" smooth="yes"/>
      <point x="1476" y="1723.524"/>
      <point x="1270.47" y="2074"/>
      <point x="809.877" y="2074" type="curve" smooth="yes"/>
      <point x="391.51800000000003" y="2074"/>
      <point x="160" y="1778"/>
      <point x="160" y="1402" type="curve" smooth="yes"/>
      <point x="160" y="1074"/>
      <point x="342.778" y="758"/>
      <point x="757.074" y="758" type="curve" smooth="yes"/>
      <point x="1045.4569999999999" y="758"/>
      <point x="1386.64" y="926"/>
      <point x="1386.64" y="1410" type="curve"/>
      <point x="1212.3" y="1410" type="line"/>
      <point x="1212.3" y="1146"/>
      <point x="1018.901" y="978"/>
      <point x="781.753" y="978" type="curve" smooth="yes"/>
      <point x="499.309" y="978"/>
      <point x="395.765" y="1182"/>
      <point x="395.765" y="1414" type="curve" smooth="yes"/>
      <point x="395.765" y="1678"/>
      <point x="568.358" y="1858"/>
      <point x="789.877" y="1858" type="curve" smooth="yes"/>
      <point x="1010.778" y="1858"/>
      <point x="1212.3" y="1706"/>
      <point x="1212.3" y="1394" type="curve"/>
      <point x="1232.3" y="1010" type="line"/>
      <point x="1232.3" y="340"/>
      <point x="993.515" y="190"/>
      <point x="784.491" y="190" type="curve" smooth="yes"/>
      <point x="542.818" y="190"/>
      <point x="474.784" y="369.5"/>
    </contour>
  </outline>
</glyph>
<glyph name="greater" format="1">
  <advance width="1536"/>
  <unicode hex="003E"/>
  <outline>
    <contour>
      <point x="256" y="1268" type="line"/>
      <point x="1072" y="872" type="line"/>
      <point x="1280" y="832" type="line"/>
      <point x="1280" y="992" type="line"/>
      <point x="256" y="1520" type="line"/>
    </contour>
    <contour>
      <point x="256" y="524" type="line"/>
      <point x="256" y="268" type="line"/>
      <point x="1280" y="796" type="line"/>
      <point x="1280" y="956" type="line"/>
      <point x="1072" y="924" type="line"/>
    </contour>
  </outline>
</glyph>
<glyph name="at" format="1">
  <advance width="2560"/>
  <unicode hex="0040"/>
  <outline>
    <contour>
      <point x="1288" y="1180" type="curve" smooth="yes"/>
      <point x="1528" y="1180"/>
      <point x="1720" y="1084"/>
      <point x="1720" y="748" type="curve" smooth="yes"/>
      <point x="1720" y="416"/>
      <point x="1548" y="256"/>
      <point x="1280" y="256" type="curve" smooth="yes"/>
      <point x="1020" y="256"/>
      <point x="920" y="492"/>
      <point x="920" y="748" type="curve" smooth="yes"/>
      <point x="920" y="980"/>
      <point x="1056" y="1180"/>
    </contour>
    <contour>
      <point x="1360" y="1972" type="curve" smooth="yes"/>
      <point x="588" y="1972"/>
      <point x="128" y="1504"/>
      <point x="128" y="724" type="curve" smooth="yes"/>
      <point x="128" y="-84"/>
      <point x="572" y="-520"/>
      <point x="1388" y="-520" type="curve" smooth="yes"/>
      <point x="1592" y="-520"/>
      <point x="1780" y="-496"/>
      <point x="1924" y="-444" type="curve"/>
      <point x="1932" y="-252" type="line"/>
      <point x="1832" y="-296"/>
      <point x="1616" y="-328"/>
      <point x="1396" y="-328" type="curve" smooth="yes"/>
      <point x="712" y="-328"/>
      <point x="348" y="36"/>
      <point x="348" y="716" type="curve" smooth="yes"/>
      <point x="348" y="1384"/>
      <point x="720" y="1784"/>
      <point x="1348" y="1784" type="curve" smooth="yes"/>
      <point x="1984" y="1784"/>
      <point x="2220" y="1528"/>
      <point x="2220" y="888" type="curve" smooth="yes"/>
      <point x="2220" y="560"/>
      <point x="2256" y="240"/>
      <point x="2052" y="240" type="curve" smooth="yes"/>
      <point x="1996" y="240"/>
      <point x="1912" y="220"/>
      <point x="1912" y="376" type="curve" smooth="yes"/>
      <point x="1912" y="1344" type="line"/>
      <point x="1700" y="1344" type="line"/>
      <point x="1700" y="1232" type="line"/>
      <point x="1668" y="1232" type="line"/>
      <point x="1612" y="1372"/>
      <point x="1376" y="1376"/>
      <point x="1248" y="1376" type="curve" smooth="yes"/>
      <point x="968" y="1376"/>
      <point x="712" y="1096"/>
      <point x="712" y="736" type="curve" smooth="yes"/>
      <point x="712" y="356"/>
      <point x="908" y="52"/>
      <point x="1248" y="52" type="curve" smooth="yes"/>
      <point x="1388" y="52"/>
      <point x="1616" y="112"/>
      <point x="1684" y="272" type="curve"/>
      <point x="1704" y="272" type="line"/>
      <point x="1728" y="100"/>
      <point x="1888" y="40"/>
      <point x="2028" y="40" type="curve" smooth="yes"/>
      <point x="2392" y="40"/>
      <point x="2428" y="304"/>
      <point x="2428" y="884" type="curve" smooth="yes"/>
      <point x="2428" y="1624"/>
      <point x="2108" y="1972"/>
    </contour>
  </outline>
</glyph>
<glyph name="C" format="1">
  <advance width="1912"/>
  <unicode hex="0043"/>
  <outline>
    <contour>
      <point x="1468" y="528" type="line"/>
      <point x="1424" y="368"/>
      <point x="1284" y="208"/>
      <point x="984" y="208" type="curve" smooth="yes"/>
      <point x="632" y="208"/>
      <point x="416" y="584"/>
      <point x="416" y="1024" type="curve"/>
      <point x="416" y="1496"/>
      <point x="636" y="1852"/>
      <point x="984" y="1852" type="curve" smooth="yes"/>
      <point x="1268" y="1852"/>
      <point x="1432" y="1708"/>
      <point x="1468" y="1520" type="curve"/>
      <point x="1752" y="1520" type="line"/>
      <point x="1692" y="1828"/>
      <point x="1444" y="2076"/>
      <point x="984" y="2076" type="curve" smooth="yes"/>
      <point x="472" y="2076"/>
      <point x="176" y="1636"/>
      <point x="176" y="1024" type="curve"/>
      <point x="176" y="404"/>
      <point x="512" y="-28"/>
      <point x="984" y="-28" type="curve" smooth="yes"/>
      <point x="1424" y="-28"/>
      <point x="1688" y="224"/>
      <point x="1744" y="528" type="curve"/>
    </contour>
    <contour>
      <point x="984" y="2304" type="move" name="top"/>
    </contour>
    <contour>
      <point x="984" y="-16" type="move" name="bottom"/>
    </contour>
    <contour>
      <point x="1884" y="2200" type="move" name="top_dd"/>
    </contour>
    <contour>
      <point x="1884" y="-560" type="move" name="bottom_dd"/>
    </contour>
    <contour>
      <point x="1884" y="2244" type="move" name="top0315"/>
    </contour>
  </outline>
</glyph>
<glyph name="K" format="1">
  <advance width="1664"/>
  <unicode hex="004B"/>
  <outline>
    <contour>
      <point x="488" y="2048" type="line"/>
      <point x="240" y="2048" type="line"/>
      <point x="240" y="0" type="line"/>
      <point x="488" y="0" type="line"/>
    </contour>
    <contour>
      <point x="1588" y="2048" type="line"/>
      <point x="1292" y="2048" type="line"/>
      <point x="508" y="1020" type="line"/>
      <point x="440" y="1020" type="line"/>
      <point x="440" y="548" type="line"/>
    </contour>
    <contour>
      <point x="1272" y="0" type="line"/>
      <point x="1568" y="0" type="line"/>
      <point x="828" y="1140" type="line"/>
      <point x="676" y="948" type="line"/>
    </contour>
    <contour>
      <point x="912" y="120" type="move" name="bottom"/>
    </contour>
    <contour>
      <point x="1688" y="0" type="move" name="right"/>
    </contour>
    <contour>
      <point x="380" y="1692" type="move" name="cross"/>
    </contour>
    <contour>
      <point x="832" y="2304" type="move" name="top"/>
    </contour>
    <contour>
      <point x="1764" y="2200" type="move" name="top_dd"/>
    </contour>
    <contour>
      <point x="1764" y="-560" type="move" name="bottom_dd"/>
    </contour>
    <contour>
      <point x="1764" y="2200" type="move" name="top0315"/>
    </contour>
  </outline>
</glyph>
<glyph name="L" format="1">
  <advance width="1536"/>
  <unicode hex="004C"/>
  <outline>
    <contour>
      <point x="368" y="2200" type="move" name="top"/>
    </contour>
    <contour>
      <point x="852" y="16" type="move" name="bottom"/>
    </contour>
    <contour>
      <point x="836" y="2000" type="move" name="caron"/>
    </contour>
    <contour>
      <point x="824" y="1092" type="move" name="dot"/>
    </contour>
    <contour>
      <point x="1524" y="2200" type="move" name="top_dd"/>
    </contour>
    <contour>
      <point x="1524" y="-560" type="move" name="bottom_dd"/>
    </contour>
    <contour>
      <point x="1524" y="2200" type="move" name="top0315"/>
    </contour>
    <contour>
      <point x="1408" y="220" type="line"/>
      <point x="432" y="220" type="line"/>
      <point x="432" y="0" type="line"/>
      <point x="1408" y="0" type="line"/>
    </contour>
    <contour>
      <point x="488" y="2048" type="line"/>
      <point x="240" y="2048" type="line"/>
      <point x="240" y="0" type="line"/>
      <point x="488" y="0" type="line"/>
    </contour>
  </outline>
</glyph>
<glyph name="P" format="1">
  <advance width="1772"/>
  <unicode hex="0050"/>
  <outline>
    <contour>
      <point x="952" y="772" type="line"/>
      <point x="1296" y="772"/>
      <point x="1612" y="1012"/>
      <point x="1612" y="1400" type="curve"/>
      <point x="1612" y="1756"/>
      <point x="1396" y="2048"/>
      <point x="924" y="2048" type="curve"/>
      <point x="240" y="2048" type="line"/>
      <point x="240" y="0" type="line"/>
      <point x="488" y="0" type="line"/>
      <point x="488" y="1828" type="line"/>
      <point x="924" y="1828" type="line"/>
      <point x="1248" y="1828"/>
      <point x="1368" y="1656"/>
      <point x="1368" y="1400" type="curve"/>
      <point x="1368" y="1176"/>
      <point x="1208" y="992"/>
      <point x="888" y="992" type="curve"/>
      <point x="440" y="992" type="line"/>
      <point x="440" y="772" type="line"/>
    </contour>
    <contour>
      <point x="36" y="2000" type="move" name="tonos"/>
    </contour>
    <contour>
      <point x="896" y="2304" type="move" name="top"/>
    </contour>
    <contour>
      <point x="728" y="0" type="move" name="bottom"/>
    </contour>
    <contour>
      <point x="1788" y="2200" type="move" name="top_dd"/>
    </contour>
    <contour>
      <point x="1788" y="-560" type="move" name="bottom_dd"/>
    </contour>
    <contour>
      <point x="1788" y="2216" type="move" name="top0315"/>
    </contour>
  </outline>
</glyph>
<glyph name="R" format="1">
  <advance width="1772"/>
  <unicode hex="0052"/>
  <outline>
    <contour>
      <point x="240" y="2048" type="line"/>
      <point x="240" y="0" type="line"/>
      <point x="488" y="0" type="line"/>
      <point x="488" y="1828" type="line"/>
      <point x="896" y="1828" type="line" smooth="yes"/>
      <point x="1236" y="1828"/>
      <point x="1356" y="1668"/>
      <point x="1356" y="1408" type="curve" smooth="yes"/>
      <point x="1356" y="1204"/>
      <point x="1176" y="1016"/>
      <point x="896" y="1016" type="curve" smooth="yes"/>
      <point x="432" y="1016" type="line"/>
      <point x="432" y="796" type="line"/>
      <point x="1060" y="796" type="line"/>
      <point x="1136" y="824" type="line"/>
      <point x="1428" y="904"/>
      <point x="1608" y="1132"/>
      <point x="1608" y="1408" type="curve" smooth="yes"/>
      <point x="1608" y="1800"/>
      <point x="1352" y="2048"/>
      <point x="896" y="2048" type="curve"/>
    </contour>
    <contour>
      <point x="1396" y="0" type="line"/>
      <point x="1676" y="0" type="line"/>
      <point x="1676" y="16" type="line"/>
      <point x="1204" y="900" type="line"/>
      <point x="924" y="900" type="line"/>
    </contour>
    <contour>
      <point x="896" y="2304" type="move" name="top"/>
    </contour>
    <contour>
      <point x="840" y="0" type="move" name="bottom"/>
    </contour>
    <contour>
      <point x="1724" y="2200" type="move" name="top_dd"/>
    </contour>
    <contour>
      <point x="1724" y="-560" type="move" name="bottom_dd"/>
    </contour>
    <contour>
      <point x="1724" y="2200" type="move" name="top0315"/>
    </contour>
  </outline>
</glyph>
<glyph name="X" format="1">
  <advance width="1672"/>
  <unicode hex="0058"/>
  <outline>
    <contour>
      <point x="344" y="2048" type="line"/>
      <point x="64" y="2048" type="line"/>
      <point x="660" y="1024" type="line"/>
      <point x="64" y="0" type="line"/>
      <point x="344" y="0" type="line"/>
      <point x="816" y="812" type="line" smooth="yes"/>
      <point x="824" y="824"/>
      <point x="824" y="832"/>
      <point x="824" y="848" type="curve"/>
      <point x="840" y="848" type="line"/>
      <point x="840" y="832"/>
      <point x="840" y="824"/>
      <point x="848" y="812" type="curve" smooth="yes"/>
      <point x="1328" y="0" type="line"/>
      <point x="1608" y="0" type="line"/>
      <point x="1012" y="1024" type="line"/>
      <point x="1608" y="2048" type="line"/>
      <point x="1328" y="2048" type="line"/>
      <point x="848" y="1220" type="line" smooth="yes"/>
      <point x="840" y="1208"/>
      <point x="840" y="1200"/>
      <point x="840" y="1184" type="curve"/>
      <point x="824" y="1184" type="line"/>
      <point x="824" y="1200"/>
      <point x="824" y="1208"/>
      <point x="816" y="1220" type="curve" smooth="yes"/>
    </contour>
    <contour>
      <point x="884" y="16" type="move" name="bottom"/>
    </contour>
    <contour>
      <point x="1520" y="0" type="move" name="right"/>
    </contour>
    <contour>
      <point x="888" y="1020" type="move" name="cross"/>
    </contour>
    <contour>
      <point x="832" y="2304" type="move" name="top"/>
    </contour>
    <contour>
      <point x="1772" y="2200" type="move" name="top_dd"/>
    </contour>
    <contour>
      <point x="1772" y="-560" type="move" name="bottom_dd"/>
    </contour>
    <contour>
      <point x="1772" y="2216" type="move" name="top0315"/>
    </contour>
  </outline>
</glyph>
<glyph name="Z" format="1">
  <advance width="1632"/>
  <unicode hex="005A"/>
  <outline>
    <contour>
      <point x="1472" y="220" type="line"/>
      <point x="276" y="220" type="line"/>
      <point x="276" y="0" type="line"/>
      <point x="1472" y="0" type="line"/>
    </contour>
    <contour>
      <point x="1456" y="1840" type="line"/>
      <point x="1456" y="2048" type="line"/>
      <point x="1312" y="2048" type="line"/>
      <point x="176" y="212" type="line"/>
      <point x="176" y="0" type="line"/>
      <point x="320" y="0" type="line"/>
    </contour>
    <contour>
      <point x="1336" y="2048" type="line"/>
      <point x="160" y="2048" type="line"/>
      <point x="160" y="1828" type="line"/>
      <point x="1336" y="1828" type="line"/>
    </contour>
    <contour>
      <point x="832" y="2304" type="move" name="top"/>
    </contour>
    <contour>
      <point x="824" y="16" type="move" name="bottom"/>
    </contour>
    <contour>
      <point x="1672" y="2200" type="move" name="top_dd"/>
    </contour>
    <contour>
      <point x="1672" y="-560" type="move" name="bottom_dd"/>
    </contour>
    <contour>
      <point x="1672" y="2200" type="move" name="top0315"/>
    </contour>
  </outline>
</glyph>
<glyph name="bracketleft" format="1">
  <advance width="640"/>
  <unicode hex="005B"/>
  <outline>
    <contour>
      <point x="640" y="2304" type="line"/>
      <point x="128" y="2304" type="line"/>
      <point x="128" y="-384" type="line"/>
      <point x="640" y="-384" type="line"/>
      <point x="640" y="-164" type="line"/>
      <point x="360" y="-164" type="line"/>
      <point x="360" y="2084" type="line"/>
      <point x="640" y="2084" type="line"/>
    </contour>
  </outline>
</glyph>
<glyph name="backslash" format="1">
  <advance width="992"/>
  <unicode hex="005C"/>
  <outline>
    <contour>
      <point x="80" y="2048" type="line"/>
      <point x="676" y="-308" type="line"/>
      <point x="908" y="-308" type="line"/>
      <point x="312" y="2048" type="line"/>
    </contour>
  </outline>
</glyph>
<glyph name="bracketright" format="1">
  <advance width="640"/>
  <unicode hex="005D"/>
  <outline>
    <contour>
      <point x="0" y="2084" type="line"/>
      <point x="280" y="2084" type="line"/>
      <point x="280" y="-164" type="line"/>
      <point x="0" y="-164" type="line"/>
      <point x="0" y="-384" type="line"/>
      <point x="512" y="-384" type="line"/>
      <point x="512" y="2304" type="line"/>
      <point x="0" y="2304" type="line"/>
    </contour>
  </outline>
</glyph>
<glyph name="asciicircum" format="1">
  <advance width="1248"/>
  <unicode hex="005E"/>
  <outline>
    <contour>
      <point x="640" y="1688" type="line"/>
      <point x="696" y="2004" type="line"/>
      <point x="532" y="2004" type="line"/>
      <point x="120" y="1004" type="line"/>
      <point x="376" y="1004" type="line"/>
    </contour>
    <contour>
      <point x="876" y="1004" type="line"/>
      <point x="1128" y="1004" type="line"/>
      <point x="720" y="2004" type="line"/>
      <point x="552" y="2004" type="line"/>
      <point x="608" y="1688" type="line"/>
    </contour>
  </outline>
</glyph>
<glyph name="underscore" format="1">
  <advance width="1280"/>
  <unicode hex="005F"/>
  <outline>
    <contour>
      <point x="635" y="216" type="move" name="_bottom"/>
    </contour>
    <contour>
      <point x="1280" y="0" type="line"/>
      <point x="0" y="0" type="line"/>
      <point x="0" y="-220" type="line"/>
      <point x="1280" y="-220" type="line"/>
    </contour>
  </outline>
</glyph>
<glyph name="grave" format="1">
  <advance width="736"/>
  <unicode hex="0060"/>
  <outline>
    <contour>
      <point x="492" y="1776" type="move" name="_top"/>
    </contour>
    <contour>
      <point x="492" y="2268" type="move" name="mkmktop_acc"/>
    </contour>
    <contour>
      <point x="380" y="2112" type="line"/>
      <point x="48" y="2112" type="line"/>
      <point x="412" y="1704" type="line"/>
      <point x="648" y="1704" type="line"/>
    </contour>
  </outline>
</glyph>
<glyph name="a" format="1">
  <advance width="1504"/>
  <unicode hex="0061"/>
  <outline>
    <contour>
      <point x="1120" y="0" type="line"/>
      <point x="1356" y="0" type="line"/>
      <point x="1356" y="948" type="line" smooth="yes"/>
      <point x="1356" y="1384"/>
      <point x="1068" y="1556"/>
      <point x="760" y="1556" type="curve" smooth="yes"/>
      <point x="536" y="1556"/>
      <point x="252" y="1460"/>
      <point x="148" y="1180" type="curve"/>
      <point x="364" y="1096" type="line"/>
      <point x="456" y="1300"/>
      <point x="620" y="1348"/>
      <point x="756" y="1348" type="curve" smooth="yes"/>
      <point x="952" y="1348"/>
      <point x="1120" y="1268"/>
      <point x="1120" y="928" type="curve" smooth="yes"/>
      <point x="1120" y="900" type="line"/>
      <point x="996" y="896" type="line" smooth="yes"/>
      <point x="472" y="884"/>
      <point x="128" y="832"/>
      <point x="128" y="404" type="curve" smooth="yes"/>
      <point x="128" y="132"/>
      <point x="348" y="-36"/>
      <point x="680" y="-36" type="curve" smooth="yes"/>
      <point x="884" y="-36"/>
      <point x="1036" y="84"/>
      <point x="1108" y="192" type="curve"/>
      <point x="1120" y="192" type="line"/>
    </contour>
    <contour>
      <point x="1120" y="700" type="line"/>
      <point x="1120" y="532" type="line" smooth="yes"/>
      <point x="1120" y="396"/>
      <point x="956" y="176"/>
      <point x="712" y="176" type="curve" smooth="yes"/>
      <point x="476" y="176"/>
      <point x="364" y="276"/>
      <point x="364" y="436" type="curve" smooth="yes"/>
      <point x="364" y="696"/>
      <point x="744" y="684"/>
      <point x="996" y="696" type="curve" smooth="yes"/>
    </contour>
    <contour>
      <point x="752" y="1792" type="move" name="top"/>
    </contour>
    <contour>
      <point x="748" y="0" type="move" name="bottom"/>
    </contour>
    <contour>
      <point x="1356" y="0" type="move" name="ogonek"/>
    </contour>
    <contour>
      <point x="752" y="1792" type="move" name="rhalfring"/>
    </contour>
    <contour>
      <point x="1496" y="2176" type="move" name="top_dd"/>
    </contour>
    <contour>
      <point x="1496" y="-560" type="move" name="bottom_dd"/>
    </contour>
    <contour>
      <point x="1264" y="908" type="move" name="rhotichook"/>
    </contour>
    <contour>
      <point x="1264" y="1792" type="move" name="top0315"/>
    </contour>
  </outline>
</glyph>
<glyph name="b" format="1">
  <advance width="1632"/>
  <unicode hex="0062"/>
  <outline>
    <contour>
      <point x="992" y="2216" type="move" name="top"/>
    </contour>
    <contour>
      <point x="936" y="-16" type="move" name="bottom"/>
    </contour>
    <contour>
      <point x="1696" y="2200" type="move" name="top_dd"/>
    </contour>
    <contour>
      <point x="1696" y="-560" type="move" name="bottom_dd"/>
    </contour>
    <contour>
      <point x="1696" y="2216" type="move" name="top0315"/>
    </contour>
    <contour>
      <point x="224" y="2048" type="line"/>
      <point x="224" y="0" type="line"/>
      <point x="428" y="0" type="line"/>
      <point x="460" y="288" type="line"/>
      <point x="368" y="784" type="line"/>
      <point x="460" y="1172" type="line"/>
      <point x="460" y="2048" type="line"/>
    </contour>
    <component base="rightloop.cn" xOffset="-16"/>
  </outline>
</glyph>
<glyph name="c" format="1">
  <advance width="1600"/>
  <unicode hex="0063"/>
  <outline>
    <contour>
      <point x="1440" y="1076" type="line"/>
      <point x="1400" y="1340"/>
      <point x="1180" y="1556"/>
      <point x="820" y="1556" type="curve" smooth="yes"/>
      <point x="404" y="1556"/>
      <point x="140" y="1228"/>
      <point x="140" y="768" type="curve" smooth="yes"/>
      <point x="140" y="296"/>
      <point x="408" y="-32"/>
      <point x="820" y="-32" type="curve" smooth="yes"/>
      <point x="1176" y="-32"/>
      <point x="1400" y="176"/>
      <point x="1440" y="448" type="curve"/>
      <point x="1204" y="448" type="line"/>
      <point x="1160" y="280"/>
      <point x="1020" y="184"/>
      <point x="820" y="184" type="curve" smooth="yes"/>
      <point x="556" y="184"/>
      <point x="384" y="424"/>
      <point x="384" y="768" type="curve" smooth="yes"/>
      <point x="384" y="1104"/>
      <point x="556" y="1344"/>
      <point x="824" y="1344" type="curve" smooth="yes"/>
      <point x="1036" y="1344"/>
      <point x="1164" y="1224"/>
      <point x="1204" y="1076" type="curve"/>
    </contour>
    <contour>
      <point x="872" y="1792" type="move" name="top"/>
    </contour>
    <contour>
      <point x="808" y="0" type="move" name="bottom"/>
    </contour>
    <contour>
      <point x="872" y="1792" type="move" name="marktop"/>
    </contour>
    <contour>
      <point x="1456" y="2200" type="move" name="top_dd"/>
    </contour>
    <contour>
      <point x="1456" y="-560" type="move" name="bottom_dd"/>
    </contour>
    <contour>
      <point x="1456" y="1776" type="move" name="top0315"/>
    </contour>
  </outline>
</glyph>
<glyph name="d" format="1">
  <advance width="1632"/>
  <unicode hex="0064"/>
  <outline>
    <contour>
      <point x="1520" y="2112" type="move" name="caron"/>
    </contour>
    <contour>
      <point x="1196" y="1796" type="move" name="cross"/>
    </contour>
    <contour>
      <point x="836" y="0" type="move" name="bottom"/>
    </contour>
    <contour>
      <point x="740" y="2216" type="move" name="top"/>
    </contour>
    <contour>
      <point x="1580" y="2200" type="move" name="top_dd"/>
    </contour>
    <contour>
      <point x="1580" y="-560" type="move" name="bottom_dd"/>
    </contour>
    <contour>
      <point x="1580" y="2216" type="move" name="top0315"/>
    </contour>
    <contour>
      <point x="1192" y="344" type="line"/>
      <point x="1212" y="0" type="line"/>
      <point x="1428" y="0" type="line"/>
      <point x="1428" y="2048" type="line"/>
      <point x="1192" y="2048" type="line"/>
      <point x="1192" y="1156" type="line"/>
      <point x="1264" y="748" type="line"/>
    </contour>
    <component base="leftloop.cn" xOffset="-16"/>
  </outline>
</glyph>
<glyph name="e" format="1">
  <advance width="1600"/>
  <unicode hex="0065"/>
  <outline>
    <contour>
      <point x="840" y="-32" type="curve"/>
      <point x="1148" y="-32"/>
      <point x="1348" y="116"/>
      <point x="1432" y="316" type="curve"/>
      <point x="1216" y="412" type="line"/>
      <point x="1156" y="272"/>
      <point x="1028" y="184"/>
      <point x="840" y="184" type="curve" smooth="yes"/>
      <point x="552" y="184"/>
      <point x="384.0" y="424.0"/>
      <point x="384.0" y="768.0" type="curve"/>
      <point x="384.0" y="1104.0"/>
      <point x="556.0" y="1344.0"/>
      <point x="824.0" y="1344.0" type="curve" smooth="yes"/>
      <point x="1036.0" y="1344.0"/>
      <point x="1240.0" y="1176.0"/>
      <point x="1240.0" y="872.0" type="curve"/>
      <point x="308.0" y="872.0" type="line"/>
      <point x="308.0" y="668.0" type="line"/>
      <point x="1476.0" y="668.0" type="line"/>
      <point x="1476.0" y="768.0" type="line" smooth="yes"/>
      <point x="1476.0" y="1352.0"/>
      <point x="1180.0" y="1556.0"/>
      <point x="820.0" y="1556.0" type="curve" smooth="yes"/>
      <point x="408.0" y="1556.0"/>
      <point x="140.0" y="1228.0"/>
      <point x="140.0" y="768.0" type="curve"/>
      <point x="140.0" y="296.0"/>
      <point x="404" y="-32"/>
    </contour>
    <contour>
      <point x="820" y="1792" type="move" name="top"/>
    </contour>
    <contour>
      <point x="884.0" y="0.0" type="move" name="bottom"/>
    </contour>
    <contour>
      <point x="1240.0" y="320.0" type="move" name="ogonek"/>
    </contour>
    <contour>
      <point x="1488.0" y="2176.0" type="move" name="top_dd"/>
    </contour>
    <contour>
      <point x="1488.0" y="-560.0" type="move" name="bottom_dd"/>
    </contour>
    <contour>
      <point x="1196.0" y="788.0" type="move" name="rhotichook"/>
    </contour>
    <contour>
      <point x="1416.0" y="1792.0" type="move" name="top0315"/>
    </contour>
  </outline>
</glyph>
<glyph name="f" format="1">
  <advance width="992"/>
  <unicode hex="0066"/>
  <outline>
    <contour>
      <point x="548" y="0" type="line"/>
      <point x="548" y="1640" type="line"/>
      <point x="548" y="1820"/>
      <point x="712" y="1860"/>
      <point x="788" y="1860" type="curve" smooth="yes"/>
      <point x="860" y="1860"/>
      <point x="864" y="1856"/>
      <point x="896" y="1852" type="curve"/>
      <point x="896" y="2060" type="line"/>
      <point x="872" y="2068"/>
      <point x="828" y="2076"/>
      <point x="772" y="2076" type="curve" smooth="yes"/>
      <point x="520" y="2076"/>
      <point x="312" y="1920"/>
      <point x="312" y="1640" type="curve"/>
      <point x="312" y="0" type="line"/>
    </contour>
    <contour>
      <point x="892" y="1536" type="line"/>
      <point x="64" y="1536" type="line"/>
      <point x="64" y="1316" type="line"/>
      <point x="888" y="1316" type="line"/>
    </contour>
    <contour>
      <point x="740" y="2140" type="move" name="top"/>
    </contour>
    <contour>
      <point x="440" y="16" type="move" name="bottom"/>
    </contour>
    <contour>
      <point x="756" y="1484" type="move" name="top_dd"/>
    </contour>
    <contour>
      <point x="972" y="-560" type="move" name="bottom_dd"/>
    </contour>
    <contour>
      <point x="916" y="2116" type="move" name="top0315"/>
    </contour>
  </outline>
</glyph>
<glyph name="g" format="1">
  <advance width="1632"/>
  <unicode hex="0067"/>
  <outline>
    <contour>
      <point x="1192" y="1528" type="line"/>
      <point x="1192" y="1200" type="line"/>
      <point x="1276" y="768" type="line"/>
      <point x="1192" y="336" type="line"/>
      <point x="1192" y="204"/>
      <point x="1192" y="88"/>
      <point x="1192" y="20" type="curve"/>
      <point x="1188" y="-248"/>
      <point x="1012" y="-364"/>
      <point x="756" y="-364" type="curve" smooth="yes"/>
      <point x="500" y="-364"/>
      <point x="396" y="-224"/>
      <point x="340" y="-160" type="curve"/>
      <point x="164" y="-300" type="line"/>
      <point x="260" y="-436"/>
      <point x="436" y="-576"/>
      <point x="756" y="-576" type="curve" smooth="yes"/>
      <point x="1128" y="-576"/>
      <point x="1428" y="-376"/>
      <point x="1428" y="-32" type="curve" smooth="yes"/>
      <point x="1428" y="1528" type="line"/>
    </contour>
    <contour>
      <point x="132" y="752" type="line"/>
      <point x="132" y="320"/>
      <point x="380" y="24"/>
      <point x="728" y="24" type="curve" smooth="yes"/>
      <point x="1144" y="24"/>
      <point x="1292" y="316"/>
      <point x="1344" y="700" type="curve"/>
      <point x="1344" y="812" type="line"/>
      <point x="1292" y="1196"/>
      <point x="1144" y="1556"/>
      <point x="732" y="1556" type="curve" smooth="yes"/>
      <point x="376" y="1556"/>
      <point x="132" y="1232"/>
      <point x="132" y="780" type="curve" smooth="yes"/>
    </contour>
    <contour>
      <point x="376" y="780" type="line"/>
      <point x="376" y="1068"/>
      <point x="512" y="1328"/>
      <point x="804" y="1328" type="curve" smooth="yes"/>
      <point x="1044" y="1328"/>
      <point x="1160" y="1072"/>
      <point x="1180" y="924" type="curve"/>
      <point x="1200" y="828"/>
      <point x="1200" y="676"/>
      <point x="1180" y="588" type="curve"/>
      <point x="1152" y="440"/>
      <point x="1024" y="236"/>
      <point x="788" y="236" type="curve" smooth="yes"/>
      <point x="524" y="236"/>
      <point x="376" y="464"/>
      <point x="376" y="752" type="curve" smooth="yes"/>
    </contour>
    <contour>
      <point x="812" y="1792" type="move" name="top"/>
    </contour>
    <contour>
      <point x="748" y="-616" type="move" name="bottom"/>
    </contour>
    <contour>
      <point x="1568" y="2200" type="move" name="top_dd"/>
    </contour>
    <contour>
      <point x="1568" y="-560" type="move" name="bottom_dd"/>
    </contour>
    <contour>
      <point x="1568" y="1776" type="move" name="top0315"/>
    </contour>
  </outline>
</glyph>
<glyph name="h" format="1">
  <advance width="1632"/>
  <unicode hex="0068"/>
  <outline>
    <contour>
      <point x="460" y="928" type="line" smooth="yes"/>
      <point x="460" y="1216"/>
      <point x="680" y="1328"/>
      <point x="856" y="1328" type="curve" smooth="yes"/>
      <point x="1052" y="1328"/>
      <point x="1188" y="1200"/>
      <point x="1188" y="976" type="curve" smooth="yes"/>
      <point x="1188" y="0" type="line"/>
      <point x="1428" y="0" type="line"/>
      <point x="1428" y="976" type="line" smooth="yes"/>
      <point x="1428" y="1368"/>
      <point x="1156" y="1556"/>
      <point x="932" y="1556" type="curve" smooth="yes"/>
      <point x="700" y="1556"/>
      <point x="552" y="1436"/>
      <point x="476" y="1320" type="curve"/>
      <point x="460" y="1320" type="line"/>
      <point x="460" y="2048" type="line"/>
      <point x="224" y="2048" type="line"/>
      <point x="224" y="0" type="line"/>
      <point x="460" y="0" type="line"/>
    </contour>
    <contour>
      <point x="676" y="2216" type="move" name="top"/>
    </contour>
    <contour>
      <point x="372" y="1796" type="move" name="cross"/>
    </contour>
    <contour>
      <point x="796" y="16" type="move" name="bottom"/>
    </contour>
    <contour>
      <point x="1356" y="0" type="move" name="right"/>
    </contour>
    <contour>
      <point x="1536" y="2200" type="move" name="top_dd"/>
    </contour>
    <contour>
      <point x="1536" y="-560" type="move" name="bottom_dd"/>
    </contour>
    <contour>
      <point x="1536" y="2216" type="move" name="top0315"/>
    </contour>
  </outline>
</glyph>
<glyph name="i" format="1">
  <advance width="736"/>
  <unicode hex="0069"/>
  <outline>
    <contour>
      <point x="364" y="16" type="move" name="bottom"/>
    </contour>
    <contour>
      <point x="480" y="0" type="move" name="ogonek"/>
    </contour>
    <contour>
      <point x="368" y="2304" type="move" name="top"/>
    </contour>
    <contour>
      <point x="712" y="2200" type="move" name="top_dd"/>
    </contour>
    <contour>
      <point x="712" y="-560" type="move" name="bottom_dd"/>
    </contour>
    <contour>
      <point x="408" y="900" type="move" name="rhotichook"/>
    </contour>
    <contour>
      <point x="712" y="2200" type="move" name="top0315"/>
    </contour>
    <contour>
      <point x="484" y="1536" type="line"/>
      <point x="248" y="1536" type="line"/>
      <point x="248" y="0" type="line"/>
      <point x="484" y="0" type="line"/>
    </contour>
    <contour>
      <point x="200" y="1920" type="curve" smooth="yes"/>
      <point x="200" y="1832"/>
      <point x="264" y="1760"/>
      <point x="368" y="1760" type="curve"/>
      <point x="472" y="1760"/>
      <point x="536" y="1832"/>
      <point x="536" y="1920" type="curve"/>
      <point x="536" y="2000"/>
      <point x="472" y="2080"/>
      <point x="368" y="2080" type="curve"/>
      <point x="264" y="2080"/>
      <point x="200" y="2000"/>
    </contour>
  </outline>
</glyph>
<glyph name="k" format="1">
  <advance width="1504"/>
  <unicode hex="006B"/>
  <outline>
    <contour>
      <point x="460" y="2048" type="line"/>
      <point x="224" y="2048" type="line"/>
      <point x="224" y="0" type="line"/>
      <point x="460" y="0" type="line"/>
    </contour>
    <contour>
      <point x="1396" y="1488" type="line"/>
      <point x="1096" y="1488" type="line"/>
      <point x="480" y="844" type="line"/>
      <point x="440" y="844" type="line"/>
      <point x="444" y="492" type="line"/>
    </contour>
    <contour>
      <point x="1184" y="0" type="line"/>
      <point x="1468" y="0" type="line"/>
      <point x="768" y="924" type="line"/>
      <point x="624" y="732" type="line"/>
    </contour>
    <contour>
      <point x="712" y="92" type="move" name="bottom"/>
    </contour>
    <contour>
      <point x="316" y="1772" type="move" name="cross"/>
    </contour>
    <contour>
      <point x="740" y="2304" type="move" name="top"/>
    </contour>
    <contour>
      <point x="740" y="2304" type="move" name="marktop"/>
    </contour>
    <contour>
      <point x="1424" y="2200" type="move" name="top_dd"/>
    </contour>
    <contour>
      <point x="1424" y="-560" type="move" name="bottom_dd"/>
    </contour>
    <contour>
      <point x="1244" y="2216" type="move" name="top0315"/>
    </contour>
  </outline>
</glyph>
<glyph name="o" format="1">
  <advance width="1664"/>
  <unicode hex="006F"/>
  <outline>
    <contour>
      <point x="828" y="184" type="curve" smooth="yes"/>
      <point x="536" y="184"/>
      <point x="384" y="440"/>
      <point x="384" y="768" type="curve" smooth="yes"/>
      <point x="384" y="1100"/>
      <point x="552" y="1344"/>
      <point x="828" y="1344" type="curve" smooth="yes"/>
      <point x="1116" y="1344"/>
      <point x="1268" y="1132"/>
      <point x="1268" y="768" type="curve" smooth="yes"/>
      <point x="1268" y="400"/>
      <point x="1116" y="184"/>
    </contour>
    <contour>
      <point x="828" y="-32" type="curve" smooth="yes"/>
      <point x="1264" y="-32"/>
      <point x="1524" y="276"/>
      <point x="1524" y="768" type="curve" smooth="yes"/>
      <point x="1524" y="1256"/>
      <point x="1264" y="1556"/>
      <point x="828" y="1556" type="curve" smooth="yes"/>
      <point x="400" y="1556"/>
      <point x="140" y="1224"/>
      <point x="140" y="768" type="curve" smooth="yes"/>
      <point x="140" y="296"/>
      <point x="400" y="-32"/>
    </contour>
    <contour>
      <point x="828" y="1792" type="move" name="top"/>
    </contour>
    <contour>
      <point x="824" y="0" type="move" name="bottom"/>
    </contour>
    <contour>
      <point x="1608" y="2176" type="move" name="top_dd"/>
    </contour>
    <contour>
      <point x="1608" y="-560" type="move" name="bottom_dd"/>
    </contour>
    <contour>
      <point x="1360" y="896" type="move" name="rhotichook"/>
    </contour>
    <contour>
      <point x="1544" y="1792" type="move" name="top0315"/>
    </contour>
  </outline>
</glyph>
<glyph name="p" format="1">
  <advance width="1632"/>
  <unicode hex="0070"/>
  <outline>
    <contour>
      <point x="880" y="1792" type="move" name="top"/>
    </contour>
    <contour>
      <point x="308" y="-560" type="move" name="bottom"/>
    </contour>
    <contour>
      <point x="880" y="1792" type="move" name="marktop"/>
    </contour>
    <contour>
      <point x="1568" y="2200" type="move" name="top_dd"/>
    </contour>
    <contour>
      <point x="1568" y="-560" type="move" name="bottom_dd"/>
    </contour>
    <contour>
      <point x="1568" y="1760" type="move" name="top0315"/>
    </contour>
    <contour>
      <point x="464" y="1244" type="line"/>
      <point x="436" y="1536" type="line"/>
      <point x="224" y="1536" type="line"/>
      <point x="224" y="-576" type="line"/>
      <point x="460" y="-576" type="line"/>
      <point x="460" y="392" type="line"/>
      <point x="360" y="728" type="line"/>
      <point x="464" y="1148" type="line"/>
    </contour>
    <component base="rightloop.cn" xOffset="-16"/>
  </outline>
</glyph>
<glyph name="r" format="1">
  <advance width="1072"/>
  <unicode hex="0072"/>
  <outline>
    <contour>
      <point x="996" y="1552" type="line"/>
      <point x="980" y="1556"/>
      <point x="936" y="1560"/>
      <point x="880" y="1560" type="curve"/>
      <point x="700" y="1560"/>
      <point x="520" y="1420"/>
      <point x="476" y="1272" type="curve"/>
      <point x="460" y="1272" type="line"/>
      <point x="460" y="1536" type="line"/>
      <point x="224" y="1536" type="line"/>
      <point x="224" y="0" type="line"/>
      <point x="460" y="0" type="line"/>
      <point x="460" y="880" type="line"/>
      <point x="464" y="1080"/>
      <point x="616" y="1316"/>
      <point x="872" y="1316" type="curve"/>
      <point x="932" y="1316"/>
      <point x="972" y="1312"/>
      <point x="996" y="1308" type="curve"/>
    </contour>
    <contour>
      <point x="544" y="1792" type="move" name="top"/>
    </contour>
    <contour>
      <point x="328" y="16" type="move" name="bottom"/>
    </contour>
    <contour>
      <point x="940" y="2200" type="move" name="top_dd"/>
    </contour>
    <contour>
      <point x="940" y="-560" type="move" name="bottom_dd"/>
    </contour>
    <contour>
      <point x="940" y="1792" type="move" name="top0315"/>
    </contour>
  </outline>
</glyph>
<glyph name="s" format="1">
  <advance width="1472"/>
  <unicode hex="0073"/>
  <outline>
    <contour>
      <point x="172" y="1112" type="curve" smooth="yes"/>
      <point x="172" y="900"/>
      <point x="300" y="760"/>
      <point x="576" y="692" type="curve" smooth="yes"/>
      <point x="832" y="628" type="line" smooth="yes"/>
      <point x="988" y="588"/>
      <point x="1068" y="508"/>
      <point x="1068" y="404" type="curve" smooth="yes"/>
      <point x="1068" y="268"/>
      <point x="916" y="176"/>
      <point x="716" y="176" type="curve" smooth="yes"/>
      <point x="528" y="176"/>
      <point x="404" y="272"/>
      <point x="344" y="364" type="curve"/>
      <point x="160" y="232" type="line"/>
      <point x="248" y="64"/>
      <point x="448" y="-32"/>
      <point x="708" y="-32" type="curve" smooth="yes"/>
      <point x="1088" y="-32"/>
      <point x="1312" y="156"/>
      <point x="1312" y="424" type="curve" smooth="yes"/>
      <point x="1312" y="636"/>
      <point x="1176" y="772"/>
      <point x="896" y="840" type="curve" smooth="yes"/>
      <point x="668" y="896" type="line" smooth="yes"/>
      <point x="492" y="940"/>
      <point x="412" y="1020"/>
      <point x="412" y="1124" type="curve" smooth="yes"/>
      <point x="412" y="1256"/>
      <point x="548" y="1352"/>
      <point x="724" y="1352" type="curve" smooth="yes"/>
      <point x="912" y="1352"/>
      <point x="1032" y="1256"/>
      <point x="1096" y="1160" type="curve"/>
      <point x="1268" y="1284" type="line"/>
      <point x="1180" y="1448"/>
      <point x="984" y="1556"/>
      <point x="724" y="1556" type="curve" smooth="yes"/>
      <point x="412" y="1556"/>
      <point x="172" y="1360"/>
    </contour>
    <contour>
      <point x="804" y="1792" type="move" name="top"/>
    </contour>
    <contour>
      <point x="740" y="0" type="move" name="bottom"/>
    </contour>
    <contour>
      <point x="1432" y="2200" type="move" name="top_dd"/>
    </contour>
    <contour>
      <point x="1432" y="-560" type="move" name="bottom_dd"/>
    </contour>
    <contour>
      <point x="1432" y="1776" type="move" name="top0315"/>
    </contour>
  </outline>
</glyph>
<glyph name="t" format="1">
  <advance width="992"/>
  <unicode hex="0074"/>
  <outline>
    <contour>
      <point x="876" y="1536" type="line"/>
      <point x="64" y="1536" type="line"/>
      <point x="64" y="1316" type="line"/>
      <point x="876" y="1316" type="line"/>
    </contour>
    <contour>
      <point x="312" y="1864" type="line"/>
      <point x="312" y="376" type="line"/>
      <point x="312" y="108"/>
      <point x="548" y="-12"/>
      <point x="728" y="-12" type="curve" smooth="yes"/>
      <point x="824" y="-12"/>
      <point x="840" y="-8"/>
      <point x="880" y="4" type="curve"/>
      <point x="880" y="220" type="line"/>
      <point x="840" y="216"/>
      <point x="828" y="212"/>
      <point x="788" y="212" type="curve" smooth="yes"/>
      <point x="700" y="212"/>
      <point x="548" y="216"/>
      <point x="548" y="440" type="curve"/>
      <point x="548" y="1864" type="line"/>
    </contour>
    <contour>
      <point x="612" y="0" type="move" name="bottom"/>
    </contour>
    <contour>
      <point x="736" y="2288" type="move" name="caron"/>
    </contour>
    <contour>
      <point x="396" y="932" type="move" name="cross"/>
    </contour>
    <contour>
      <point x="420" y="2032" type="move" name="top"/>
    </contour>
    <contour>
      <point x="752" y="1876" type="move" name="marktop"/>
    </contour>
    <contour>
      <point x="908" y="2200" type="move" name="top_dd"/>
    </contour>
    <contour>
      <point x="908" y="-560" type="move" name="bottom_dd"/>
    </contour>
    <contour>
      <point x="908" y="2032" type="move" name="top0315"/>
    </contour>
  </outline>
</glyph>
<glyph name="w" format="1">
  <advance width="2272"/>
  <unicode hex="0077"/>
  <outline>
    <contour>
      <point x="2184" y="1536" type="line"/>
      <point x="1948" y="1536" type="line" smooth="yes"/>
      <point x="1604" y="296" type="line"/>
      <point x="1588" y="296" type="line"/>
      <point x="1248" y="1536" type="line"/>
      <point x="1024" y="1536" type="line"/>
      <point x="684" y="292" type="line"/>
      <point x="668" y="292" type="line"/>
      <point x="324" y="1536" type="line" smooth="yes"/>
      <point x="88" y="1536" type="line"/>
      <point x="556" y="0" type="line"/>
      <point x="788" y="0" type="line"/>
      <point x="1124" y="1180" type="line"/>
      <point x="1148" y="1180" type="line"/>
      <point x="1484" y="0" type="line"/>
      <point x="1716" y="0" type="line"/>
    </contour>
    <contour>
      <point x="1132" y="1792" type="move" name="top"/>
    </contour>
    <contour>
      <point x="1036" y="16" type="move" name="bottom"/>
    </contour>
    <contour>
      <point x="1132" y="1792" type="move" name="marktop"/>
    </contour>
    <contour>
      <point x="2100" y="2200" type="move" name="top_dd"/>
    </contour>
    <contour>
      <point x="2100" y="-560" type="move" name="bottom_dd"/>
    </contour>
    <contour>
      <point x="2100" y="1776" type="move" name="top0315"/>
    </contour>
  </outline>
</glyph>
<glyph name="y" format="1">
  <advance width="1504"/>
  <unicode hex="0079"/>
  <outline>
    <contour>
      <point x="704" y="156" type="line"/>
      <point x="584" y="-136" type="line" smooth="yes"/>
      <point x="504" y="-332"/>
      <point x="412" y="-368"/>
      <point x="224" y="-368" type="curve" smooth="yes"/>
      <point x="212" y="-368"/>
      <point x="136" y="-364"/>
      <point x="124" y="-360" type="curve"/>
      <point x="124" y="-580" type="line"/>
      <point x="152" y="-588"/>
      <point x="264" y="-600"/>
      <point x="304" y="-600" type="curve" smooth="yes"/>
      <point x="576" y="-600"/>
      <point x="744" y="-376"/>
      <point x="796" y="-228" type="curve" smooth="yes"/>
      <point x="1420" y="1536" type="line"/>
      <point x="1172" y="1536" type="line"/>
    </contour>
    <contour>
      <point x="344" y="1536" type="line"/>
      <point x="88" y="1536" type="line"/>
      <point x="648" y="-48" type="line"/>
      <point x="844" y="48" type="line"/>
      <point x="764" y="316" type="line"/>
    </contour>
    <contour>
      <point x="752" y="1792" type="move" name="top"/>
    </contour>
    <contour>
      <point x="708" y="-216" type="move" name="bottom"/>
    </contour>
    <contour>
      <point x="752" y="1792" type="move" name="marktop"/>
    </contour>
    <contour>
      <point x="1136" y="2176" type="move" name="top_dd"/>
    </contour>
    <contour>
      <point x="1060" y="-560" type="move" name="bottom_dd"/>
    </contour>
    <contour>
      <point x="740" y="900" type="move" name="rhotichook"/>
    </contour>
    <contour>
      <point x="1328" y="1792" type="move" name="top0315"/>
    </contour>
  </outline>
</glyph>
<glyph name="z" format="1">
  <advance width="1504"/>
  <unicode hex="007A"/>
  <outline>
    <contour>
      <point x="1356" y="220" type="line"/>
      <point x="272" y="220" type="line"/>
      <point x="272" y="0" type="line"/>
      <point x="1356" y="0" type="line"/>
    </contour>
    <contour>
      <point x="1336" y="1348" type="line"/>
      <point x="1336" y="1536" type="line"/>
      <point x="1200" y="1536" type="line"/>
      <point x="168" y="200" type="line"/>
      <point x="168" y="0" type="line"/>
      <point x="308" y="0" type="line"/>
    </contour>
    <contour>
      <point x="1216" y="1536" type="line"/>
      <point x="152" y="1536" type="line"/>
      <point x="152" y="1316" type="line"/>
      <point x="1216" y="1316" type="line"/>
    </contour>
    <contour>
      <point x="768" y="1792" type="move" name="top"/>
    </contour>
    <contour>
      <point x="704" y="16" type="move" name="bottom"/>
    </contour>
    <contour>
      <point x="1388" y="2200" type="move" name="top_dd"/>
    </contour>
    <contour>
      <point x="1388" y="-560" type="move" name="bottom_dd"/>
    </contour>
    <contour>
      <point x="1388" y="1776" type="move" name="top0315"/>
    </contour>
  </outline>
</glyph>
<glyph name="braceleft" format="1">
  <advance width="768"/>
  <unicode hex="007B"/>
  <outline>
    <contour>
      <point x="728" y="2196" type="line"/>
      <point x="352" y="2092"/>
      <point x="284" y="1844"/>
      <point x="284" y="1556" type="curve"/>
      <point x="284" y="1276" type="line"/>
      <point x="284" y="1080"/>
      <point x="200" y="956"/>
      <point x="0" y="956" type="curve"/>
      <point x="0" y="780" type="line"/>
      <point x="396" y="780"/>
      <point x="508" y="1000"/>
      <point x="508" y="1276" type="curve"/>
      <point x="508" y="1556" type="line"/>
      <point x="508" y="1780"/>
      <point x="572" y="1964"/>
      <point x="784" y="2032" type="curve"/>
    </contour>
    <contour>
      <point x="784" y="-328" type="line"/>
      <point x="572" y="-260"/>
      <point x="508" y="-76"/>
      <point x="508" y="148" type="curve" smooth="yes"/>
      <point x="508" y="424" type="line" smooth="yes"/>
      <point x="508" y="704"/>
      <point x="396" y="924"/>
      <point x="0" y="924" type="curve"/>
      <point x="0" y="748" type="line"/>
      <point x="200" y="748"/>
      <point x="284" y="620"/>
      <point x="284" y="424" type="curve" smooth="yes"/>
      <point x="284" y="148" type="line" smooth="yes"/>
      <point x="284" y="-144"/>
      <point x="352" y="-388"/>
      <point x="728" y="-496" type="curve"/>
    </contour>
  </outline>
</glyph>
<glyph name="braceright" format="1">
  <advance width="768"/>
  <unicode hex="007D"/>
  <outline>
    <contour>
      <point x="-20" y="2032" type="line"/>
      <point x="196" y="1964"/>
      <point x="260" y="1780"/>
      <point x="260" y="1556" type="curve" smooth="yes"/>
      <point x="260" y="1276" type="line" smooth="yes"/>
      <point x="260" y="1000"/>
      <point x="372" y="792"/>
      <point x="768" y="792" type="curve"/>
      <point x="768" y="956" type="line"/>
      <point x="568" y="956"/>
      <point x="484" y="1080"/>
      <point x="484" y="1276" type="curve" smooth="yes"/>
      <point x="484" y="1556" type="line" smooth="yes"/>
      <point x="484" y="1844"/>
      <point x="420" y="2092"/>
      <point x="40" y="2196" type="curve"/>
    </contour>
    <contour>
      <point x="40" y="-496" type="line"/>
      <point x="420" y="-388"/>
      <point x="484" y="-144"/>
      <point x="484" y="148" type="curve" smooth="yes"/>
      <point x="484" y="424" type="line" smooth="yes"/>
      <point x="484" y="620"/>
      <point x="568" y="748"/>
      <point x="768" y="748" type="curve"/>
      <point x="768" y="908" type="line"/>
      <point x="372" y="908"/>
      <point x="260" y="704"/>
      <point x="260" y="424" type="curve" smooth="yes"/>
      <point x="260" y="148" type="line" smooth="yes"/>
      <point x="260" y="-76"/>
      <point x="196" y="-260"/>
      <point x="-20" y="-328" type="curve"/>
    </contour>
  </outline>
</glyph>
<glyph name="currency" format="1">
  <advance width="2016"/>
  <unicode hex="00A4"/>
  <outline>
    <contour>
      <point x="440" y="836" type="curve"/>
      <point x="440" y="1176"/>
      <point x="692" y="1448"/>
      <point x="1004" y="1448" type="curve" smooth="yes"/>
      <point x="1316" y="1448"/>
      <point x="1568" y="1176"/>
      <point x="1568" y="836" type="curve" smooth="yes"/>
      <point x="1568" y="500"/>
      <point x="1316" y="224"/>
      <point x="1004" y="224" type="curve" smooth="yes"/>
      <point x="692" y="224"/>
      <point x="440" y="500"/>
    </contour>
    <contour>
      <point x="188" y="836" type="curve"/>
      <point x="188" y="348"/>
      <point x="552" y="-28"/>
      <point x="1004" y="-28" type="curve" smooth="yes"/>
      <point x="1456" y="-28"/>
      <point x="1824" y="348"/>
      <point x="1824" y="836" type="curve" smooth="yes"/>
      <point x="1824" y="1324"/>
      <point x="1456" y="1696"/>
      <point x="1004" y="1696" type="curve" smooth="yes"/>
      <point x="552" y="1696"/>
      <point x="188" y="1324"/>
    </contour>
    <contour>
      <point x="1880" y="1540" type="line"/>
      <point x="1684" y="1740" type="line"/>
      <point x="1408" y="1456" type="line"/>
      <point x="1600" y="1256" type="line"/>
    </contour>
    <contour>
      <point x="612" y="248" type="line"/>
      <point x="416" y="444" type="line"/>
      <point x="140" y="164" type="line"/>
      <point x="332" y="-36" type="line"/>
    </contour>
    <contour>
      <point x="1684" y="-36" type="line"/>
      <point x="1880" y="164" type="line"/>
      <point x="1600" y="444" type="line"/>
      <point x="1408" y="248" type="line"/>
    </contour>
    <contour>
      <point x="416" y="1256" type="line"/>
      <point x="612" y="1456" type="line"/>
      <point x="332" y="1740" type="line"/>
      <point x="140" y="1540" type="line"/>
    </contour>
  </outline>
</glyph>
<glyph name="brokenbar" format="1">
  <advance width="736"/>
  <unicode hex="00A6"/>
  <outline>
    <contour>
      <point x="508" y="-372" type="line"/>
      <point x="508" y="724" type="line"/>
      <point x="232" y="724" type="line"/>
      <point x="232" y="-372" type="line"/>
    </contour>
    <contour>
      <point x="508" y="2004" type="line"/>
      <point x="232" y="2004" type="line"/>
      <point x="232" y="960" type="line"/>
      <point x="508" y="960" type="line"/>
    </contour>
  </outline>
</glyph>
<glyph name="section" format="1">
  <advance width="1760"/>
  <unicode hex="00A7"/>
  <outline>
    <contour>
      <point x="992" y="144" type="line"/>
      <point x="1368" y="144"/>
      <point x="1612" y="308"/>
      <point x="1612" y="592" type="curve"/>
      <point x="1612" y="940"/>
      <point x="1376" y="1068"/>
      <point x="968" y="1180" type="curve" smooth="yes"/>
      <point x="588" y="1288"/>
      <point x="496" y="1348"/>
      <point x="496" y="1528" type="curve"/>
      <point x="496" y="1684"/>
      <point x="620" y="1812"/>
      <point x="896" y="1812" type="curve" smooth="yes"/>
      <point x="1160" y="1812"/>
      <point x="1304" y="1644"/>
      <point x="1304" y="1440" type="curve"/>
      <point x="1580" y="1440" type="line"/>
      <point x="1580" y="1820"/>
      <point x="1320" y="2032"/>
      <point x="896" y="2032" type="curve" smooth="yes"/>
      <point x="484" y="2032"/>
      <point x="220" y="1832"/>
      <point x="220" y="1524" type="curve"/>
      <point x="220" y="1180"/>
      <point x="456" y="1052"/>
      <point x="860" y="944" type="curve" smooth="yes"/>
      <point x="1224" y="832"/>
      <point x="1336" y="756"/>
      <point x="1336" y="588" type="curve"/>
      <point x="1336" y="428"/>
      <point x="1208" y="316"/>
      <point x="992" y="316" type="curve"/>
    </contour>
    <contour>
      <point x="752" y="1208" type="line"/>
      <point x="392" y="1208"/>
      <point x="156" y="1032"/>
      <point x="156" y="760" type="curve" smooth="yes"/>
      <point x="156" y="412"/>
      <point x="396" y="280"/>
      <point x="796" y="168" type="curve"/>
      <point x="1160" y="60"/>
      <point x="1276" y="-12"/>
      <point x="1276" y="-176" type="curve" smooth="yes"/>
      <point x="1276" y="-336"/>
      <point x="1128" y="-460"/>
      <point x="872" y="-460" type="curve" smooth="yes"/>
      <point x="664" y="-460"/>
      <point x="424" y="-368"/>
      <point x="424" y="-84" type="curve"/>
      <point x="148" y="-88" type="line"/>
      <point x="148" y="-536"/>
      <point x="516" y="-680"/>
      <point x="872" y="-680" type="curve" smooth="yes"/>
      <point x="1284" y="-680"/>
      <point x="1548" y="-496"/>
      <point x="1548" y="-176" type="curve" smooth="yes"/>
      <point x="1548" y="172"/>
      <point x="1316" y="292"/>
      <point x="904" y="408" type="curve" smooth="yes"/>
      <point x="524" y="512"/>
      <point x="432" y="580"/>
      <point x="432" y="760" type="curve" smooth="yes"/>
      <point x="432" y="916"/>
      <point x="532" y="1032"/>
      <point x="752" y="1032" type="curve"/>
    </contour>
  </outline>
</glyph>
<glyph name="dieresis" format="1">
  <advance width="1632"/>
  <unicode hex="00A8"/>
  <outline>
    <contour>
      <point x="816" y="1792" type="move" name="_top"/>
    </contour>
    <contour>
      <point x="628" y="2172" type="move" name="mkmktop_acc"/>
    </contour>
    <contour>
      <point x="340" y="1920" type="curve" smooth="yes"/>
      <point x="340" y="1836"/>
      <point x="392" y="1764"/>
      <point x="496" y="1764" type="curve" smooth="yes"/>
      <point x="600" y="1764"/>
      <point x="652" y="1836"/>
      <point x="652" y="1920" type="curve" smooth="yes"/>
      <point x="652" y="2004"/>
      <point x="600" y="2076"/>
      <point x="496" y="2076" type="curve" smooth="yes"/>
      <point x="392" y="2076"/>
      <point x="340" y="2004"/>
    </contour>
    <contour>
      <point x="980" y="1920" type="curve" smooth="yes"/>
      <point x="980" y="1836"/>
      <point x="1032" y="1764"/>
      <point x="1136" y="1764" type="curve" smooth="yes"/>
      <point x="1240" y="1764"/>
      <point x="1292" y="1836"/>
      <point x="1292" y="1920" type="curve" smooth="yes"/>
      <point x="1292" y="2004"/>
      <point x="1240" y="2076"/>
      <point x="1136" y="2076" type="curve" smooth="yes"/>
      <point x="1032" y="2076"/>
      <point x="980" y="2004"/>
    </contour>
  </outline>
</glyph>
<glyph name="copyright" format="1">
  <advance width="2272"/>
  <unicode hex="00A9"/>
  <outline>
    <contour>
      <point x="1364" y="820" type="line"/>
      <point x="1364" y="640"/>
      <point x="1280" y="572"/>
      <point x="1120" y="572" type="curve" smooth="yes"/>
      <point x="944" y="572"/>
      <point x="852" y="716"/>
      <point x="852" y="920" type="curve" smooth="yes"/>
      <point x="852" y="1084" type="line" smooth="yes"/>
      <point x="852" y="1288"/>
      <point x="944" y="1432"/>
      <point x="1120" y="1432" type="curve" smooth="yes"/>
      <point x="1280" y="1432"/>
      <point x="1368" y="1360"/>
      <point x="1368" y="1184" type="curve"/>
      <point x="1580" y="1184" type="line"/>
      <point x="1580" y="1472"/>
      <point x="1400" y="1616"/>
      <point x="1120" y="1616" type="curve" smooth="yes"/>
      <point x="824" y="1616"/>
      <point x="640" y="1400"/>
      <point x="640" y="1084" type="curve"/>
      <point x="640" y="920" type="line"/>
      <point x="640" y="604"/>
      <point x="824" y="388"/>
      <point x="1120" y="388" type="curve" smooth="yes"/>
      <point x="1400" y="388"/>
      <point x="1580" y="532"/>
      <point x="1580" y="820" type="curve"/>
    </contour>
    <contour>
      <point x="328" y="1004" type="curve"/>
      <point x="328" y="1488"/>
      <point x="692" y="1860"/>
      <point x="1136" y="1860" type="curve" smooth="yes"/>
      <point x="1584" y="1860"/>
      <point x="1944" y="1488"/>
      <point x="1944" y="1004" type="curve" smooth="yes"/>
      <point x="1944" y="516"/>
      <point x="1584" y="144"/>
      <point x="1136" y="144" type="curve" smooth="yes"/>
      <point x="692" y="144"/>
      <point x="328" y="516"/>
    </contour>
    <contour>
      <point x="160" y="1004" type="curve"/>
      <point x="160" y="420"/>
      <point x="600" y="-28"/>
      <point x="1136" y="-28" type="curve" smooth="yes"/>
      <point x="1676" y="-28"/>
      <point x="2112" y="420"/>
      <point x="2112" y="1004" type="curve" smooth="yes"/>
      <point x="2112" y="1584"/>
      <point x="1676" y="2032"/>
      <point x="1136" y="2032" type="curve" smooth="yes"/>
      <point x="600" y="2032"/>
      <point x="160" y="1584"/>
    </contour>
  </outline>
</glyph>
<glyph name="ordfeminine" format="1">
  <advance width="1248"/>
  <unicode hex="00AA"/>
  <outline>
    <contour>
      <point x="792" y="1184" type="line"/>
      <point x="792" y="1112"/>
      <point x="804" y="1036"/>
      <point x="824" y="972" type="curve"/>
      <point x="1068" y="972" type="line"/>
      <point x="1040" y="1052"/>
      <point x="1032" y="1132"/>
      <point x="1032" y="1220" type="curve" smooth="yes"/>
      <point x="1032" y="1652" type="line"/>
      <point x="1032" y="1904"/>
      <point x="872" y="2032"/>
      <point x="632" y="2032" type="curve" smooth="yes"/>
      <point x="372" y="2032"/>
      <point x="204" y="1896"/>
      <point x="204" y="1712" type="curve"/>
      <point x="440" y="1692" type="line"/>
      <point x="440" y="1780"/>
      <point x="512" y="1828"/>
      <point x="632" y="1828" type="curve" smooth="yes"/>
      <point x="740" y="1828"/>
      <point x="792" y="1768"/>
      <point x="792" y="1652" type="curve"/>
    </contour>
    <contour>
      <point x="852" y="1584" type="line"/>
      <point x="652" y="1584" type="line"/>
      <point x="336" y="1584"/>
      <point x="180" y="1468"/>
      <point x="180" y="1264" type="curve" smooth="yes"/>
      <point x="180" y="1076"/>
      <point x="304" y="952"/>
      <point x="524" y="952" type="curve" smooth="yes"/>
      <point x="712" y="952"/>
      <point x="816" y="1060"/>
      <point x="856" y="1148" type="curve"/>
      <point x="832" y="1308" type="line"/>
      <point x="832" y="1240"/>
      <point x="696" y="1152"/>
      <point x="584" y="1152" type="curve" smooth="yes"/>
      <point x="472" y="1152"/>
      <point x="424" y="1196"/>
      <point x="424" y="1272" type="curve" smooth="yes"/>
      <point x="424" y="1352"/>
      <point x="492" y="1424"/>
      <point x="652" y="1424" type="curve"/>
      <point x="852" y="1424" type="line"/>
    </contour>
  </outline>
</glyph>
<glyph name="logicalnot" format="1">
  <advance width="1504"/>
  <unicode hex="00AC"/>
  <outline>
    <contour>
      <point x="1328" y="1108" type="line"/>
      <point x="180" y="1108" type="line"/>
      <point x="180" y="872" type="line"/>
      <point x="1328" y="872" type="line"/>
    </contour>
    <contour>
      <point x="1328" y="1000" type="line"/>
      <point x="1052" y="1000" type="line"/>
      <point x="1052" y="516" type="line"/>
      <point x="1328" y="516" type="line"/>
    </contour>
  </outline>
</glyph>
<glyph name="registered" format="1">
  <advance width="2272"/>
  <unicode hex="00AE"/>
  <outline>
    <contour>
      <point x="1172" y="900" type="line"/>
      <point x="1224" y="900"/>
      <point x="1200" y="900"/>
      <point x="1248" y="928" type="curve" smooth="yes"/>
      <point x="1252" y="928"/>
      <point x="1260" y="948"/>
      <point x="1264" y="948" type="curve" smooth="yes"/>
      <point x="1460" y="1000"/>
      <point x="1564" y="1100"/>
      <point x="1564" y="1252" type="curve"/>
      <point x="1564" y="1488"/>
      <point x="1392" y="1604"/>
      <point x="1120" y="1604" type="curve"/>
      <point x="732" y="1604" type="line"/>
      <point x="732" y="436" type="line"/>
      <point x="940" y="436" type="line"/>
      <point x="940" y="1420" type="line"/>
      <point x="1120" y="1420" type="line"/>
      <point x="1296" y="1420"/>
      <point x="1360" y="1376"/>
      <point x="1360" y="1244" type="curve"/>
      <point x="1360" y="1140"/>
      <point x="1260" y="1084"/>
      <point x="1148" y="1084" type="curve"/>
      <point x="872" y="1084" type="line"/>
      <point x="876" y="900" type="line"/>
    </contour>
    <contour>
      <point x="1156" y="900" type="line"/>
      <point x="1300" y="900"/>
      <point x="1352" y="836"/>
      <point x="1352" y="708" type="curve"/>
      <point x="1352" y="632" type="line"/>
      <point x="1352" y="592"/>
      <point x="1352" y="480"/>
      <point x="1372" y="436" type="curve"/>
      <point x="1584" y="436" type="line"/>
      <point x="1584" y="456" type="line"/>
      <point x="1568" y="500"/>
      <point x="1560" y="564"/>
      <point x="1560" y="632" type="curve"/>
      <point x="1560" y="708" type="line"/>
      <point x="1560" y="892"/>
      <point x="1472" y="1028"/>
      <point x="1184" y="1028" type="curve"/>
    </contour>
    <contour>
      <point x="328" y="1004" type="curve" smooth="yes"/>
      <point x="328" y="1488"/>
      <point x="692" y="1860"/>
      <point x="1136" y="1860" type="curve" smooth="yes"/>
      <point x="1584" y="1860"/>
      <point x="1944" y="1488"/>
      <point x="1944" y="1004" type="curve" smooth="yes"/>
      <point x="1944" y="516"/>
      <point x="1584" y="144"/>
      <point x="1136" y="144" type="curve" smooth="yes"/>
      <point x="692" y="144"/>
      <point x="328" y="516"/>
    </contour>
    <contour>
      <point x="160" y="1004" type="curve" smooth="yes"/>
      <point x="160" y="420"/>
      <point x="600" y="-28"/>
      <point x="1136" y="-28" type="curve" smooth="yes"/>
      <point x="1676" y="-28"/>
      <point x="2112" y="420"/>
      <point x="2112" y="1004" type="curve" smooth="yes"/>
      <point x="2112" y="1584"/>
      <point x="1676" y="2032"/>
      <point x="1136" y="2032" type="curve" smooth="yes"/>
      <point x="600" y="2032"/>
      <point x="160" y="1584"/>
    </contour>
  </outline>
</glyph>
<glyph name="acute" format="1">
  <advance width="752"/>
  <unicode hex="00B4"/>
  <outline>
    <contour>
      <point x="304" y="1776" type="move" name="_top"/>
    </contour>
    <contour>
      <point x="304" y="2268" type="move" name="mkmktop_acc"/>
    </contour>
    <contour>
      <point x="152" y="1704" type="line"/>
      <point x="372" y="1704" type="line"/>
      <point x="752" y="2112" type="line"/>
      <point x="420" y="2112" type="line"/>
    </contour>
  </outline>
</glyph>
<glyph name="mu" format="1">
  <advance width="1760"/>
  <unicode hex="00B5"/>
  <outline>
    <contour>
      <point x="1280" y="1536" type="line"/>
      <point x="1280" y="344" type="line"/>
      <point x="1308" y="0" type="line"/>
      <point x="1504" y="0" type="line"/>
      <point x="1504" y="1536" type="line"/>
    </contour>
    <contour>
      <point x="1332" y="692" type="line"/>
      <point x="1332" y="400"/>
      <point x="1132" y="180"/>
      <point x="884" y="180" type="curve" smooth="yes"/>
      <point x="748" y="180"/>
      <point x="480" y="264"/>
      <point x="480" y="636" type="curve"/>
      <point x="356" y="636" type="line"/>
      <point x="416" y="212" type="line"/>
      <point x="496" y="44"/>
      <point x="704" y="-28"/>
      <point x="892" y="-28" type="curve" smooth="yes"/>
      <point x="1196" y="-28"/>
      <point x="1428" y="280"/>
      <point x="1428" y="696" type="curve"/>
    </contour>
    <contour>
      <point x="256" y="1536" type="line"/>
      <point x="256" y="-572" type="line"/>
      <point x="480" y="-572" type="line"/>
      <point x="480" y="1536" type="line"/>
    </contour>
  </outline>
</glyph>
<glyph name="ordmasculine" format="1">
  <advance width="1248"/>
  <unicode hex="00BA"/>
  <outline>
    <contour>
      <point x="148" y="1436" type="line"/>
      <point x="148" y="1152"/>
      <point x="332" y="952"/>
      <point x="628" y="952" type="curve" smooth="yes"/>
      <point x="920" y="952"/>
      <point x="1100" y="1152"/>
      <point x="1100" y="1436" type="curve"/>
      <point x="1100" y="1544" type="line"/>
      <point x="1100" y="1828"/>
      <point x="920" y="2032"/>
      <point x="624" y="2032" type="curve" smooth="yes"/>
      <point x="332" y="2032"/>
      <point x="148" y="1828"/>
      <point x="148" y="1544" type="curve"/>
    </contour>
    <contour>
      <point x="388" y="1544" type="line"/>
      <point x="388" y="1704"/>
      <point x="468" y="1828"/>
      <point x="624" y="1828" type="curve" smooth="yes"/>
      <point x="784" y="1828"/>
      <point x="860" y="1704"/>
      <point x="860" y="1544" type="curve"/>
      <point x="860" y="1436" type="line"/>
      <point x="860" y="1272"/>
      <point x="784" y="1152"/>
      <point x="628" y="1152" type="curve" smooth="yes"/>
      <point x="468" y="1152"/>
      <point x="388" y="1272"/>
      <point x="388" y="1436" type="curve"/>
    </contour>
  </outline>
</glyph>
<glyph name="AE" format="1">
  <advance width="2784"/>
  <unicode hex="00C6"/>
  <outline>
    <contour>
      <point x="1440" y="1860" type="line"/>
      <point x="1464" y="2048" type="line"/>
      <point x="1288" y="2048" type="line"/>
      <point x="76" y="0" type="line"/>
      <point x="372" y="0" type="line"/>
    </contour>
    <contour>
      <point x="1656" y="768" type="line"/>
      <point x="620" y="768" type="line"/>
      <point x="620" y="552" type="line"/>
      <point x="1656" y="552" type="line"/>
    </contour>
    <contour>
      <point x="2708" y="220" type="line"/>
      <point x="1700" y="220" type="line"/>
      <point x="1700" y="0" type="line"/>
      <point x="2708" y="0" type="line"/>
    </contour>
    <contour>
      <point x="1664" y="2048" type="line"/>
      <point x="1420" y="2048" type="line"/>
      <point x="1504" y="0" type="line"/>
      <point x="1748" y="0" type="line"/>
    </contour>
    <contour>
      <point x="2512" y="1152" type="line"/>
      <point x="1644" y="1152" type="line"/>
      <point x="1644" y="932" type="line"/>
      <point x="2512" y="932" type="line"/>
    </contour>
    <contour>
      <point x="2624" y="2048" type="line"/>
      <point x="1616" y="2048" type="line"/>
      <point x="1616" y="1828" type="line"/>
      <point x="2624" y="1828" type="line"/>
    </contour>
    <contour>
      <point x="1492" y="2304" type="move" name="top"/>
    </contour>
    <contour>
      <point x="2752" y="2200" type="move" name="top_dd"/>
    </contour>
    <contour>
      <point x="2752" y="2216" type="move" name="top0315"/>
    </contour>
  </outline>
</glyph>
<glyph name="Thorn" format="1">
  <advance width="1760"/>
  <unicode hex="00DE"/>
  <outline>
    <contour>
      <point x="224" y="2004" type="line"/>
      <point x="224" y="0" type="line"/>
      <point x="472" y="0" type="line"/>
      <point x="472" y="2004" type="line"/>
    </contour>
    <contour>
      <point x="336" y="1604" type="line"/>
      <point x="472" y="1384" type="line"/>
      <point x="868" y="1384" type="line" smooth="yes"/>
      <point x="1152" y="1384"/>
      <point x="1268" y="1200"/>
      <point x="1268" y="1012" type="curve" smooth="yes"/>
      <point x="1268" y="828"/>
      <point x="1152" y="648"/>
      <point x="868" y="648" type="curve" smooth="yes"/>
      <point x="416" y="648" type="line"/>
      <point x="416" y="428" type="line"/>
      <point x="868" y="428" type="line" smooth="yes"/>
      <point x="1304" y="428"/>
      <point x="1544" y="680"/>
      <point x="1544" y="1016" type="curve" smooth="yes"/>
      <point x="1544" y="1352"/>
      <point x="1304" y="1604"/>
      <point x="868" y="1604" type="curve" smooth="yes"/>
    </contour>
  </outline>
</glyph>
<glyph name="germandbls" format="1">
  <advance width="1760"/>
  <unicode hex="00DF"/>
  <outline>
    <contour>
      <point x="468" y="1524" type="line" name="hr00"/>
      <point x="468" y="1796"/>
      <point x="572" y="1928"/>
      <point x="756" y="1928" type="curve" smooth="yes"/>
      <point x="904" y="1928"/>
      <point x="1048" y="1828"/>
      <point x="1048" y="1644" type="curve" smooth="yes"/>
      <point x="1048" y="1436"/>
      <point x="848" y="1344"/>
      <point x="848" y="1128" type="curve" smooth="yes"/>
      <point x="848" y="756"/>
      <point x="1332" y="680"/>
      <point x="1332" y="424" type="curve" smooth="yes"/>
      <point x="1332" y="268"/>
      <point x="1244" y="180"/>
      <point x="1008" y="180" type="curve" smooth="yes"/>
      <point x="884" y="180"/>
      <point x="748" y="256"/>
      <point x="688" y="296" type="curve"/>
      <point x="628" y="72" type="line"/>
      <point x="696" y="20"/>
      <point x="888" y="-28"/>
      <point x="1036" y="-28" type="curve" smooth="yes"/>
      <point x="1352" y="-28"/>
      <point x="1568" y="120"/>
      <point x="1568" y="440" type="curve" smooth="yes"/>
      <point x="1568" y="792"/>
      <point x="1092" y="876"/>
      <point x="1092" y="1128" type="curve" smooth="yes"/>
      <point x="1092" y="1308"/>
      <point x="1272" y="1372"/>
      <point x="1272" y="1668" type="curve" smooth="yes"/>
      <point x="1272" y="1996"/>
      <point x="1052" y="2140"/>
      <point x="744" y="2140" type="curve" smooth="yes"/>
      <point x="420" y="2140"/>
      <point x="240" y="1932"/>
      <point x="240" y="1524" type="curve" smooth="yes"/>
      <point x="240" y="0" type="line"/>
      <point x="468" y="0" type="line"/>
    </contour>
  </outline>
</glyph>
<glyph name="ae" format="1">
  <advance width="2580"/>
  <unicode hex="00E6"/>
  <outline>
    <contour>
      <point x="1120" y="688" type="line"/>
      <point x="1120" y="544" type="line" smooth="yes"/>
      <point x="1120" y="352"/>
      <point x="928" y="176"/>
      <point x="644" y="176" type="curve" smooth="yes"/>
      <point x="536" y="176"/>
      <point x="364" y="212"/>
      <point x="364" y="404" type="curve" smooth="yes"/>
      <point x="364" y="656"/>
      <point x="636" y="688"/>
      <point x="996" y="688" type="curve" smooth="yes"/>
    </contour>
    <contour>
      <point x="1356" y="384" type="line"/>
      <point x="1356" y="884" type="line" smooth="yes"/>
      <point x="1356" y="1416"/>
      <point x="1068" y="1556"/>
      <point x="760" y="1556" type="curve" smooth="yes"/>
      <point x="588" y="1556"/>
      <point x="272" y="1504"/>
      <point x="148" y="1180" type="curve"/>
      <point x="368" y="1096" type="line"/>
      <point x="444" y="1248"/>
      <point x="584" y="1348"/>
      <point x="764" y="1348" type="curve" smooth="yes"/>
      <point x="960" y="1348"/>
      <point x="1120" y="1232"/>
      <point x="1120" y="928" type="curve" smooth="yes"/>
      <point x="1120" y="888" type="line"/>
      <point x="996" y="888" type="line" smooth="yes"/>
      <point x="472" y="888"/>
      <point x="128" y="772"/>
      <point x="128" y="404" type="curve" smooth="yes"/>
      <point x="128" y="140"/>
      <point x="344" y="-36"/>
      <point x="652" y="-36" type="curve" smooth="yes"/>
      <point x="952" y="-36"/>
      <point x="1200" y="132"/>
      <point x="1248" y="348" type="curve"/>
    </contour>
    <contour>
      <point x="1820" y="-32" type="curve"/>
      <point x="2128" y="-32"/>
      <point x="2328" y="112"/>
      <point x="2416" y="316" type="curve"/>
      <point x="2200" y="412" type="line"/>
      <point x="2136" y="268"/>
      <point x="2008" y="180"/>
      <point x="1820" y="180" type="curve" smooth="yes"/>
      <point x="1528" y="180"/>
      <point x="1352" y="420"/>
      <point x="1352" y="768" type="curve"/>
      <point x="1352" y="1104"/>
      <point x="1532" y="1344"/>
      <point x="1800" y="1344" type="curve" smooth="yes"/>
      <point x="2068" y="1344"/>
      <point x="2232" y="1192"/>
      <point x="2232" y="888" type="curve"/>
      <point x="1284" y="888" type="line"/>
      <point x="1284" y="684" type="line"/>
      <point x="2460" y="684" type="line"/>
      <point x="2460" y="784" type="line" smooth="yes"/>
      <point x="2460" y="1348"/>
      <point x="2180" y="1556"/>
      <point x="1796" y="1556" type="curve" smooth="yes"/>
      <point x="1384" y="1556"/>
      <point x="1116" y="1228"/>
      <point x="1116" y="768" type="curve"/>
      <point x="1116" y="296"/>
      <point x="1380" y="-32"/>
    </contour>
    <contour>
      <point x="1268" y="1792" type="move" name="top"/>
    </contour>
    <contour>
      <point x="2448" y="2200" type="move" name="top_dd"/>
    </contour>
    <contour>
      <point x="2448" y="1776" type="move" name="top0315"/>
    </contour>
  </outline>
</glyph>
<glyph name="eth" format="1">
  <advance width="1504"/>
  <unicode hex="00F0"/>
  <outline>
    <contour>
      <point x="272" y="1944" type="line"/>
      <point x="736" y="1824"/>
      <point x="1132" y="1508"/>
      <point x="1132" y="876" type="curve" smooth="yes"/>
      <point x="1132" y="736" type="line" smooth="yes"/>
      <point x="1132" y="428"/>
      <point x="992" y="192"/>
      <point x="760" y="192" type="curve" smooth="yes"/>
      <point x="512" y="192"/>
      <point x="372" y="424"/>
      <point x="372" y="644" type="curve"/>
      <point x="372" y="944"/>
      <point x="528" y="1128"/>
      <point x="784" y="1128" type="curve"/>
      <point x="1036" y="1128"/>
      <point x="1160" y="968"/>
      <point x="1160" y="852" type="curve"/>
      <point x="1264" y="848" type="line"/>
      <point x="1264" y="1088"/>
      <point x="1028" y="1348"/>
      <point x="716" y="1348" type="curve"/>
      <point x="364" y="1348"/>
      <point x="100" y="1068"/>
      <point x="100" y="644" type="curve"/>
      <point x="100" y="272"/>
      <point x="368" y="-28"/>
      <point x="756" y="-28" type="curve" smooth="yes"/>
      <point x="1132" y="-28"/>
      <point x="1408" y="284"/>
      <point x="1408" y="736" type="curve"/>
      <point x="1408" y="872" type="line"/>
      <point x="1408" y="1564"/>
      <point x="972" y="2044"/>
      <point x="356" y="2176" type="curve"/>
    </contour>
    <contour>
      <point x="1292" y="1948" type="line"/>
      <point x="1184" y="2092" type="line"/>
      <point x="436" y="1576" type="line"/>
      <point x="544" y="1436" type="line"/>
    </contour>
  </outline>
</glyph>
<glyph name="oslash" format="1">
  <advance width="1632"/>
  <unicode hex="00F8"/>
  <outline>
    <contour>
      <point x="816" y="1792" type="move" name="top"/>
    </contour>
    <contour>
      <point x="1588" y="2200" type="move" name="top_dd"/>
    </contour>
    <contour>
      <point x="1572" y="1792" type="move" name="top0315"/>
    </contour>
    <contour>
      <point x="1344" y="1660" type="line"/>
      <point x="1164" y="1660" type="line"/>
      <point x="256" y="-184" type="line"/>
      <point x="432" y="-184" type="line"/>
    </contour>
    <component base="o" xOffset="-16"/>
  </outline>
</glyph>
<glyph name="dcroat" format="1">
  <advance width="1760"/>
  <unicode hex="0111"/>
  <outline>
    <contour>
      <point x="1524" y="2112" type="move" name="caron"/>
    </contour>
    <contour>
      <point x="840" y="0" type="move" name="bottom"/>
    </contour>
    <contour>
      <point x="744" y="2216" type="move" name="top"/>
    </contour>
    <contour>
      <point x="1584" y="2200" type="move" name="top_dd"/>
    </contour>
    <contour>
      <point x="1584" y="-560" type="move" name="bottom_dd"/>
    </contour>
    <contour>
      <point x="840" y="0" type="move" name="markbottom"/>
    </contour>
    <contour>
      <point x="1688" y="2216" type="move" name="top0315"/>
    </contour>
    <contour>
      <point x="1204" y="1800" type="move" name="parenthesses.w2"/>
    </contour>
    <contour>
      <point x="1148" y="288" type="line"/>
      <point x="1172" y="0" type="line"/>
      <point x="1384" y="0" type="line"/>
      <point x="1384" y="2112" type="line"/>
      <point x="1148" y="2112" type="line"/>
    </contour>
    <contour>
      <point x="1648" y="1912" type="line"/>
      <point x="764" y="1912" type="line"/>
      <point x="764" y="1692" type="line"/>
      <point x="1648" y="1692" type="line"/>
    </contour>
    <component base="leftloop.cn" xOffset="-16"/>
  </outline>
</glyph>
<glyph name="Hbar" format="1">
  <advance width="2016"/>
  <unicode hex="0126"/>
  <outline>
    <contour>
      <point x="1008" y="2216" type="move" name="top"/>
    </contour>
    <contour>
      <point x="1008" y="16" type="move" name="bottom"/>
    </contour>
    <contour>
      <point x="1988" y="2216" type="move" name="top0315"/>
    </contour>
    <contour>
      <point x="1992" y="1616" type="line"/>
      <point x="76" y="1616" type="line"/>
      <point x="76" y="1408" type="line"/>
      <point x="1992" y="1408" type="line"/>
    </contour>
    <component base="H" xOffset="4"/>
  </outline>
</glyph>
<glyph name="dotlessi" format="1">
  <advance width="736"/>
  <unicode hex="0131"/>
  <outline>
    <contour>
      <point x="368" y="1796" type="move" name="top"/>
    </contour>
    <contour>
      <point x="332" y="16" type="move" name="bottom"/>
    </contour>
    <contour>
      <point x="376" y="900" type="move" name="rhotichook"/>
    </contour>
    <contour>
      <point x="696" y="1776" type="move" name="top0315"/>
    </contour>
    <contour>
      <point x="480" y="1536" type="line"/>
      <point x="240" y="1536" type="line"/>
      <point x="240" y="0" type="line"/>
      <point x="480" y="0" type="line"/>
    </contour>
  </outline>
</glyph>
<glyph name="kgreenlandic" format="1">
  <advance width="1760"/>
  <unicode hex="0138"/>
  <outline>
    <contour>
      <point x="840" y="1776" type="move" name="top"/>
    </contour>
    <contour>
      <point x="840" y="16" type="move" name="bottom"/>
    </contour>
    <contour>
      <point x="1600" y="1776" type="move" name="top0315"/>
    </contour>
    <contour>
      <point x="508" y="1488" type="line"/>
      <point x="232" y="1488" type="line"/>
      <point x="232" y="0" type="line"/>
      <point x="508" y="0" type="line"/>
    </contour>
    <contour>
      <point x="1484" y="1488" type="line"/>
      <point x="1152" y="1488" type="line"/>
      <point x="620" y="864" type="line"/>
      <point x="372" y="864" type="line"/>
      <point x="416" y="628" type="line"/>
      <point x="744" y="628" type="line"/>
    </contour>
    <contour>
      <point x="1180" y="0" type="line"/>
      <point x="1528" y="0" type="line"/>
      <point x="784" y="864" type="line"/>
      <point x="608" y="668" type="line"/>
    </contour>
  </outline>
</glyph>
<glyph name="Lslash" format="1">
  <advance width="1504"/>
  <unicode hex="0141"/>
  <outline>
    <contour>
      <point x="384" y="2200" type="move" name="top"/>
    </contour>
    <contour>
      <point x="868" y="16" type="move" name="bottom"/>
    </contour>
    <contour>
      <point x="1540" y="2200" type="move" name="top0315"/>
    </contour>
    <contour>
      <point x="864" y="1280" type="line"/>
      <point x="52" y="1024" type="line"/>
      <point x="52" y="844" type="line"/>
      <point x="864" y="1100" type="line"/>
    </contour>
    <component base="L" xOffset="16"/>
  </outline>
</glyph>
<glyph name="Eng" format="1">
  <advance width="2016"/>
  <unicode hex="014A"/>
  <outline>
    <contour>
      <point x="1028" y="2200" type="move" name="top"/>
    </contour>
    <contour>
      <point x="1020" y="16" type="move" name="bottom"/>
    </contour>
    <contour>
      <point x="1976" y="2200" type="move" name="top0315"/>
    </contour>
    <contour>
      <point x="248" y="2004" type="line"/>
      <point x="248" y="0" type="line"/>
      <point x="532" y="0" type="line"/>
      <point x="532" y="2004" type="line"/>
    </contour>
    <contour>
      <point x="332" y="1836" type="line"/>
      <point x="1484" y="0" type="line"/>
      <point x="1684" y="168" type="line"/>
      <point x="532" y="2004" type="line"/>
    </contour>
    <contour>
      <point x="1484" y="2004" type="line"/>
      <point x="1484" y="-116" type="line" smooth="yes"/>
      <point x="1484" y="-276"/>
      <point x="1420" y="-372"/>
      <point x="1312" y="-372" type="curve" smooth="yes"/>
      <point x="1288" y="-372"/>
      <point x="1208" y="-364"/>
      <point x="1176" y="-352" type="curve"/>
      <point x="1156" y="-580" type="line"/>
      <point x="1212" y="-596"/>
      <point x="1256" y="-600"/>
      <point x="1316" y="-600" type="curve" smooth="yes"/>
      <point x="1600" y="-600"/>
      <point x="1772" y="-428"/>
      <point x="1772" y="-116" type="curve" smooth="yes"/>
      <point x="1772" y="2004" type="line"/>
    </contour>
  </outline>
</glyph>
<glyph name="OE" format="1">
  <advance width="2636"/>
  <unicode hex="0152"/>
  <outline>
    <contour>
      <point x="944" y="2032" type="curve" smooth="yes"/>
      <point x="484" y="2032"/>
      <point x="176" y="1696"/>
      <point x="176" y="1212" type="curve"/>
      <point x="176" y="792" type="line"/>
      <point x="176" y="308"/>
      <point x="488" y="-28"/>
      <point x="944" y="-28" type="curve" smooth="yes"/>
      <point x="1084" y="-28"/>
      <point x="1220" y="-16"/>
      <point x="1340" y="0" type="curve"/>
      <point x="1340" y="232" type="line"/>
      <point x="1224" y="208"/>
      <point x="1088" y="192"/>
      <point x="944" y="192" type="curve" smooth="yes"/>
      <point x="644" y="192"/>
      <point x="448" y="396"/>
      <point x="448" y="792" type="curve"/>
      <point x="448" y="1212" type="line"/>
      <point x="448" y="1608"/>
      <point x="640" y="1812"/>
      <point x="944" y="1812" type="curve" smooth="yes"/>
      <point x="1088" y="1812"/>
      <point x="1224" y="1796"/>
      <point x="1340" y="1772" type="curve"/>
      <point x="1340" y="2004" type="line"/>
      <point x="1220" y="2016"/>
      <point x="1084" y="2032"/>
    </contour>
    <component base="E" xOffset="1004"/>
    <contour>
      <point x="1340" y="2304" type="move" name="top"/>
    </contour>
    <contour>
      <point x="1340" y="0" type="move" name="bottom"/>
    </contour>
    <contour>
      <point x="2728" y="2200" type="move" name="top_dd"/>
    </contour>
    <contour>
      <point x="2728" y="-560" type="move" name="bottom_dd"/>
    </contour>
    <contour>
      <point x="2728" y="2200" type="move" name="top0315"/>
    </contour>
  </outline>
</glyph>
<glyph name="oe" format="1">
  <advance width="2528"/>
  <unicode hex="0153"/>
  <outline>
    <contour>
      <point x="1264" y="1776" type="move" name="top"/>
    </contour>
    <contour>
      <point x="1264" y="0" type="move" name="bottom"/>
    </contour>
    <contour>
      <point x="2520" y="2200" type="move" name="top_dd"/>
    </contour>
    <contour>
      <point x="2520" y="-560" type="move" name="bottom_dd"/>
    </contour>
    <contour>
      <point x="2520" y="1776" type="move" name="top0315"/>
    </contour>
    <contour>
      <point x="1856" y="-28" type="curve"/>
      <point x="2128" y="-28"/>
      <point x="2296" y="68"/>
      <point x="2384" y="156" type="curve"/>
      <point x="2276" y="336" type="line"/>
      <point x="2184" y="256"/>
      <point x="2052" y="192"/>
      <point x="1856" y="192" type="curve" smooth="yes"/>
      <point x="1584" y="192"/>
      <point x="1452" y="428"/>
      <point x="1452" y="720" type="curve" smooth="yes"/>
      <point x="1452" y="776" type="line" smooth="yes"/>
      <point x="1452" y="1064"/>
      <point x="1604" y="1296"/>
      <point x="1816" y="1296" type="curve"/>
      <point x="2052" y="1296"/>
      <point x="2148" y="1120"/>
      <point x="2148" y="932" type="curve"/>
      <point x="2148" y="896" type="line"/>
      <point x="1340" y="896" type="line"/>
      <point x="1340" y="676" type="line"/>
      <point x="2424" y="676" type="line"/>
      <point x="2424" y="848" type="line" smooth="yes"/>
      <point x="2424" y="1236"/>
      <point x="2232" y="1516"/>
      <point x="1816" y="1516" type="curve" smooth="yes"/>
      <point x="1480" y="1520"/>
      <point x="1176" y="1212"/>
      <point x="1176" y="776" type="curve" smooth="yes"/>
      <point x="1176" y="720" type="line" smooth="yes"/>
      <point x="1176" y="284"/>
      <point x="1436" y="-28"/>
    </contour>
    <contour>
      <point x="104" y="728" type="line"/>
      <point x="104" y="300"/>
      <point x="352" y="-28"/>
      <point x="772" y="-28" type="curve" smooth="yes"/>
      <point x="1192" y="-28"/>
      <point x="1436" y="300"/>
      <point x="1436" y="728" type="curve"/>
      <point x="1436" y="760" type="line"/>
      <point x="1436" y="1188"/>
      <point x="1192" y="1516"/>
      <point x="768" y="1516" type="curve" smooth="yes"/>
      <point x="352" y="1516"/>
      <point x="104" y="1188"/>
      <point x="104" y="760" type="curve"/>
    </contour>
    <contour>
      <point x="380" y="760" type="line"/>
      <point x="380" y="1044"/>
      <point x="500" y="1296"/>
      <point x="768" y="1296" type="curve" smooth="yes"/>
      <point x="1044" y="1296"/>
      <point x="1164" y="1044"/>
      <point x="1164" y="760" type="curve"/>
      <point x="1164" y="728" type="line"/>
      <point x="1164" y="440"/>
      <point x="1044" y="192"/>
      <point x="772" y="192" type="curve" smooth="yes"/>
      <point x="500" y="192"/>
      <point x="380" y="440"/>
      <point x="380" y="728" type="curve"/>
    </contour>
  </outline>
</glyph>
<glyph name="Bhook" format="1">
  <advance width="2016"/>
  <unicode hex="0181"/>
  <outline>
    <contour>
      <point x="772" y="1772" type="line" name="hr00"/>
      <point x="772" y="2004" type="line"/>
      <point x="536" y="2004" type="line" smooth="yes"/>
      <point x="224" y="2004"/>
      <point x="56" y="1876"/>
      <point x="56" y="1612" type="curve" smooth="yes"/>
      <point x="56" y="1568"/>
      <point x="68" y="1496"/>
      <point x="80" y="1452" type="curve"/>
      <point x="300" y="1452" type="line"/>
      <point x="292" y="1480"/>
      <point x="288" y="1520"/>
      <point x="288" y="1540" type="curve" smooth="yes"/>
      <point x="288" y="1692"/>
      <point x="356" y="1772"/>
      <point x="536" y="1772" type="curve" smooth="yes"/>
    </contour>
    <component base="B" xOffset="300"/>
  </outline>
</glyph>
<glyph name="Tonesix" format="1">
  <advance width="1760"/>
  <unicode hex="0184"/>
  <outline>
    <contour>
      <point x="292" y="2004" type="line"/>
      <point x="68" y="1720" type="line"/>
      <point x="68" y="1612" type="line"/>
      <point x="292" y="1332" type="line"/>
      <point x="360" y="1332" type="line"/>
      <point x="360" y="2004" type="line"/>
    </contour>
    <component base="afii10046" xOffset="72"/>
  </outline>
</glyph>
<glyph name="tonesix" format="1">
  <advance width="1760"/>
  <unicode hex="0185"/>
  <outline>
    <contour>
      <point x="320" y="2112" type="line"/>
      <point x="96" y="1832" type="line"/>
      <point x="96" y="1720" type="line"/>
      <point x="320" y="1440" type="line"/>
      <point x="384" y="1440" type="line"/>
      <point x="384" y="2112" type="line"/>
    </contour>
    <component base="b" xOffset="132"/>
  </outline>
</glyph>
<glyph name="Chook" format="1">
  <advance width="2048"/>
  <unicode hex="0187"/>
  <outline>
    <contour>
      <point x="1588" y="1356" type="line" name="hr00"/>
      <point x="1588" y="1592" type="line" smooth="yes"/>
      <point x="1588" y="1780"/>
      <point x="1684" y="1832"/>
      <point x="1828" y="1832" type="curve" smooth="yes"/>
      <point x="1852" y="1832"/>
      <point x="1888" y="1832"/>
      <point x="1916" y="1824" type="curve"/>
      <point x="1916" y="2048" type="line"/>
      <point x="1876" y="2060"/>
      <point x="1804" y="2072"/>
      <point x="1756" y="2072" type="curve" smooth="yes"/>
      <point x="1496" y="2072"/>
      <point x="1360" y="1904"/>
      <point x="1360" y="1592" type="curve" smooth="yes"/>
      <point x="1360" y="1356" type="line"/>
    </contour>
    <component base="C" xOffset="-124"/>
  </outline>
</glyph>
<glyph name="Dtopbar" format="1">
  <advance width="1760"/>
  <unicode hex="018B"/>
  <outline>
    <contour>
      <point x="1604" y="0" type="line"/>
      <point x="1604" y="2004" type="line"/>
      <point x="372" y="2004" type="line"/>
      <point x="372" y="1772" type="line"/>
      <point x="1320" y="1772" type="line"/>
      <point x="1320" y="1196" type="line"/>
      <point x="840" y="1196" type="line" smooth="yes"/>
      <point x="400" y="1196"/>
      <point x="156" y="960"/>
      <point x="156" y="604" type="curve" smooth="yes"/>
      <point x="156" y="248"/>
      <point x="400" y="0"/>
      <point x="840" y="0" type="curve" smooth="yes"/>
    </contour>
    <contour>
      <point x="1320" y="228" type="line"/>
      <point x="840" y="228" type="line" smooth="yes"/>
      <point x="556" y="228"/>
      <point x="444" y="408"/>
      <point x="444" y="608" type="curve" smooth="yes"/>
      <point x="444" y="804"/>
      <point x="556" y="964"/>
      <point x="840" y="964" type="curve" smooth="yes"/>
      <point x="1320" y="964" type="line"/>
    </contour>
  </outline>
</glyph>
<glyph name="Eturn" format="1">
  <advance width="1504"/>
  <unicode hex="018E"/>
  <outline>
    <contour>
      <point x="116" y="1776" type="line"/>
      <point x="1160" y="1776" type="line"/>
      <point x="1160" y="2004" type="line"/>
      <point x="116" y="2004" type="line"/>
    </contour>
    <contour>
      <point x="1104" y="0" type="line"/>
      <point x="1392" y="0" type="line"/>
      <point x="1392" y="2004" type="line"/>
      <point x="1104" y="2004" type="line"/>
    </contour>
    <contour>
      <point x="256" y="856" type="line"/>
      <point x="1160" y="856" type="line"/>
      <point x="1160" y="1084" type="line"/>
      <point x="256" y="1084" type="line"/>
    </contour>
    <contour>
      <point x="128" y="0" type="line"/>
      <point x="1160" y="0" type="line"/>
      <point x="1160" y="232" type="line"/>
      <point x="128" y="232" type="line"/>
    </contour>
  </outline>
</glyph>
<glyph name="Epsilon1" format="1">
  <advance width="1760"/>
  <unicode hex="0190"/>
  <outline>
    <contour>
      <point x="880" y="2200" type="move" name="top"/>
    </contour>
    <contour>
      <point x="880" y="0" type="move" name="bottom"/>
    </contour>
    <contour>
      <point x="1712" y="2200" type="move" name="top0315"/>
    </contour>
    <contour>
      <point x="1104" y="960" type="line"/>
      <point x="1104" y="1136" type="line"/>
      <point x="880" y="1136" type="line" smooth="yes"/>
      <point x="584" y="1136"/>
      <point x="472" y="1272"/>
      <point x="472" y="1464" type="curve" smooth="yes"/>
      <point x="472" y="1652"/>
      <point x="600" y="1800"/>
      <point x="900" y="1800" type="curve" smooth="yes"/>
      <point x="1128" y="1800"/>
      <point x="1292" y="1668"/>
      <point x="1292" y="1480" type="curve"/>
      <point x="1576" y="1480" type="line"/>
      <point x="1576" y="1820"/>
      <point x="1268" y="2032"/>
      <point x="900" y="2032" type="curve" smooth="yes"/>
      <point x="472" y="2032"/>
      <point x="188" y="1832"/>
      <point x="188" y="1460" type="curve" smooth="yes"/>
      <point x="188" y="1144"/>
      <point x="472" y="960"/>
      <point x="872" y="960" type="curve"/>
    </contour>
    <contour>
      <point x="872" y="1080" type="line"/>
      <point x="424" y="1080"/>
      <point x="156" y="896"/>
      <point x="156" y="560" type="curve" smooth="yes"/>
      <point x="156" y="140"/>
      <point x="480" y="-28"/>
      <point x="900" y="-28" type="curve" smooth="yes"/>
      <point x="1244" y="-28"/>
      <point x="1604" y="148"/>
      <point x="1604" y="556" type="curve"/>
      <point x="1320" y="556" type="line"/>
      <point x="1320" y="360"/>
      <point x="1160" y="200"/>
      <point x="900" y="200" type="curve" smooth="yes"/>
      <point x="620" y="200"/>
      <point x="444" y="316"/>
      <point x="444" y="556" type="curve" smooth="yes"/>
      <point x="444" y="800"/>
      <point x="592" y="908"/>
      <point x="880" y="908" type="curve" smooth="yes"/>
      <point x="1104" y="908" type="line"/>
      <point x="1104" y="1080" type="line"/>
    </contour>
  </outline>
</glyph>
<glyph name="Fhook" format="1">
  <advance width="1760"/>
  <unicode hex="0191"/>
  <outline>
    <contour>
      <point x="396" y="1284" type="line" name="hr00"/>
      <point x="396" y="-124" type="line" smooth="yes"/>
      <point x="396" y="-284"/>
      <point x="336" y="-364"/>
      <point x="228" y="-364" type="curve" smooth="yes"/>
      <point x="184" y="-364"/>
      <point x="124" y="-356"/>
      <point x="92" y="-344" type="curve"/>
      <point x="72" y="-580" type="line"/>
      <point x="124" y="-596"/>
      <point x="172" y="-600"/>
      <point x="228" y="-600" type="curve" smooth="yes"/>
      <point x="508" y="-600"/>
      <point x="680" y="-432"/>
      <point x="680" y="-124" type="curve" smooth="yes"/>
      <point x="680" y="1284" type="line"/>
    </contour>
    <component base="F" xOffset="168"/>
  </outline>
</glyph>
<glyph name="florin" format="1">
  <advance width="1000"/>
  <unicode hex="0192"/>
  <outline>
    <contour>
      <point x="872" y="1488" type="line"/>
      <point x="604" y="1488" type="line"/>
      <point x="604" y="1640" type="line" smooth="yes"/>
      <point x="604" y="1816"/>
      <point x="676" y="1912"/>
      <point x="836" y="1912" type="curve" smooth="yes"/>
      <point x="888" y="1912"/>
      <point x="936" y="1908"/>
      <point x="968" y="1900" type="curve"/>
      <point x="1000" y="2112" type="line"/>
      <point x="932" y="2128"/>
      <point x="868" y="2140"/>
      <point x="800" y="2140" type="curve" smooth="yes"/>
      <point x="508" y="2140"/>
      <point x="328" y="1964"/>
      <point x="328" y="1640" type="curve" smooth="yes"/>
      <point x="328" y="1488" type="line"/>
      <point x="96" y="1488" type="line"/>
      <point x="96" y="1284" type="line"/>
      <point x="328" y="1284" type="line"/>
      <point x="328" y="-124" type="line" smooth="yes"/>
      <point x="328" y="-284"/>
      <point x="264" y="-380"/>
      <point x="156" y="-380" type="curve" smooth="yes"/>
      <point x="132" y="-380"/>
      <point x="48" y="-376"/>
      <point x="20" y="-364" type="curve"/>
      <point x="0" y="-580" type="line"/>
      <point x="52" y="-596"/>
      <point x="100" y="-600"/>
      <point x="156" y="-600" type="curve" smooth="yes"/>
      <point x="436" y="-600"/>
      <point x="604" y="-432"/>
      <point x="604" y="-124" type="curve" smooth="yes"/>
      <point x="604" y="1284" type="line"/>
      <point x="872" y="1284" type="line"/>
    </contour>
  </outline>
</glyph>
<glyph name="Ghook" format="1">
  <advance width="2048"/>
  <unicode hex="0193"/>
  <outline>
    <contour>
      <point x="1592" y="1412" type="line"/>
      <point x="1592" y="1592" type="line" smooth="yes"/>
      <point x="1592" y="1780"/>
      <point x="1684" y="1844"/>
      <point x="1832" y="1844" type="curve" smooth="yes"/>
      <point x="1856" y="1844"/>
      <point x="1892" y="1840"/>
      <point x="1920" y="1832" type="curve"/>
      <point x="1920" y="2048" type="line"/>
      <point x="1876" y="2060"/>
      <point x="1808" y="2072"/>
      <point x="1760" y="2072" type="curve" smooth="yes"/>
      <point x="1496" y="2072"/>
      <point x="1368" y="1904"/>
      <point x="1368" y="1592" type="curve" smooth="yes"/>
      <point x="1368" y="1412" type="line"/>
    </contour>
    <component base="G" xOffset="-124"/>
  </outline>
</glyph>
<glyph name="Gamma1" format="1">
  <advance width="1760"/>
  <unicode hex="0194"/>
  <outline>
    <contour>
      <point x="20" y="2004" type="line"/>
      <point x="832" y="156" type="line" smooth="yes"/>
      <point x="936" y="-84"/>
      <point x="976" y="-192"/>
      <point x="976" y="-272" type="curve" smooth="yes"/>
      <point x="976" y="-324"/>
      <point x="952" y="-372"/>
      <point x="880" y="-372" type="curve" smooth="yes"/>
      <point x="808" y="-372"/>
      <point x="784" y="-328"/>
      <point x="784" y="-272" type="curve" smooth="yes"/>
      <point x="784" y="-192"/>
      <point x="832" y="-72"/>
      <point x="932" y="156" type="curve" smooth="yes"/>
      <point x="1740" y="2004" type="line"/>
      <point x="1424" y="2004" type="line"/>
      <point x="756" y="388" type="line" smooth="yes"/>
      <point x="604" y="20"/>
      <point x="508" y="-140"/>
      <point x="508" y="-272" type="curve" smooth="yes"/>
      <point x="508" y="-480"/>
      <point x="648" y="-600"/>
      <point x="880" y="-600" type="curve" smooth="yes"/>
      <point x="1112" y="-600"/>
      <point x="1252" y="-480"/>
      <point x="1252" y="-272" type="curve" smooth="yes"/>
      <point x="1252" y="-140"/>
      <point x="1148" y="20"/>
      <point x="996" y="388" type="curve" smooth="yes"/>
      <point x="336" y="2004" type="line"/>
    </contour>
  </outline>
</glyph>
<glyph name="Iota1" format="1">
  <advance width="992"/>
  <unicode hex="0196"/>
  <outline>
    <contour>
      <point x="436" y="2112" type="line"/>
      <point x="160" y="2112" type="line"/>
      <point x="160" y="472" type="line" smooth="yes"/>
      <point x="160" y="152"/>
      <point x="340" y="-28"/>
      <point x="636" y="-28" type="curve" smooth="yes"/>
      <point x="700" y="-28"/>
      <point x="768" y="-16"/>
      <point x="832" y="0" type="curve"/>
      <point x="800" y="208" type="line"/>
      <point x="768" y="200"/>
      <point x="728" y="192"/>
      <point x="680" y="192" type="curve" smooth="yes"/>
      <point x="520" y="192"/>
      <point x="436" y="300"/>
      <point x="436" y="472" type="curve" smooth="yes"/>
    </contour>
  </outline>
</glyph>
<glyph name="Ibar" format="1">
  <advance width="992"/>
  <unicode hex="0197"/>
  <outline>
    <component base="I" xOffset="104"/>
    <component base="crossbar" xOffset="-148"/>
    <contour>
      <point x="496" y="2216" type="move" name="top"/>
    </contour>
    <contour>
      <point x="968" y="2216" type="move" name="top0315"/>
    </contour>
    <contour>
      <point x="496" y="16" type="move" name="bottom"/>
    </contour>
  </outline>
</glyph>
<glyph name="lbar" format="1">
  <advance width="992"/>
  <unicode hex="019A"/>
  <outline>
    <contour>
      <point x="496" y="2336" type="move" name="top"/>
    </contour>
    <contour>
      <point x="968" y="2336" type="move" name="top0315"/>
    </contour>
    <contour>
      <point x="496" y="16" type="move" name="bottom"/>
    </contour>
    <component base="l" xOffset="148"/>
    <component base="crossbar" xOffset="-148" yOffset="96"/>
  </outline>
</glyph>
<glyph name="lambdabar" format="1">
  <advance width="1760"/>
  <unicode hex="019B"/>
  <outline>
    <contour>
      <point x="1328" y="2216" type="move" name="top0315"/>
    </contour>
    <contour>
      <point x="936" y="1952" type="line"/>
      <point x="260" y="1692" type="line"/>
      <point x="260" y="1460" type="line"/>
      <point x="936" y="1716" type="line"/>
    </contour>
    <component base="lambda" xOffset="-16"/>
  </outline>
</glyph>
<glyph name="mcapturn" format="1">
  <advance width="2528"/>
  <unicode hex="019C"/>
  <outline>
    <contour>
      <point x="2036" y="292" type="line"/>
      <point x="2048" y="0" type="line"/>
      <point x="2308" y="0" type="line"/>
      <point x="2308" y="2004" type="line"/>
      <point x="2036" y="2004" type="line"/>
    </contour>
    <contour>
      <point x="2056" y="692" type="line"/>
      <point x="2056" y="416"/>
      <point x="1956" y="200"/>
      <point x="1660" y="200" type="curve" smooth="yes"/>
      <point x="1532" y="200"/>
      <point x="1400" y="280"/>
      <point x="1400" y="608" type="curve"/>
      <point x="1400" y="2004" type="line"/>
      <point x="1128" y="2004" type="line"/>
      <point x="1128" y="608" type="line"/>
      <point x="1128" y="128"/>
      <point x="1324" y="-28"/>
      <point x="1616" y="-28" type="curve" smooth="yes"/>
      <point x="2024" y="-28"/>
      <point x="2184" y="280"/>
      <point x="2184" y="696" type="curve"/>
    </contour>
    <contour>
      <point x="1152" y="692" type="line"/>
      <point x="1152" y="416"/>
      <point x="1048" y="200"/>
      <point x="752" y="200" type="curve" smooth="yes"/>
      <point x="624" y="200"/>
      <point x="496" y="280"/>
      <point x="496" y="608" type="curve" smooth="yes"/>
      <point x="496" y="2004" type="line"/>
      <point x="220" y="2004" type="line"/>
      <point x="220" y="608" type="line" smooth="yes"/>
      <point x="220" y="132"/>
      <point x="412" y="-28"/>
      <point x="708" y="-28" type="curve" smooth="yes"/>
      <point x="1116" y="-28"/>
      <point x="1280" y="280"/>
      <point x="1280" y="696" type="curve"/>
    </contour>
  </outline>
</glyph>
<glyph name="Nhook" format="1">
  <advance width="2016"/>
  <unicode hex="019D"/>
  <outline>
    <contour>
      <point x="388" y="1284" type="line"/>
      <point x="388" y="-124" type="line" smooth="yes"/>
      <point x="388" y="-284"/>
      <point x="328" y="-364"/>
      <point x="220" y="-364" type="curve" smooth="yes"/>
      <point x="176" y="-364"/>
      <point x="116" y="-356"/>
      <point x="84" y="-344" type="curve"/>
      <point x="64" y="-580" type="line"/>
      <point x="116" y="-596"/>
      <point x="164" y="-600"/>
      <point x="220" y="-600" type="curve" smooth="yes"/>
      <point x="500" y="-600"/>
      <point x="672" y="-432"/>
      <point x="672" y="-124" type="curve" smooth="yes"/>
      <point x="672" y="1284" type="line"/>
    </contour>
    <component base="N" xOffset="160"/>
  </outline>
</glyph>
<glyph name="Ohorn" format="1">
  <advance width="2032"/>
  <unicode hex="01A0"/>
  <outline>
    <contour>
      <point x="1756" y="2196" type="line"/>
      <point x="1756" y="1964"/>
      <point x="1676" y="1828"/>
      <point x="1468" y="1828" type="curve"/>
      <point x="1468" y="1632" type="line"/>
      <point x="1824" y="1632"/>
      <point x="2004" y="1836"/>
      <point x="2004" y="2196" type="curve"/>
    </contour>
    <component base="O"/>
    <contour>
      <point x="992" y="2192" type="move" name="top"/>
    </contour>
    <contour>
      <point x="980" y="0" type="move" name="bottom"/>
    </contour>
    <contour>
      <point x="1956" y="2192" type="move" name="top0315"/>
    </contour>
  </outline>
</glyph>
<glyph name="ohorn" format="1">
  <advance width="1760"/>
  <unicode hex="01A1"/>
  <outline>
    <contour>
      <point x="1380" y="1652" type="line"/>
      <point x="1380" y="1456"/>
      <point x="1352" y="1324"/>
      <point x="1152" y="1324" type="curve"/>
      <point x="1152" y="1156" type="line"/>
      <point x="1484" y="1156"/>
      <point x="1600" y="1348"/>
      <point x="1600" y="1652" type="curve"/>
    </contour>
    <component base="o" xOffset="-76"/>
    <contour>
      <point x="728" y="1776" type="move" name="top"/>
    </contour>
    <contour>
      <point x="728" y="-16" type="move" name="bottom"/>
    </contour>
    <contour>
      <point x="1544" y="1776" type="move" name="top0315"/>
    </contour>
  </outline>
</glyph>
<glyph name="OI" format="1">
  <advance width="2272"/>
  <unicode hex="01A2"/>
  <outline>
    <contour>
      <point x="1672" y="1000" type="line" name="hr00"/>
      <point x="1400" y="1000" type="line"/>
      <point x="1400" y="344" type="line"/>
      <point x="1348" y="288"/>
      <point x="1256" y="200"/>
      <point x="980" y="200" type="curve" smooth="yes"/>
      <point x="604" y="200"/>
      <point x="412" y="492"/>
      <point x="412" y="932" type="curve" smooth="yes"/>
      <point x="412" y="1064" type="line"/>
      <point x="128" y="1060" type="line"/>
      <point x="128" y="932" type="line" smooth="yes"/>
      <point x="128" y="308"/>
      <point x="484" y="-28"/>
      <point x="968" y="-28" type="curve" smooth="yes"/>
      <point x="1424" y="-28"/>
      <point x="1600" y="160"/>
      <point x="1672" y="272" type="curve"/>
    </contour>
    <contour>
      <point x="1672" y="1732" type="line"/>
      <point x="1600" y="1844"/>
      <point x="1424" y="2032"/>
      <point x="968" y="2032" type="curve" smooth="yes"/>
      <point x="480" y="2032"/>
      <point x="128" y="1676"/>
      <point x="128" y="1072" type="curve" smooth="yes"/>
      <point x="128" y="956" type="line"/>
      <point x="412" y="956" type="line"/>
      <point x="412" y="1072" type="line" smooth="yes"/>
      <point x="412" y="1536"/>
      <point x="632" y="1800"/>
      <point x="968" y="1800" type="curve" smooth="yes"/>
      <point x="1256" y="1800"/>
      <point x="1348" y="1716"/>
      <point x="1400" y="1656" type="curve"/>
      <point x="1400" y="976" type="line"/>
      <point x="1672" y="976" type="line"/>
    </contour>
    <contour>
      <point x="2144" y="2004" type="line"/>
      <point x="1932" y="2004" type="line"/>
      <point x="1548" y="1848" type="line"/>
      <point x="1548" y="1616" type="line"/>
      <point x="1868" y="1732" type="line"/>
      <point x="1868" y="-572" type="line"/>
      <point x="2144" y="-572" type="line"/>
    </contour>
  </outline>
</glyph>
<glyph name="Phook" format="1">
  <advance width="2016"/>
  <unicode hex="01A4"/>
  <outline>
    <contour>
      <point x="788" y="1772" type="line"/>
      <point x="788" y="2004" type="line"/>
      <point x="552" y="2004" type="line" smooth="yes"/>
      <point x="240" y="2004"/>
      <point x="72" y="1876"/>
      <point x="72" y="1612" type="curve" smooth="yes"/>
      <point x="72" y="1568"/>
      <point x="84" y="1496"/>
      <point x="96" y="1452" type="curve"/>
      <point x="316" y="1452" type="line"/>
      <point x="308" y="1480"/>
      <point x="304" y="1520"/>
      <point x="304" y="1540" type="curve" smooth="yes"/>
      <point x="304" y="1692"/>
      <point x="372" y="1772"/>
      <point x="552" y="1772" type="curve" smooth="yes"/>
    </contour>
    <component base="P" xOffset="316"/>
  </outline>
</glyph>
<glyph name="eshlooprev" format="1">
  <advance width="1504"/>
  <unicode hex="01AA"/>
  <outline>
    <contour>
      <point x="808" y="1560" type="line" name="hr00"/>
      <point x="808" y="-80" type="line" smooth="yes"/>
      <point x="808" y="-392"/>
      <point x="936" y="-560"/>
      <point x="1196" y="-560" type="curve" smooth="yes"/>
      <point x="1244" y="-560"/>
      <point x="1316" y="-552"/>
      <point x="1356" y="-536" type="curve"/>
      <point x="1356" y="-320" type="line"/>
      <point x="1328" y="-328"/>
      <point x="1292" y="-332"/>
      <point x="1268" y="-332" type="curve" smooth="yes"/>
      <point x="1148" y="-332"/>
      <point x="1084" y="-268"/>
      <point x="1084" y="-80" type="curve" smooth="yes"/>
      <point x="1084" y="1676" type="line"/>
    </contour>
    <contour>
      <point x="148" y="1676" type="curve" smooth="yes"/>
      <point x="148" y="1420"/>
      <point x="356" y="1208"/>
      <point x="616" y="1208" type="curve" smooth="yes"/>
      <point x="872" y="1208"/>
      <point x="1084" y="1420"/>
      <point x="1084" y="1676" type="curve" smooth="yes"/>
      <point x="1084" y="1936"/>
      <point x="872" y="2144"/>
      <point x="616" y="2144" type="curve" smooth="yes"/>
      <point x="356" y="2144"/>
      <point x="148" y="1936"/>
    </contour>
    <contour>
      <point x="616" y="1460" type="curve" smooth="yes"/>
      <point x="496" y="1460"/>
      <point x="404" y="1532"/>
      <point x="404" y="1680" type="curve" smooth="yes"/>
      <point x="404" y="1824"/>
      <point x="496" y="1900"/>
      <point x="616" y="1900" type="curve" smooth="yes"/>
      <point x="732" y="1900"/>
      <point x="824" y="1824"/>
      <point x="824" y="1680" type="curve" smooth="yes"/>
      <point x="824" y="1532"/>
      <point x="732" y="1460"/>
    </contour>
  </outline>
</glyph>
<glyph name="Thook" format="1">
  <advance width="1760"/>
  <unicode hex="01AC"/>
  <outline>
    <contour>
      <point x="1080" y="2004" type="line"/>
      <point x="796" y="2004" type="line"/>
      <point x="796" y="0" type="line"/>
      <point x="1080" y="0" type="line"/>
    </contour>
    <contour>
      <point x="1716" y="2004" type="line"/>
      <point x="580" y="2004" type="line"/>
      <point x="580" y="1772" type="line"/>
      <point x="1716" y="1772" type="line"/>
    </contour>
    <contour>
      <point x="760" y="1772" type="line"/>
      <point x="760" y="2004" type="line"/>
      <point x="524" y="2004" type="line" smooth="yes"/>
      <point x="216" y="2004"/>
      <point x="48" y="1876"/>
      <point x="48" y="1612" type="curve" smooth="yes"/>
      <point x="48" y="1568"/>
      <point x="56" y="1496"/>
      <point x="72" y="1452" type="curve"/>
      <point x="292" y="1452" type="line"/>
      <point x="280" y="1480"/>
      <point x="280" y="1520"/>
      <point x="280" y="1540" type="curve" smooth="yes"/>
      <point x="280" y="1692"/>
      <point x="348" y="1772"/>
      <point x="524" y="1772" type="curve" smooth="yes"/>
    </contour>
  </outline>
</glyph>
<glyph name="thook" format="1">
  <advance width="992"/>
  <unicode hex="01AD"/>
  <outline>
    <contour>
      <point x="628" y="1532" type="line"/>
      <point x="628" y="1736" type="line" smooth="yes"/>
      <point x="628" y="1896"/>
      <point x="708" y="1952"/>
      <point x="836" y="1952" type="curve" smooth="yes"/>
      <point x="856" y="1952"/>
      <point x="888" y="1948"/>
      <point x="912" y="1940" type="curve"/>
      <point x="912" y="2124" type="line"/>
      <point x="872" y="2136"/>
      <point x="816" y="2144"/>
      <point x="776" y="2144" type="curve" smooth="yes"/>
      <point x="548" y="2144"/>
      <point x="352" y="2000"/>
      <point x="352" y="1736" type="curve" smooth="yes"/>
      <point x="352" y="1532" type="line"/>
    </contour>
    <contour>
      <point x="900" y="1488" type="line"/>
      <point x="84" y="1488" type="line"/>
      <point x="84" y="1284" type="line"/>
      <point x="900" y="1284" type="line"/>
    </contour>
    <contour>
      <point x="352" y="1572" type="line"/>
      <point x="352" y="412" type="line"/>
      <point x="352" y="96"/>
      <point x="512" y="-28"/>
      <point x="700" y="-28" type="curve" smooth="yes"/>
      <point x="796" y="-28"/>
      <point x="864" y="-12"/>
      <point x="904" y="0" type="curve"/>
      <point x="904" y="220" type="line"/>
      <point x="880" y="216"/>
      <point x="828" y="204"/>
      <point x="784" y="204" type="curve" smooth="yes"/>
      <point x="704" y="204"/>
      <point x="628" y="248"/>
      <point x="628" y="412" type="curve"/>
      <point x="628" y="1572" type="line"/>
    </contour>
  </outline>
</glyph>
<glyph name="Trthook" format="1">
  <advance width="1760"/>
  <unicode hex="01AE"/>
  <outline>
    <contour>
      <point x="1656" y="2004" type="line"/>
      <point x="104" y="2004" type="line"/>
      <point x="104" y="1772" type="line"/>
      <point x="1656" y="1772" type="line"/>
    </contour>
    <contour>
      <point x="1344" y="-580" type="curve"/>
      <point x="1324" y="-352" type="line"/>
      <point x="1292" y="-360"/>
      <point x="1224" y="-372"/>
      <point x="1188" y="-372" type="curve" smooth="yes"/>
      <point x="1080" y="-372"/>
      <point x="1020" y="-284"/>
      <point x="1020" y="-124" type="curve" smooth="yes"/>
      <point x="1020" y="2004" type="line"/>
      <point x="740" y="2004" type="line"/>
      <point x="740" y="-124" type="line" smooth="yes"/>
      <point x="740" y="-432"/>
      <point x="908" y="-600"/>
      <point x="1188" y="-600" type="curve" smooth="yes"/>
      <point x="1244" y="-600"/>
      <point x="1288" y="-596"/>
    </contour>
  </outline>
</glyph>
<glyph name="Uhorn" format="1">
  <advance width="2388"/>
  <unicode hex="01AF"/>
  <outline>
    <contour>
      <point x="960" y="2216" type="move" name="top"/>
    </contour>
    <contour>
      <point x="960" y="-16" type="move" name="bottom"/>
    </contour>
    <contour>
      <point x="1968" y="2216" type="move" name="top0315"/>
    </contour>
    <contour>
      <point x="2060" y="2172" type="line"/>
      <point x="2060" y="1908"/>
      <point x="1984" y="1768"/>
      <point x="1704" y="1768" type="curve"/>
      <point x="1704" y="1572" type="line"/>
      <point x="2128" y="1572"/>
      <point x="2292" y="1780"/>
      <point x="2292" y="2172" type="curve"/>
    </contour>
    <component base="U"/>
  </outline>
</glyph>
<glyph name="Upsilon2" format="1">
  <advance width="1760"/>
  <unicode hex="01B1"/>
  <outline>
    <contour>
      <point x="400" y="1004" type="line"/>
      <point x="400" y="1464"/>
      <point x="548" y="1724"/>
      <point x="796" y="1768" type="curve"/>
      <point x="796" y="1972" type="line"/>
      <point x="392" y="1924"/>
      <point x="108" y="1456"/>
      <point x="108" y="1004" type="curve" smooth="yes"/>
      <point x="108" y="848" type="line" smooth="yes"/>
      <point x="108" y="328"/>
      <point x="424" y="-28"/>
      <point x="884" y="-28" type="curve" smooth="yes"/>
      <point x="1340" y="-28"/>
      <point x="1652" y="328"/>
      <point x="1652" y="848" type="curve" smooth="yes"/>
      <point x="1652" y="1004" type="line" smooth="yes"/>
      <point x="1652" y="1460"/>
      <point x="1368" y="1928"/>
      <point x="956" y="1972" type="curve"/>
      <point x="956" y="1768" type="line"/>
      <point x="1208" y="1724"/>
      <point x="1364" y="1468"/>
      <point x="1364" y="1004" type="curve" smooth="yes"/>
      <point x="1364" y="844" type="line" smooth="yes"/>
      <point x="1364" y="420"/>
      <point x="1176" y="200"/>
      <point x="884" y="200" type="curve" smooth="yes"/>
      <point x="584" y="200"/>
      <point x="400" y="420"/>
      <point x="400" y="844" type="curve" smooth="yes"/>
    </contour>
    <contour>
      <point x="796" y="2004" type="line"/>
      <point x="120" y="2004" type="line"/>
      <point x="120" y="1772" type="line"/>
      <point x="796" y="1772" type="line"/>
    </contour>
    <contour>
      <point x="1644" y="2004" type="line"/>
      <point x="956" y="2004" type="line"/>
      <point x="956" y="1772" type="line"/>
      <point x="1644" y="1772" type="line"/>
    </contour>
  </outline>
</glyph>
<glyph name="Yhook" format="1">
  <advance width="2016"/>
  <unicode hex="01B3"/>
  <outline>
    <contour>
      <point x="792" y="788" type="line"/>
      <point x="844" y="692" type="line"/>
      <point x="1016" y="692" type="line"/>
      <point x="1408" y="1416" type="line" smooth="yes"/>
      <point x="1544" y="1672"/>
      <point x="1576" y="1776"/>
      <point x="1696" y="1776" type="curve" smooth="yes"/>
      <point x="1764" y="1776"/>
      <point x="1808" y="1756"/>
      <point x="1844" y="1732" type="curve"/>
      <point x="1940" y="1924" type="line"/>
      <point x="1864" y="1988"/>
      <point x="1764" y="2032"/>
      <point x="1648" y="2032" type="curve" smooth="yes"/>
      <point x="1424" y="2032"/>
      <point x="1328" y="1856"/>
      <point x="1164" y="1532" type="curve" smooth="yes"/>
    </contour>
    <contour>
      <point x="400" y="2004" type="line"/>
      <point x="76" y="2004" type="line"/>
      <point x="788" y="692" type="line"/>
      <point x="952" y="692" type="line"/>
      <point x="1016" y="784" type="line"/>
    </contour>
    <contour>
      <point x="1044" y="944" type="line"/>
      <point x="760" y="944" type="line"/>
      <point x="760" y="0" type="line"/>
      <point x="1044" y="0" type="line"/>
    </contour>
  </outline>
</glyph>
<glyph name="Ezh" format="1">
  <advance width="1760"/>
  <unicode hex="01B7"/>
  <outline>
    <contour>
      <point x="104" y="92" type="line"/>
      <point x="148" y="-280"/>
      <point x="376" y="-572"/>
      <point x="864" y="-572" type="curve" smooth="yes"/>
      <point x="1336" y="-572"/>
      <point x="1656" y="-340"/>
      <point x="1656" y="220" type="curve" smooth="yes"/>
      <point x="1656" y="784"/>
      <point x="1340" y="1016"/>
      <point x="840" y="1016" type="curve" smooth="yes"/>
      <point x="560" y="1016" type="line"/>
      <point x="560" y="796" type="line"/>
      <point x="840" y="796" type="line" smooth="yes"/>
      <point x="1196" y="796"/>
      <point x="1372" y="644"/>
      <point x="1372" y="220" type="curve" smooth="yes"/>
      <point x="1372" y="-164"/>
      <point x="1224" y="-344"/>
      <point x="864" y="-344" type="curve" smooth="yes"/>
      <point x="528" y="-344"/>
      <point x="440" y="-184"/>
      <point x="392" y="92" type="curve"/>
    </contour>
    <contour>
      <point x="1552" y="1800" type="line"/>
      <point x="1552" y="2004" type="line"/>
      <point x="1424" y="2004" type="line"/>
      <point x="532" y="1004" type="line"/>
      <point x="532" y="796" type="line"/>
      <point x="656" y="796" type="line"/>
    </contour>
    <contour>
      <point x="1432" y="2004" type="line"/>
      <point x="156" y="2004" type="line"/>
      <point x="156" y="1772" type="line"/>
      <point x="1432" y="1772" type="line"/>
    </contour>
  </outline>
</glyph>
<glyph name="Ezhreversed" format="1">
  <advance width="2016"/>
  <unicode hex="01B8"/>
  <outline>
    <contour>
      <point x="1500" y="92" type="line"/>
      <point x="1452" y="-184"/>
      <point x="1364" y="-344"/>
      <point x="1024" y="-344" type="curve" smooth="yes"/>
      <point x="668" y="-344"/>
      <point x="520" y="-164"/>
      <point x="520" y="220" type="curve" smooth="yes"/>
      <point x="520" y="644"/>
      <point x="692" y="796"/>
      <point x="1052" y="796" type="curve" smooth="yes"/>
      <point x="1332" y="796" type="line"/>
      <point x="1332" y="1016" type="line"/>
      <point x="1052" y="1016" type="line" smooth="yes"/>
      <point x="548" y="1016"/>
      <point x="232" y="784"/>
      <point x="232" y="220" type="curve" smooth="yes"/>
      <point x="232" y="-340"/>
      <point x="552" y="-572"/>
      <point x="1024" y="-572" type="curve" smooth="yes"/>
      <point x="1512" y="-572"/>
      <point x="1740" y="-280"/>
      <point x="1784" y="92" type="curve"/>
    </contour>
    <contour>
      <point x="1232" y="796" type="line"/>
      <point x="1356" y="796" type="line"/>
      <point x="1356" y="1004" type="line"/>
      <point x="468" y="2004" type="line"/>
      <point x="340" y="2004" type="line"/>
      <point x="340" y="1800" type="line"/>
    </contour>
    <contour>
      <point x="460" y="1772" type="line"/>
      <point x="1732" y="1772" type="line"/>
      <point x="1732" y="2004" type="line"/>
      <point x="460" y="2004" type="line"/>
    </contour>
  </outline>
</glyph>
<glyph name="ezhreversed" format="1">
  <advance width="1760"/>
  <unicode hex="01B9"/>
  <outline>
    <contour>
      <point x="288" y="1488" type="line"/>
      <point x="288" y="1320" type="line"/>
      <point x="952" y="488" type="line"/>
      <point x="1136" y="488" type="line"/>
      <point x="1136" y="656" type="line"/>
      <point x="640" y="1268" type="line"/>
      <point x="1484" y="1268" type="line"/>
      <point x="1484" y="1488" type="line"/>
    </contour>
    <contour>
      <point x="924" y="652" type="line"/>
      <point x="476" y="652"/>
      <point x="216" y="436"/>
      <point x="216" y="44" type="curve" smooth="yes"/>
      <point x="216" y="-328"/>
      <point x="500" y="-544"/>
      <point x="896" y="-544" type="curve" smooth="yes"/>
      <point x="1212" y="-544"/>
      <point x="1544" y="-368"/>
      <point x="1544" y="40" type="curve"/>
      <point x="1272" y="40" type="line"/>
      <point x="1272" y="-156"/>
      <point x="1120" y="-324"/>
      <point x="896" y="-324" type="curve" smooth="yes"/>
      <point x="640" y="-324"/>
      <point x="492" y="-168"/>
      <point x="492" y="40" type="curve" smooth="yes"/>
      <point x="492" y="324"/>
      <point x="644" y="440"/>
      <point x="932" y="440" type="curve" smooth="yes"/>
      <point x="1136" y="440" type="line"/>
      <point x="1136" y="652" type="line"/>
    </contour>
  </outline>
</glyph>
<glyph name="ezhtail" format="1">
  <advance width="1504"/>
  <unicode hex="01BA"/>
  <outline>
    <contour>
      <point x="192" y="1488" type="line" name="hr00"/>
      <point x="192" y="1268" type="line"/>
      <point x="996" y="1268" type="line"/>
      <point x="464" y="852" type="line"/>
      <point x="464" y="680" type="line"/>
      <point x="680" y="680" type="line"/>
      <point x="1388" y="1320" type="line"/>
      <point x="1388" y="1488" type="line"/>
    </contour>
    <contour>
      <point x="392" y="-176" type="curve" smooth="yes"/>
      <point x="392" y="-68"/>
      <point x="452" y="8"/>
      <point x="716" y="64" type="curve" smooth="yes"/>
      <point x="1048" y="136"/>
      <point x="1264" y="240"/>
      <point x="1264" y="504" type="curve" smooth="yes"/>
      <point x="1264" y="740"/>
      <point x="1044" y="900"/>
      <point x="704" y="900" type="curve" smooth="yes"/>
      <point x="616" y="900" type="line"/>
      <point x="616" y="680" type="line"/>
      <point x="704" y="680" type="line" smooth="yes"/>
      <point x="908" y="680"/>
      <point x="988" y="616"/>
      <point x="988" y="512" type="curve" smooth="yes"/>
      <point x="988" y="388"/>
      <point x="920" y="340"/>
      <point x="676" y="288" type="curve" smooth="yes"/>
      <point x="312" y="212"/>
      <point x="120" y="84"/>
      <point x="120" y="-156" type="curve" smooth="yes"/>
      <point x="120" y="-420"/>
      <point x="348" y="-600"/>
      <point x="700" y="-600" type="curve" smooth="yes"/>
      <point x="1096" y="-600"/>
      <point x="1312" y="-356"/>
      <point x="1312" y="-108" type="curve"/>
      <point x="1040" y="-108" type="line"/>
      <point x="1028" y="-316"/>
      <point x="852" y="-380"/>
      <point x="700" y="-380" type="curve" smooth="yes"/>
      <point x="500" y="-380"/>
      <point x="392" y="-296"/>
    </contour>
  </outline>
</glyph>
<glyph name="twostroke" format="1">
  <advance width="1760"/>
  <unicode hex="01BB"/>
  <outline>
    <contour>
      <point x="1452" y="1108" type="line" name="hr00"/>
      <point x="364" y="1108" type="line"/>
      <point x="364" y="888" type="line"/>
      <point x="1452" y="888" type="line"/>
    </contour>
    <component base="two" xOffset="-32"/>
  </outline>
</glyph>
<glyph name="Tonefive" format="1">
  <advance width="1760"/>
  <unicode hex="01BC"/>
  <outline>
    <contour>
      <point x="596" y="2004" type="line" name="hr00"/>
      <point x="152" y="2004" type="line"/>
      <point x="152" y="1752" type="line"/>
      <point x="596" y="1752" type="line"/>
    </contour>
    <component base="five" xOffset="64"/>
  </outline>
</glyph>
<glyph name="tonefive" format="1">
  <advance width="1504"/>
  <unicode hex="01BD"/>
  <outline>
    <contour>
      <point x="516" y="648" type="line" name="hr00"/>
      <point x="568" y="724"/>
      <point x="648" y="792"/>
      <point x="804" y="792" type="curve" smooth="yes"/>
      <point x="1008" y="792"/>
      <point x="1112" y="672"/>
      <point x="1112" y="496" type="curve" smooth="yes"/>
      <point x="1112" y="324"/>
      <point x="1016" y="200"/>
      <point x="796" y="200" type="curve" smooth="yes"/>
      <point x="616" y="200"/>
      <point x="488" y="296"/>
      <point x="488" y="444" type="curve"/>
      <point x="224" y="420" type="line"/>
      <point x="224" y="120"/>
      <point x="540" y="-24"/>
      <point x="796" y="-24" type="curve" smooth="yes"/>
      <point x="1216" y="-24"/>
      <point x="1384" y="204"/>
      <point x="1384" y="496" type="curve" smooth="yes"/>
      <point x="1384" y="828"/>
      <point x="1188" y="1020"/>
      <point x="856" y="1012" type="curve"/>
      <point x="752" y="1008"/>
      <point x="628" y="968"/>
      <point x="568" y="928" type="curve"/>
      <point x="608" y="1252" type="line"/>
      <point x="1308" y="1252" type="line"/>
      <point x="1308" y="1488" type="line"/>
      <point x="376" y="1488" type="line"/>
      <point x="280" y="668" type="line"/>
    </contour>
    <contour>
      <point x="536" y="1488" type="line"/>
      <point x="120" y="1488" type="line"/>
      <point x="120" y="1252" type="line"/>
      <point x="536" y="1252" type="line"/>
    </contour>
  </outline>
</glyph>
<glyph name="glottalstopbarinv" format="1">
  <advance width="1504"/>
  <unicode hex="01BE"/>
  <outline>
    <contour>
      <point x="1076" y="396" type="curve" smooth="yes"/>
      <point x="1076" y="280"/>
      <point x="968" y="192"/>
      <point x="772" y="192" type="curve" smooth="yes"/>
      <point x="616" y="192"/>
      <point x="440" y="260"/>
      <point x="432" y="468" type="curve"/>
      <point x="156" y="468" type="line"/>
      <point x="156" y="216"/>
      <point x="372" y="-28"/>
      <point x="772" y="-28" type="curve" smooth="yes"/>
      <point x="1120" y="-28"/>
      <point x="1352" y="156"/>
      <point x="1352" y="420" type="curve" smooth="yes"/>
      <point x="1352" y="832"/>
      <point x="852" y="744"/>
      <point x="852" y="1084" type="curve" smooth="yes"/>
      <point x="852" y="1844" type="line"/>
      <point x="576" y="1844" type="line"/>
      <point x="576" y="1076" type="line" smooth="yes"/>
      <point x="576" y="624"/>
      <point x="1076" y="668"/>
    </contour>
    <contour>
      <point x="1124" y="1488" type="line"/>
      <point x="308" y="1488" type="line"/>
      <point x="308" y="1284" type="line"/>
      <point x="1124" y="1284" type="line"/>
    </contour>
  </outline>
</glyph>
<glyph name="wynn" format="1">
  <advance width="1760"/>
  <unicode hex="01BF"/>
  <outline>
    <contour>
      <point x="520" y="1204" type="line"/>
      <point x="496" y="1488" type="line"/>
      <point x="244" y="1488" type="line"/>
      <point x="244" y="-572" type="line"/>
      <point x="520" y="-572" type="line"/>
    </contour>
    <contour>
      <point x="448" y="900" type="line"/>
      <point x="492" y="1104"/>
      <point x="608" y="1288"/>
      <point x="848" y="1288" type="curve" smooth="yes"/>
      <point x="1120" y="1288"/>
      <point x="1240" y="1044"/>
      <point x="1240" y="756" type="curve" smooth="yes"/>
      <point x="1240" y="728" type="line" smooth="yes"/>
      <point x="1240" y="284"/>
      <point x="896" y="84"/>
      <point x="432" y="-28" type="curve"/>
      <point x="432" y="-248" type="line"/>
      <point x="1100" y="-60"/>
      <point x="1516" y="156"/>
      <point x="1516" y="728" type="curve" smooth="yes"/>
      <point x="1516" y="756" type="line" smooth="yes"/>
      <point x="1516" y="1208"/>
      <point x="1312" y="1516"/>
      <point x="932" y="1516" type="curve" smooth="yes"/>
      <point x="552" y="1516"/>
      <point x="360" y="1240"/>
      <point x="316" y="788" type="curve"/>
    </contour>
  </outline>
</glyph>
<glyph name="pipe" format="1">
  <advance width="736"/>
  <unicode hex="01C0"/>
  <outline>
    <contour>
      <point x="480" y="2004" type="line"/>
      <point x="260" y="2004" type="line"/>
      <point x="260" y="0" type="line"/>
      <point x="480" y="0" type="line"/>
    </contour>
  </outline>
</glyph>
<glyph name="Dzcaron_" format="1">
  <advance width="3296"/>
  <unicode hex="01C5"/>
  <outline>
    <contour>
      <point x="3012" y="220" type="line"/>
      <point x="1936" y="220" type="line"/>
      <point x="1936" y="0" type="line"/>
      <point x="3012" y="0" type="line"/>
    </contour>
    <contour>
      <point x="2976" y="1300" type="line"/>
      <point x="2976" y="1488" type="line"/>
      <point x="2800" y="1488" type="line"/>
      <point x="1828" y="200" type="line"/>
      <point x="1828" y="0" type="line"/>
      <point x="1996" y="0" type="line"/>
    </contour>
    <contour>
      <point x="2856" y="1488" type="line"/>
      <point x="1836" y="1488" type="line"/>
      <point x="1836" y="1268" type="line"/>
      <point x="2856" y="1268" type="line"/>
    </contour>
    <contour>
      <point x="2216" y="2088" type="line"/>
      <point x="1984" y="2088" type="line"/>
      <point x="1984" y="2060" type="line"/>
      <point x="2332" y="1724" type="line"/>
      <point x="2496" y="1724" type="line"/>
      <point x="2852" y="2064" type="line"/>
      <point x="2852" y="2088" type="line"/>
      <point x="2616" y="2088" type="line"/>
      <point x="2416" y="1888" type="line"/>
    </contour>
    <component base="D" xOffset="32"/>
  </outline>
</glyph>
<glyph name="gbar" format="1">
  <advance width="1760"/>
  <unicode hex="01E5"/>
  <outline>
    <contour>
      <point x="860" y="1776" type="move" name="top"/>
    </contour>
    <contour>
      <point x="860" y="-672" type="move" name="bottom"/>
    </contour>
    <contour>
      <point x="864" y="-156" type="move" name="parenthesses.w3"/>
    </contour>
    <contour>
      <point x="860" y="-672" type="move" name="markbottom"/>
    </contour>
    <contour>
      <point x="1664" y="1776" type="move" name="top0315"/>
    </contour>
    <contour>
      <point x="1640" y="-68" type="line" name="hr00"/>
      <point x="120" y="-68" type="line"/>
      <point x="120" y="-236" type="line"/>
      <point x="1640" y="-236" type="line"/>
    </contour>
    <contour>
      <point x="1248" y="1488" type="line"/>
      <point x="1220" y="1160" type="line"/>
      <point x="1220" y="-76" type="line" smooth="yes"/>
      <point x="1220" y="-332"/>
      <point x="1068" y="-464"/>
      <point x="836" y="-464" type="curve" smooth="yes"/>
      <point x="708" y="-464"/>
      <point x="568" y="-416"/>
      <point x="440" y="-264" type="curve"/>
      <point x="300" y="-424" type="line"/>
      <point x="436" y="-624"/>
      <point x="712" y="-684"/>
      <point x="860" y="-684" type="curve" smooth="yes"/>
      <point x="1232" y="-684"/>
      <point x="1496" y="-460"/>
      <point x="1496" y="-64" type="curve" smooth="yes"/>
      <point x="1496" y="1488" type="line"/>
    </contour>
    <contour>
      <point x="228" y="728" type="line"/>
      <point x="228" y="296"/>
      <point x="456" y="-28"/>
      <point x="816" y="-28" type="curve" smooth="yes"/>
      <point x="1196" y="-28"/>
      <point x="1380" y="248"/>
      <point x="1420" y="700" type="curve"/>
      <point x="1420" y="788" type="line"/>
      <point x="1380" y="1240"/>
      <point x="1196" y="1516"/>
      <point x="816" y="1516" type="curve" smooth="yes"/>
      <point x="452" y="1516"/>
      <point x="228" y="1208"/>
      <point x="228" y="756" type="curve" smooth="yes"/>
    </contour>
    <contour>
      <point x="504" y="756" type="line"/>
      <point x="504" y="1044"/>
      <point x="616" y="1288"/>
      <point x="888" y="1288" type="curve" smooth="yes"/>
      <point x="1132" y="1288"/>
      <point x="1244" y="1104"/>
      <point x="1288" y="900" type="curve"/>
      <point x="1288" y="588" type="line"/>
      <point x="1232" y="380"/>
      <point x="1132" y="200"/>
      <point x="884" y="200" type="curve" smooth="yes"/>
      <point x="616" y="200"/>
      <point x="504" y="440"/>
      <point x="504" y="728" type="curve" smooth="yes"/>
    </contour>
  </outline>
</glyph>
<glyph name="uni0221" format="1">
  <advance width="2016"/>
  <unicode hex="0221"/>
  <outline>
    <contour>
      <point x="1016" y="312" type="line"/>
      <point x="1016" y="-168" type="line" smooth="yes"/>
      <point x="1016" y="-388"/>
      <point x="1124" y="-600"/>
      <point x="1448" y="-600" type="curve" smooth="yes"/>
      <point x="1696" y="-600"/>
      <point x="1868" y="-448"/>
      <point x="1868" y="-236" type="curve" smooth="yes"/>
      <point x="1868" y="0"/>
      <point x="1696" y="132"/>
      <point x="1472" y="132" type="curve" smooth="yes"/>
      <point x="1312" y="132"/>
      <point x="1168" y="60"/>
      <point x="1028" y="-52" type="curve"/>
      <point x="700" y="-380" type="line"/>
      <point x="864" y="-544" type="line"/>
      <point x="1068" y="-324" type="line"/>
      <point x="1208" y="-180"/>
      <point x="1324" y="-88"/>
      <point x="1440" y="-88" type="curve" smooth="yes"/>
      <point x="1532" y="-88"/>
      <point x="1592" y="-156"/>
      <point x="1592" y="-236" type="curve" smooth="yes"/>
      <point x="1592" y="-320"/>
      <point x="1536" y="-380"/>
      <point x="1452" y="-380" type="curve" smooth="yes"/>
      <point x="1344" y="-380"/>
      <point x="1292" y="-316"/>
      <point x="1292" y="-228" type="curve" smooth="yes"/>
      <point x="1292" y="-144"/>
      <point x="1292" y="312"/>
      <point x="1292" y="312" type="curve"/>
    </contour>
    <component base="d" xOffset="-108"/>
  </outline>
</glyph>
<glyph name="uni0222" format="1">
  <advance width="1760"/>
  <unicode hex="0222"/>
  <outline>
    <contour>
      <point x="864" y="1212" type="line" name="hr00"/>
      <point x="436" y="1212"/>
      <point x="104" y="1004"/>
      <point x="104" y="596" type="curve" smooth="yes"/>
      <point x="104" y="176"/>
      <point x="436" y="-28"/>
      <point x="864" y="-28" type="curve" smooth="yes"/>
      <point x="896" y="-28" type="line" smooth="yes"/>
      <point x="1324" y="-28"/>
      <point x="1656" y="176"/>
      <point x="1656" y="600" type="curve" smooth="yes"/>
      <point x="1656" y="1004"/>
      <point x="1324" y="1212"/>
      <point x="896" y="1212" type="curve" smooth="yes"/>
    </contour>
    <contour>
      <point x="896" y="996" type="line"/>
      <point x="1184" y="996"/>
      <point x="1372" y="868"/>
      <point x="1372" y="600" type="curve" smooth="yes"/>
      <point x="1372" y="324"/>
      <point x="1184" y="208"/>
      <point x="896" y="208" type="curve" smooth="yes"/>
      <point x="864" y="208" type="line" smooth="yes"/>
      <point x="576" y="208"/>
      <point x="388" y="324"/>
      <point x="388" y="596" type="curve" smooth="yes"/>
      <point x="388" y="868"/>
      <point x="576" y="996"/>
      <point x="864" y="996" type="curve" smooth="yes"/>
    </contour>
    <contour>
      <point x="852" y="1232" type="line"/>
      <point x="604" y="1232"/>
      <point x="388" y="1292"/>
      <point x="388" y="1532" type="curve" smooth="yes"/>
      <point x="388" y="1704"/>
      <point x="476" y="1772"/>
      <point x="648" y="1816" type="curve"/>
      <point x="648" y="2032" type="line"/>
      <point x="348" y="2016"/>
      <point x="104" y="1864"/>
      <point x="104" y="1532" type="curve" smooth="yes"/>
      <point x="104" y="1148"/>
      <point x="456" y="1016"/>
      <point x="852" y="1016" type="curve" smooth="yes"/>
      <point x="908" y="1016" type="line" smooth="yes"/>
      <point x="1304" y="1016"/>
      <point x="1656" y="1148"/>
      <point x="1656" y="1532" type="curve" smooth="yes"/>
      <point x="1656" y="1864"/>
      <point x="1416" y="2016"/>
      <point x="1112" y="2032" type="curve"/>
      <point x="1112" y="1816" type="line"/>
      <point x="1284" y="1772"/>
      <point x="1372" y="1704"/>
      <point x="1372" y="1532" type="curve" smooth="yes"/>
      <point x="1372" y="1292"/>
      <point x="1160" y="1232"/>
      <point x="908" y="1232" type="curve" smooth="yes"/>
    </contour>
  </outline>
</glyph>
<glyph name="uni0224" format="1">
  <advance width="1760"/>
  <unicode hex="0224"/>
  <outline>
    <contour>
      <point x="1516" y="1796" type="line"/>
      <point x="1516" y="2004" type="line"/>
      <point x="1340" y="2004" type="line"/>
      <point x="100" y="212" type="line"/>
      <point x="100" y="0" type="line"/>
      <point x="276" y="0" type="line"/>
    </contour>
    <contour>
      <point x="1396" y="2004" type="line"/>
      <point x="112" y="2004" type="line"/>
      <point x="112" y="1772" type="line"/>
      <point x="1396" y="1772" type="line"/>
    </contour>
    <contour>
      <point x="1640" y="-328" type="line"/>
      <point x="1652" y="-288"/>
      <point x="1660" y="-216"/>
      <point x="1660" y="-168" type="curve" smooth="yes"/>
      <point x="1660" y="96"/>
      <point x="1492" y="228"/>
      <point x="1184" y="228" type="curve" smooth="yes"/>
      <point x="208" y="228" type="line"/>
      <point x="208" y="0" type="line"/>
      <point x="1184" y="0" type="line" smooth="yes"/>
      <point x="1372" y="0"/>
      <point x="1424" y="-96"/>
      <point x="1424" y="-240" type="curve" smooth="yes"/>
      <point x="1424" y="-264"/>
      <point x="1420" y="-300"/>
      <point x="1412" y="-328" type="curve"/>
    </contour>
  </outline>
</glyph>
<glyph name="uni0225" format="1">
  <advance width="1504"/>
  <unicode hex="0225"/>
  <outline>
    <contour>
      <point x="888" y="220" type="line"/>
      <point x="224" y="220" type="line"/>
      <point x="224" y="0" type="line"/>
      <point x="888" y="0" type="line"/>
    </contour>
    <contour>
      <point x="1264" y="1300" type="line"/>
      <point x="1264" y="1488" type="line"/>
      <point x="1088" y="1488" type="line"/>
      <point x="116" y="200" type="line"/>
      <point x="116" y="0" type="line"/>
      <point x="284" y="0" type="line"/>
    </contour>
    <contour>
      <point x="1144" y="1488" type="line"/>
      <point x="124" y="1488" type="line"/>
      <point x="124" y="1268" type="line"/>
      <point x="1144" y="1268" type="line"/>
    </contour>
    <contour>
      <point x="676" y="0" type="line"/>
      <point x="912" y="0" type="line" smooth="yes"/>
      <point x="1096" y="0"/>
      <point x="1160" y="-68"/>
      <point x="1160" y="-200" type="curve" smooth="yes"/>
      <point x="1160" y="-224"/>
      <point x="1156" y="-260"/>
      <point x="1148" y="-288" type="curve"/>
      <point x="1364" y="-288" type="line"/>
      <point x="1380" y="-244"/>
      <point x="1388" y="-176"/>
      <point x="1388" y="-128" type="curve" smooth="yes"/>
      <point x="1388" y="120"/>
      <point x="1220" y="220"/>
      <point x="912" y="220" type="curve" smooth="yes"/>
      <point x="676" y="220" type="line"/>
    </contour>
  </outline>
</glyph>
<glyph name="uni0235" format="1">
  <advance width="2016"/>
  <unicode hex="0235"/>
  <outline>
    <contour>
      <point x="1036" y="312" type="line"/>
      <point x="1036" y="-168" type="line"/>
      <point x="1036" y="-388"/>
      <point x="1148" y="-600"/>
      <point x="1472" y="-600" type="curve" smooth="yes"/>
      <point x="1720" y="-600"/>
      <point x="1888" y="-448"/>
      <point x="1888" y="-236" type="curve" smooth="yes"/>
      <point x="1888" y="0"/>
      <point x="1716" y="132"/>
      <point x="1492" y="132" type="curve" smooth="yes"/>
      <point x="1332" y="132"/>
      <point x="1192" y="60"/>
      <point x="1048" y="-52" type="curve"/>
      <point x="724" y="-380" type="line"/>
      <point x="884" y="-544" type="line"/>
      <point x="1088" y="-324" type="line"/>
      <point x="1228" y="-180"/>
      <point x="1344" y="-88"/>
      <point x="1460" y="-88" type="curve" smooth="yes"/>
      <point x="1556" y="-88"/>
      <point x="1612" y="-156"/>
      <point x="1612" y="-236" type="curve" smooth="yes"/>
      <point x="1612" y="-320"/>
      <point x="1556" y="-380"/>
      <point x="1472" y="-380" type="curve" smooth="yes"/>
      <point x="1364" y="-380"/>
      <point x="1312" y="-316"/>
      <point x="1312" y="-228" type="curve" smooth="yes"/>
      <point x="1312" y="-144"/>
      <point x="1312" y="312"/>
      <point x="1312" y="312" type="curve"/>
    </contour>
    <contour>
      <point x="404" y="1172" type="line"/>
      <point x="388" y="1488" type="line"/>
      <point x="128" y="1488" type="line"/>
      <point x="128" y="0" type="line"/>
      <point x="404" y="0" type="line"/>
    </contour>
    <contour>
      <point x="340" y="796" type="line"/>
      <point x="340" y="1072"/>
      <point x="512" y="1288"/>
      <point x="752" y="1288" type="curve" smooth="yes"/>
      <point x="940" y="1288"/>
      <point x="1036" y="1200"/>
      <point x="1036" y="980" type="curve" smooth="yes"/>
      <point x="1036" y="0" type="line"/>
      <point x="1312" y="0" type="line"/>
      <point x="1312" y="976" type="line" smooth="yes"/>
      <point x="1312" y="1364"/>
      <point x="1124" y="1516"/>
      <point x="832" y="1516" type="curve" smooth="yes"/>
      <point x="468" y="1516"/>
      <point x="228" y="1212"/>
      <point x="228" y="792" type="curve"/>
    </contour>
  </outline>
</glyph>
<glyph name="uni0236" format="1">
  <advance width="1248"/>
  <unicode hex="0236"/>
  <outline>
    <contour>
      <point x="356" y="1844" type="line"/>
      <point x="356" y="408" type="line"/>
      <point x="356" y="188"/>
      <point x="464" y="-28"/>
      <point x="792" y="-28" type="curve" smooth="yes"/>
      <point x="1036" y="-28"/>
      <point x="1208" y="124"/>
      <point x="1208" y="340" type="curve" smooth="yes"/>
      <point x="1208" y="576"/>
      <point x="1036" y="704"/>
      <point x="812" y="704" type="curve" smooth="yes"/>
      <point x="660" y="704"/>
      <point x="496" y="628"/>
      <point x="368" y="520" type="curve"/>
      <point x="44" y="196" type="line"/>
      <point x="204" y="32" type="line"/>
      <point x="408" y="248" type="line"/>
      <point x="552" y="396"/>
      <point x="664" y="484"/>
      <point x="780" y="484" type="curve" smooth="yes"/>
      <point x="872" y="484"/>
      <point x="932" y="420"/>
      <point x="932" y="340" type="curve" smooth="yes"/>
      <point x="932" y="256"/>
      <point x="876" y="192"/>
      <point x="792" y="192" type="curve" smooth="yes"/>
      <point x="684" y="192"/>
      <point x="632" y="260"/>
      <point x="632" y="344" type="curve" smooth="yes"/>
      <point x="632" y="428"/>
      <point x="632" y="1844"/>
      <point x="632" y="1844" type="curve"/>
    </contour>
    <contour>
      <point x="900" y="1488" type="line"/>
      <point x="84" y="1488" type="line"/>
      <point x="84" y="1284" type="line"/>
      <point x="900" y="1284" type="line"/>
    </contour>
  </outline>
</glyph>
<glyph name="dotlessj" format="1">
  <advance width="736"/>
  <unicode hex="0237"/>
  <outline>
    <contour>
      <point x="532" y="1716" type="move" name="top"/>
    </contour>
    <contour>
      <point x="668" y="0" type="move" name="_right"/>
    </contour>
    <contour>
      <point x="884" y="1716" type="move" name="top0315"/>
    </contour>
    <contour>
      <point x="396" y="1488" type="line"/>
      <point x="396" y="-124" type="line"/>
      <point x="396" y="-284"/>
      <point x="332" y="-380"/>
      <point x="220" y="-380" type="curve" smooth="yes"/>
      <point x="200" y="-380"/>
      <point x="116" y="-376"/>
      <point x="88" y="-364" type="curve"/>
      <point x="68" y="-580" type="line"/>
      <point x="120" y="-596"/>
      <point x="164" y="-600"/>
      <point x="220" y="-600" type="curve" smooth="yes"/>
      <point x="500" y="-600"/>
      <point x="668" y="-432"/>
      <point x="668" y="-124" type="curve"/>
      <point x="668" y="1488" type="line"/>
    </contour>
  </outline>
</glyph>
<glyph name="uni023B" format="1">
  <advance width="2016"/>
  <unicode hex="023B"/>
  <outline>
    <contour>
      <point x="1484" y="2144" type="line"/>
      <point x="1292" y="2144" type="line"/>
      <point x="400" y="-172" type="line"/>
      <point x="592" y="-172" type="line"/>
    </contour>
    <component base="C" xOffset="-36"/>
  </outline>
</glyph>
<glyph name="uni023E" format="1">
  <advance width="1760"/>
  <unicode hex="023E"/>
  <outline>
    <contour>
      <point x="1568" y="2144" type="line"/>
      <point x="1368" y="2144" type="line"/>
      <point x="156" y="-172" type="line"/>
      <point x="360" y="-172" type="line"/>
    </contour>
    <component base="T" xOffset="-16"/>
  </outline>
</glyph>
<glyph name="uni0242" format="1">
  <advance width="1504"/>
  <unicode hex="0242"/>
  <outline>
    <contour>
      <point x="184" y="964" type="curve"/>
      <point x="460" y="964" type="line"/>
      <point x="460" y="1152"/>
      <point x="568" y="1296"/>
      <point x="736" y="1296" type="curve" smooth="yes"/>
      <point x="968" y="1296"/>
      <point x="1048" y="1136"/>
      <point x="1048" y="948" type="curve" smooth="yes"/>
      <point x="1048" y="756"/>
      <point x="972" y="616"/>
      <point x="760" y="616" type="curve" smooth="yes"/>
      <point x="700" y="616" type="line"/>
      <point x="700" y="444" type="line"/>
      <point x="764" y="444" type="line" smooth="yes"/>
      <point x="1172" y="444"/>
      <point x="1320" y="668"/>
      <point x="1320" y="944" type="curve" smooth="yes"/>
      <point x="1320" y="1316"/>
      <point x="1112" y="1516"/>
      <point x="736" y="1516" type="curve" smooth="yes"/>
      <point x="428" y="1516"/>
      <point x="184" y="1304"/>
    </contour>
    <contour>
      <point x="632" y="616" type="line"/>
      <point x="632" y="0" type="line"/>
      <point x="908" y="0" type="line"/>
      <point x="908" y="616" type="line"/>
    </contour>
  </outline>
</glyph>
<glyph name="uni0243" format="1">
  <advance width="2016"/>
  <unicode hex="0243"/>
  <outline>
    <component base="B" xOffset="204"/>
    <component base="crossbar" xOffset="-48" yOffset="-416"/>
    <contour>
      <point x="980" y="2216" type="move" name="top"/>
    </contour>
    <contour>
      <point x="1964" y="2216" type="move" name="top0315"/>
    </contour>
    <contour>
      <point x="980" y="16" type="move" name="bottom"/>
    </contour>
  </outline>
</glyph>
<glyph name="uni0245" format="1">
  <advance width="2016"/>
  <unicode hex="0245"/>
  <outline>
    <contour>
      <point x="1564" y="0" type="line"/>
      <point x="1876" y="0" type="line"/>
      <point x="1132" y="2004" type="line"/>
      <point x="912" y="2004" type="line"/>
      <point x="984" y="1688" type="line"/>
    </contour>
    <contour>
      <point x="1028" y="1688" type="line"/>
      <point x="1104" y="2004" type="line"/>
      <point x="884" y="2004" type="line"/>
      <point x="144" y="0" type="line"/>
      <point x="456" y="0" type="line"/>
    </contour>
  </outline>
</glyph>
<glyph name="uni0248" format="1">
  <advance width="1764"/>
  <unicode hex="0248"/>
  <outline>
    <component base="J"/>
    <component base="crossbar" xOffset="556"/>
    <contour>
      <point x="1192" y="2200" type="move" name="top"/>
    </contour>
    <contour>
      <point x="1684" y="2200" type="move" name="top0315"/>
    </contour>
    <contour>
      <point x="704" y="-16" type="move" name="bottom"/>
    </contour>
  </outline>
</glyph>
<glyph name="uni024A" format="1">
  <advance width="2016"/>
  <unicode hex="024A"/>
  <outline>
    <contour>
      <point x="1652" y="1000" type="line"/>
      <point x="1368" y="1000" type="line"/>
      <point x="1368" y="356" type="line"/>
      <point x="1316" y="296"/>
      <point x="1228" y="212"/>
      <point x="940" y="212" type="curve" smooth="yes"/>
      <point x="532" y="212"/>
      <point x="380" y="536"/>
      <point x="380" y="932" type="curve" smooth="yes"/>
      <point x="380" y="1064" type="line"/>
      <point x="96" y="1060" type="line"/>
      <point x="96" y="932" type="line" smooth="yes"/>
      <point x="96" y="428"/>
      <point x="348" y="-28"/>
      <point x="940" y="-28" type="curve" smooth="yes"/>
      <point x="1400" y="-28"/>
      <point x="1580" y="160"/>
      <point x="1652" y="272" type="curve"/>
    </contour>
    <contour>
      <point x="1652" y="1732" type="line"/>
      <point x="1580" y="1844"/>
      <point x="1400" y="2032"/>
      <point x="940" y="2032" type="curve" smooth="yes"/>
      <point x="388" y="2032"/>
      <point x="96" y="1612"/>
      <point x="96" y="1072" type="curve" smooth="yes"/>
      <point x="96" y="956" type="line"/>
      <point x="380" y="956" type="line"/>
      <point x="380" y="1072" type="line" smooth="yes"/>
      <point x="380" y="1428"/>
      <point x="508" y="1792"/>
      <point x="940" y="1792" type="curve" smooth="yes"/>
      <point x="1228" y="1792"/>
      <point x="1316" y="1708"/>
      <point x="1368" y="1648" type="curve"/>
      <point x="1368" y="976" type="line"/>
      <point x="1652" y="976" type="line"/>
    </contour>
    <contour>
      <point x="1652" y="2004" type="line"/>
      <point x="1436" y="2004" type="line"/>
      <point x="1368" y="1732" type="line"/>
      <point x="1368" y="-96" type="line"/>
      <point x="1652" y="-96" type="line"/>
    </contour>
    <contour>
      <point x="1368" y="-24" type="line"/>
      <point x="1368" y="-124" type="line"/>
      <point x="1368" y="-432"/>
      <point x="1500" y="-600"/>
      <point x="1760" y="-600" type="curve" smooth="yes"/>
      <point x="1808" y="-600"/>
      <point x="1880" y="-592"/>
      <point x="1920" y="-580" type="curve"/>
      <point x="1920" y="-360" type="line"/>
      <point x="1892" y="-368"/>
      <point x="1856" y="-368"/>
      <point x="1832" y="-368" type="curve" smooth="yes"/>
      <point x="1712" y="-368"/>
      <point x="1652" y="-308"/>
      <point x="1652" y="-124" type="curve"/>
      <point x="1652" y="-24" type="line"/>
    </contour>
  </outline>
</glyph>
<glyph name="uni024B" format="1">
  <advance width="1760"/>
  <unicode hex="024B"/>
  <outline>
    <contour>
      <point x="1100" y="-160" type="line"/>
      <point x="1372" y="-160" type="line"/>
      <point x="1372" y="1488" type="line"/>
      <point x="1124" y="1488" type="line"/>
      <point x="1100" y="1204" type="line"/>
    </contour>
    <contour>
      <point x="108" y="728" type="line"/>
      <point x="108" y="296"/>
      <point x="332" y="-28"/>
      <point x="700" y="-28" type="curve" smooth="yes"/>
      <point x="1084" y="-28"/>
      <point x="1272" y="248"/>
      <point x="1312" y="700" type="curve"/>
      <point x="1312" y="788" type="line"/>
      <point x="1272" y="1240"/>
      <point x="1084" y="1516"/>
      <point x="704" y="1516" type="curve" smooth="yes"/>
      <point x="328" y="1516"/>
      <point x="108" y="1208"/>
      <point x="108" y="756" type="curve" smooth="yes"/>
    </contour>
    <contour>
      <point x="380" y="756" type="line"/>
      <point x="380" y="1044"/>
      <point x="500" y="1296"/>
      <point x="772" y="1296" type="curve" smooth="yes"/>
      <point x="1016" y="1296"/>
      <point x="1140" y="1104"/>
      <point x="1184" y="900" type="curve"/>
      <point x="1184" y="588" type="line"/>
      <point x="1128" y="380"/>
      <point x="1016" y="192"/>
      <point x="772" y="192" type="curve" smooth="yes"/>
      <point x="500" y="192"/>
      <point x="380" y="440"/>
      <point x="380" y="728" type="curve" smooth="yes"/>
    </contour>
    <contour>
      <point x="1100" y="12" type="line"/>
      <point x="1100" y="-192" type="line" smooth="yes"/>
      <point x="1100" y="-456"/>
      <point x="1296" y="-600"/>
      <point x="1520" y="-600" type="curve" smooth="yes"/>
      <point x="1564" y="-600"/>
      <point x="1620" y="-596"/>
      <point x="1656" y="-584" type="curve"/>
      <point x="1656" y="-400" type="line"/>
      <point x="1636" y="-408"/>
      <point x="1600" y="-408"/>
      <point x="1580" y="-408" type="curve" smooth="yes"/>
      <point x="1452" y="-408"/>
      <point x="1372" y="-352"/>
      <point x="1372" y="-192" type="curve" smooth="yes"/>
      <point x="1372" y="12" type="line"/>
    </contour>
  </outline>
</glyph>
<glyph name="uni024D" format="1">
  <advance width="1248"/>
  <unicode hex="024D"/>
  <outline>
    <contour>
      <point x="588" y="1776" type="move" name="top"/>
    </contour>
    <contour>
      <point x="1112" y="1776" type="move" name="top0315"/>
    </contour>
    <contour>
      <point x="480" y="16" type="move" name="bottom"/>
    </contour>
    <component base="r" xOffset="156"/>
    <component base="crossbar" xOffset="-132" yOffset="-220"/>
  </outline>
</glyph>
<glyph name="uni024F" format="1">
  <advance width="1536"/>
  <unicode hex="024F"/>
  <outline>
    <contour>
      <point x="1344" y="1052" type="line"/>
      <point x="-16" y="1052" type="line"/>
      <point x="-16" y="888" type="line"/>
      <point x="1344" y="888" type="line"/>
    </contour>
    <component base="y" xOffset="12"/>
    <contour>
      <point x="640" y="1776" type="move" name="top"/>
    </contour>
    <contour>
      <point x="920" y="-216" type="move" name="bottom"/>
    </contour>
    <contour>
      <point x="1384" y="1776" type="move" name="top0315"/>
    </contour>
  </outline>
</glyph>
<glyph name="ascriptturn" format="1">
  <advance width="1760"/>
  <unicode hex="0252"/>
  <outline>
    <contour>
      <point x="1416" y="900" type="move" name="rhotichook"/>
    </contour>
    <contour>
      <point x="888" y="1776" type="move" name="top"/>
    </contour>
    <contour>
      <point x="888" y="0" type="move" name="bottom"/>
    </contour>
    <contour>
      <point x="1732" y="1776" type="move" name="top0315"/>
    </contour>
    <contour>
      <point x="1600" y="800" type="line"/>
      <point x="1600" y="1216"/>
      <point x="1388" y="1516"/>
      <point x="1020" y="1516" type="curve" smooth="yes"/>
      <point x="652" y="1516"/>
      <point x="480" y="1240"/>
      <point x="440" y="784" type="curve"/>
      <point x="440" y="700" type="line"/>
      <point x="480" y="248"/>
      <point x="652" y="-28"/>
      <point x="1016" y="-28" type="curve" smooth="yes"/>
      <point x="1392" y="-28"/>
      <point x="1600" y="304"/>
      <point x="1600" y="772" type="curve" smooth="yes"/>
    </contour>
    <contour>
      <point x="1324" y="772" type="line"/>
      <point x="1324" y="460"/>
      <point x="1220" y="192"/>
      <point x="944" y="192" type="curve" smooth="yes"/>
      <point x="684" y="192"/>
      <point x="576" y="452"/>
      <point x="532" y="724" type="curve"/>
      <point x="532" y="792" type="line"/>
      <point x="592" y="1052"/>
      <point x="684" y="1296"/>
      <point x="948" y="1296" type="curve" smooth="yes"/>
      <point x="1220" y="1296"/>
      <point x="1324" y="1072"/>
      <point x="1324" y="800" type="curve" smooth="yes"/>
    </contour>
    <contour>
      <point x="572" y="0" type="line"/>
      <point x="616" y="324" type="line"/>
      <point x="616" y="1076" type="line"/>
      <point x="616" y="1392"/>
      <point x="512" y="1516"/>
      <point x="340" y="1516" type="curve" smooth="yes"/>
      <point x="276" y="1516"/>
      <point x="220" y="1508"/>
      <point x="164" y="1468" type="curve"/>
      <point x="196" y="1268" type="line"/>
      <point x="204" y="1268"/>
      <point x="220" y="1272"/>
      <point x="236" y="1272" type="curve" smooth="yes"/>
      <point x="292" y="1272"/>
      <point x="340" y="1240"/>
      <point x="340" y="1076" type="curve"/>
      <point x="340" y="0" type="line"/>
    </contour>
  </outline>
</glyph>
<glyph name="ccurl" format="1">
  <advance width="1504"/>
  <unicode hex="0255"/>
  <outline>
    <contour>
      <point x="832" y="1776" type="move" name="top"/>
    </contour>
    <contour>
      <point x="832" y="0" type="move" name="bottom"/>
    </contour>
    <contour>
      <point x="1520" y="1776" type="move" name="top0315"/>
    </contour>
    <contour>
      <point x="836" y="192" type="curve" smooth="yes"/>
      <point x="524" y="192"/>
      <point x="440" y="464"/>
      <point x="440" y="716" type="curve" smooth="yes"/>
      <point x="440" y="772" type="line" smooth="yes"/>
      <point x="440" y="1024"/>
      <point x="528" y="1296"/>
      <point x="836" y="1296" type="curve"/>
      <point x="1036" y="1296"/>
      <point x="1160" y="1148"/>
      <point x="1172" y="976" type="curve"/>
      <point x="1432" y="976" type="line"/>
      <point x="1420" y="1276"/>
      <point x="1188" y="1516"/>
      <point x="836" y="1516" type="curve" smooth="yes"/>
      <point x="380" y="1516"/>
      <point x="168" y="1168"/>
      <point x="168" y="772" type="curve" smooth="yes"/>
      <point x="168" y="716" type="line" smooth="yes"/>
      <point x="168" y="320"/>
      <point x="380" y="-28"/>
      <point x="836" y="-28" type="curve" smooth="yes"/>
      <point x="1152" y="-28"/>
      <point x="1432" y="160"/>
      <point x="1432" y="436" type="curve" smooth="yes"/>
      <point x="1432" y="624"/>
      <point x="1312" y="764"/>
      <point x="1044" y="764" type="curve" smooth="yes"/>
      <point x="792" y="764"/>
      <point x="604" y="620"/>
      <point x="304" y="260" type="curve"/>
      <point x="76" y="-28" type="line"/>
      <point x="268" y="-176" type="line"/>
      <point x="436" y="40" type="line"/>
      <point x="696" y="368"/>
      <point x="872" y="540"/>
      <point x="1032" y="540" type="curve" smooth="yes"/>
      <point x="1100" y="540"/>
      <point x="1176" y="508"/>
      <point x="1176" y="408" type="curve" smooth="yes"/>
      <point x="1176" y="276"/>
      <point x="1012" y="192"/>
    </contour>
  </outline>
</glyph>
<glyph name="dhook" format="1">
  <advance width="1760"/>
  <unicode hex="0257"/>
  <outline>
    <contour>
      <point x="748" y="2200" type="move" name="top"/>
    </contour>
    <contour>
      <point x="828" y="0" type="move" name="bottom"/>
    </contour>
    <contour>
      <point x="1644" y="2200" type="move" name="top0315"/>
    </contour>
    <contour>
      <point x="1100" y="288" type="line"/>
      <point x="1136" y="0" type="line"/>
      <point x="1376" y="0" type="line"/>
      <point x="1376" y="1664" type="line"/>
      <point x="1100" y="1664" type="line"/>
    </contour>
    <contour>
      <point x="104" y="728" type="line"/>
      <point x="104" y="296"/>
      <point x="344" y="-28"/>
      <point x="692" y="-28" type="curve" smooth="yes"/>
      <point x="1076" y="-28"/>
      <point x="1260" y="248"/>
      <point x="1300" y="700" type="curve"/>
      <point x="1300" y="788" type="line"/>
      <point x="1260" y="1240"/>
      <point x="1076" y="1516"/>
      <point x="696" y="1516" type="curve" smooth="yes"/>
      <point x="340" y="1516"/>
      <point x="104" y="1208"/>
      <point x="104" y="756" type="curve" smooth="yes"/>
    </contour>
    <contour>
      <point x="380" y="756" type="line"/>
      <point x="380" y="1044"/>
      <point x="496" y="1288"/>
      <point x="768" y="1288" type="curve" smooth="yes"/>
      <point x="1008" y="1288"/>
      <point x="1124" y="1104"/>
      <point x="1168" y="900" type="curve"/>
      <point x="1168" y="588" type="line"/>
      <point x="1112" y="380"/>
      <point x="1008" y="200"/>
      <point x="764" y="200" type="curve" smooth="yes"/>
      <point x="496" y="200"/>
      <point x="380" y="440"/>
      <point x="380" y="728" type="curve" smooth="yes"/>
    </contour>
    <contour>
      <point x="1376" y="1532" type="line"/>
      <point x="1376" y="1736" type="line" smooth="yes"/>
      <point x="1376" y="1896"/>
      <point x="1452" y="1952"/>
      <point x="1580" y="1952" type="curve" smooth="yes"/>
      <point x="1600" y="1952"/>
      <point x="1632" y="1948"/>
      <point x="1656" y="1940" type="curve"/>
      <point x="1656" y="2124" type="line"/>
      <point x="1620" y="2136"/>
      <point x="1560" y="2144"/>
      <point x="1520" y="2144" type="curve" smooth="yes"/>
      <point x="1296" y="2144"/>
      <point x="1100" y="2000"/>
      <point x="1100" y="1736" type="curve" smooth="yes"/>
      <point x="1100" y="1532" type="line"/>
    </contour>
  </outline>
</glyph>
<glyph name="erev" format="1">
  <advance width="1504"/>
  <unicode hex="0258"/>
  <outline>
    <contour>
      <point x="1208" y="900" type="move" name="rhotichook"/>
    </contour>
    <contour>
      <point x="736" y="1776" type="move" name="top"/>
    </contour>
    <contour>
      <point x="700" y="0" type="move" name="bottom"/>
    </contour>
    <contour>
      <point x="1516" y="1776" type="move" name="top0315"/>
    </contour>
    <contour>
      <point x="700" y="-28" type="curve" smooth="yes"/>
      <point x="1124" y="-28"/>
      <point x="1388" y="272"/>
      <point x="1388" y="692" type="curve" smooth="yes"/>
      <point x="1388" y="748" type="line" smooth="yes"/>
      <point x="1388" y="1240"/>
      <point x="1068" y="1516"/>
      <point x="736" y="1516" type="curve" smooth="yes"/>
      <point x="296" y="1516"/>
      <point x="116" y="1200"/>
      <point x="116" y="780" type="curve" smooth="yes"/>
      <point x="116" y="660" type="line"/>
      <point x="1224" y="660" type="line"/>
      <point x="1224" y="880" type="line"/>
      <point x="392" y="880" type="line"/>
      <point x="392" y="900" type="line"/>
      <point x="408" y="1088"/>
      <point x="480" y="1296"/>
      <point x="736" y="1296" type="curve" smooth="yes"/>
      <point x="956" y="1296"/>
      <point x="1112" y="1104"/>
      <point x="1112" y="748" type="curve" smooth="yes"/>
      <point x="1112" y="692" type="line" smooth="yes"/>
      <point x="1112" y="416"/>
      <point x="960" y="192"/>
      <point x="688" y="192" type="curve" smooth="yes"/>
      <point x="508" y="192"/>
      <point x="388" y="276"/>
      <point x="300" y="392" type="curve"/>
      <point x="132" y="264" type="line"/>
      <point x="232" y="116"/>
      <point x="400" y="-28"/>
    </contour>
  </outline>
</glyph>
<glyph name="schwa" format="1">
  <advance width="1504"/>
  <unicode hex="0259"/>
  <outline>
    <contour>
      <point x="760" y="1776" type="move" name="top"/>
    </contour>
    <contour>
      <point x="780" y="0" type="move" name="bottom"/>
    </contour>
    <contour>
      <point x="1236" y="88" type="move" name="right"/>
    </contour>
    <contour>
      <point x="1208" y="900" type="move" name="rhotichook"/>
    </contour>
    <contour>
      <point x="1484" y="1776" type="move" name="top0315"/>
    </contour>
    <contour>
      <point x="696" y="1520" type="curve"/>
      <point x="424" y="1520"/>
      <point x="260" y="1420"/>
      <point x="172" y="1336" type="curve"/>
      <point x="276" y="1152" type="line"/>
      <point x="368" y="1232"/>
      <point x="500" y="1300"/>
      <point x="696" y="1300" type="curve" smooth="yes"/>
      <point x="968" y="1300"/>
      <point x="1100" y="1064"/>
      <point x="1100" y="772" type="curve" smooth="yes"/>
      <point x="1100" y="716" type="line" smooth="yes"/>
      <point x="1100" y="428"/>
      <point x="948" y="196"/>
      <point x="740" y="196" type="curve"/>
      <point x="504" y="196"/>
      <point x="404" y="368"/>
      <point x="404" y="560" type="curve"/>
      <point x="404" y="596" type="line"/>
      <point x="1212" y="596" type="line"/>
      <point x="1212" y="816" type="line"/>
      <point x="128" y="816" type="line"/>
      <point x="128" y="644" type="line" smooth="yes"/>
      <point x="128" y="252"/>
      <point x="320" y="-28"/>
      <point x="740" y="-28" type="curve" smooth="yes"/>
      <point x="1072" y="-28"/>
      <point x="1376" y="280"/>
      <point x="1376" y="716" type="curve" smooth="yes"/>
      <point x="1376" y="772" type="line" smooth="yes"/>
      <point x="1376" y="1208"/>
      <point x="1116" y="1520"/>
    </contour>
  </outline>
</glyph>
<glyph name="epsilon1revhook" format="1">
  <advance width="2016"/>
  <unicode hex="025D"/>
  <outline>
    <contour>
      <point x="704" y="1776" type="move" name="top"/>
    </contour>
    <contour>
      <point x="704" y="0" type="move" name="bottom"/>
    </contour>
    <contour>
      <point x="1964" y="1776" type="move" name="top0315"/>
    </contour>
    <contour>
      <point x="1232" y="1000" type="line"/>
      <point x="1420" y="1036" type="line"/>
      <point x="1460" y="852"/>
      <point x="1532" y="692"/>
      <point x="1760" y="692" type="curve" smooth="yes"/>
      <point x="1824" y="692"/>
      <point x="1884" y="708"/>
      <point x="1936" y="736" type="curve"/>
      <point x="1900" y="904" type="line"/>
      <point x="1884" y="900"/>
      <point x="1864" y="896"/>
      <point x="1816" y="896" type="curve" smooth="yes"/>
      <point x="1668" y="896"/>
      <point x="1632" y="1060"/>
      <point x="1596" y="1296" type="curve"/>
      <point x="1232" y="1224" type="line"/>
    </contour>
    <contour>
      <point x="436" y="808" type="line"/>
      <point x="436" y="652" type="line"/>
      <point x="724" y="652" type="line" smooth="yes"/>
      <point x="940" y="652"/>
      <point x="1052" y="580"/>
      <point x="1052" y="420" type="curve" smooth="yes"/>
      <point x="1052" y="300"/>
      <point x="924" y="192"/>
      <point x="704" y="192" type="curve" smooth="yes"/>
      <point x="492" y="192"/>
      <point x="356" y="312"/>
      <point x="356" y="444" type="curve"/>
      <point x="80" y="444" type="line"/>
      <point x="80" y="116"/>
      <point x="400" y="-28"/>
      <point x="704" y="-28" type="curve" smooth="yes"/>
      <point x="1064" y="-28"/>
      <point x="1328" y="140"/>
      <point x="1328" y="420" type="curve" smooth="yes"/>
      <point x="1328" y="672"/>
      <point x="1112" y="808"/>
      <point x="744" y="808" type="curve"/>
    </contour>
    <contour>
      <point x="744" y="712" type="line"/>
      <point x="1080" y="712"/>
      <point x="1304" y="876"/>
      <point x="1304" y="1080" type="curve"/>
      <point x="1304" y="1364"/>
      <point x="1064" y="1516"/>
      <point x="704" y="1516" type="curve" smooth="yes"/>
      <point x="380" y="1516"/>
      <point x="108" y="1344"/>
      <point x="108" y="1072" type="curve"/>
      <point x="380" y="1072" type="line"/>
      <point x="380" y="1196"/>
      <point x="524" y="1296"/>
      <point x="704" y="1296" type="curve" smooth="yes"/>
      <point x="928" y="1296"/>
      <point x="1028" y="1188"/>
      <point x="1028" y="1080" type="curve"/>
      <point x="1028" y="956"/>
      <point x="940" y="868"/>
      <point x="724" y="868" type="curve" smooth="yes"/>
      <point x="436" y="868" type="line"/>
      <point x="436" y="712" type="line"/>
    </contour>
  </outline>
</glyph>
<glyph name="gcursive" format="1">
  <advance width="1760"/>
  <unicode hex="0261"/>
  <outline>
    <component base="g" xOffset="-16"/>
    <contour>
      <point x="748" y="1776" type="move" name="top"/>
    </contour>
    <contour>
      <point x="1568" y="1776" type="move" name="top0315"/>
    </contour>
    <contour>
      <point x="748" y="-616" type="move" name="bottom"/>
    </contour>
  </outline>
</glyph>
<glyph name="hhook" format="1">
  <advance width="1504"/>
  <unicode hex="0266"/>
  <outline>
    <contour>
      <point x="832" y="2340" type="move" name="top"/>
    </contour>
    <contour>
      <point x="756" y="0" type="move" name="bottom"/>
    </contour>
    <contour>
      <point x="1524" y="2340" type="move" name="top0315"/>
    </contour>
    <contour>
      <point x="436" y="1596" type="line"/>
      <point x="160" y="1596" type="line"/>
      <point x="160" y="0" type="line"/>
      <point x="436" y="0" type="line"/>
    </contour>
    <contour>
      <point x="372" y="796" type="line"/>
      <point x="372" y="1072"/>
      <point x="544" y="1288"/>
      <point x="784" y="1288" type="curve" smooth="yes"/>
      <point x="972" y="1288"/>
      <point x="1068" y="1200"/>
      <point x="1068" y="980" type="curve" smooth="yes"/>
      <point x="1068" y="0" type="line"/>
      <point x="1344" y="0" type="line"/>
      <point x="1344" y="976" type="line" smooth="yes"/>
      <point x="1344" y="1364"/>
      <point x="1156" y="1516"/>
      <point x="864" y="1516" type="curve" smooth="yes"/>
      <point x="500" y="1516"/>
      <point x="260" y="1212"/>
      <point x="260" y="792" type="curve"/>
    </contour>
    <contour>
      <point x="436" y="1532" type="line"/>
      <point x="436" y="1736" type="line" smooth="yes"/>
      <point x="436" y="1896"/>
      <point x="516" y="1952"/>
      <point x="644" y="1952" type="curve" smooth="yes"/>
      <point x="664" y="1952"/>
      <point x="696" y="1948"/>
      <point x="720" y="1940" type="curve"/>
      <point x="720" y="2124" type="line"/>
      <point x="680" y="2136"/>
      <point x="624" y="2144"/>
      <point x="584" y="2144" type="curve" smooth="yes"/>
      <point x="356" y="2144"/>
      <point x="160" y="2000"/>
      <point x="160" y="1736" type="curve" smooth="yes"/>
      <point x="160" y="1532" type="line"/>
    </contour>
  </outline>
</glyph>
<glyph name="Ismallcap" format="1">
  <advance width="992"/>
  <unicode hex="026A"/>
  <outline>
    <contour>
      <point x="492" y="1776" type="move" name="top"/>
    </contour>
    <contour>
      <point x="492" y="0" type="move" name="bottom"/>
    </contour>
    <contour>
      <point x="976" y="1776" type="move" name="top0315"/>
    </contour>
    <contour>
      <point x="840" y="1488" type="line"/>
      <point x="156" y="1488" type="line"/>
      <point x="156" y="1268" type="line"/>
      <point x="840" y="1268" type="line"/>
    </contour>
    <contour>
      <point x="632" y="1488" type="line"/>
      <point x="356" y="1488" type="line"/>
      <point x="356" y="0" type="line"/>
      <point x="632" y="0" type="line"/>
    </contour>
    <contour>
      <point x="840" y="220" type="line"/>
      <point x="156" y="220" type="line"/>
      <point x="156" y="0" type="line"/>
      <point x="840" y="0" type="line"/>
    </contour>
  </outline>
</glyph>
<glyph name="lmidtilde" format="1">
  <advance width="1024"/>
  <unicode hex="026B"/>
  <outline>
    <contour>
      <point x="504" y="2200" type="move" name="top"/>
    </contour>
    <contour>
      <point x="504" y="1056" type="move" name="parenthesses.w2"/>
    </contour>
    <contour>
      <point x="1020" y="2200" type="move" name="top0315"/>
    </contour>
    <contour>
      <point x="504" y="0" type="move" name="bottom"/>
    </contour>
    <component base="l" xOffset="156"/>
    <component base="tilde" xOffset="-156" yOffset="-824"/>
  </outline>
</glyph>
<glyph name="lbelt" format="1">
  <advance width="1248"/>
  <unicode hex="026C"/>
  <outline>
    <contour>
      <point x="760" y="2200" type="move" name="top"/>
    </contour>
    <contour>
      <point x="760" y="0" type="move" name="bottom"/>
    </contour>
    <contour>
      <point x="1236" y="2200" type="move" name="top0315"/>
    </contour>
    <contour>
      <point x="892" y="1080" type="line"/>
      <point x="892" y="1300"/>
      <point x="784" y="1516"/>
      <point x="460" y="1516" type="curve" smooth="yes"/>
      <point x="212" y="1516"/>
      <point x="44" y="1360"/>
      <point x="44" y="1148" type="curve" smooth="yes"/>
      <point x="44" y="912"/>
      <point x="216" y="784"/>
      <point x="436" y="784" type="curve"/>
      <point x="1208" y="784" type="line"/>
      <point x="1208" y="1004" type="line"/>
      <point x="472" y="1004" type="line"/>
      <point x="376" y="1004"/>
      <point x="316" y="1068"/>
      <point x="316" y="1148" type="curve" smooth="yes"/>
      <point x="316" y="1232"/>
      <point x="372" y="1296"/>
      <point x="456" y="1296" type="curve" smooth="yes"/>
      <point x="568" y="1296"/>
      <point x="620" y="1228"/>
      <point x="620" y="1140" type="curve"/>
      <point x="620" y="604" type="line"/>
      <point x="892" y="604" type="line"/>
    </contour>
    <component base="l" xOffset="408"/>
  </outline>
</glyph>
<glyph name="lyogh" format="1">
  <advance width="1760"/>
  <unicode hex="026E"/>
  <outline>
    <contour>
      <point x="864" y="1776" type="move" name="top"/>
    </contour>
    <contour>
      <point x="864" y="-616" type="move" name="bottom"/>
    </contour>
    <contour>
      <point x="1716" y="1776" type="move" name="top0315"/>
    </contour>
    <contour>
      <point x="276" y="1488" type="line"/>
      <point x="276" y="1268" type="line"/>
      <point x="1148" y="1268" type="line"/>
      <point x="628" y="600" type="line"/>
      <point x="628" y="428" type="line"/>
      <point x="780" y="428" type="line"/>
      <point x="1476" y="1320" type="line"/>
      <point x="1472" y="1488" type="line"/>
    </contour>
    <contour>
      <point x="628" y="596" type="line"/>
      <point x="628" y="384" type="line"/>
      <point x="832" y="384" type="line" smooth="yes"/>
      <point x="1116" y="384"/>
      <point x="1272" y="264"/>
      <point x="1272" y="-16" type="curve" smooth="yes"/>
      <point x="1272" y="-228"/>
      <point x="1124" y="-380"/>
      <point x="864" y="-380" type="curve" smooth="yes"/>
      <point x="640" y="-380"/>
      <point x="520" y="-280"/>
      <point x="492" y="-128" type="curve"/>
      <point x="216" y="-128" type="line"/>
      <point x="268" y="-472"/>
      <point x="548" y="-600"/>
      <point x="864" y="-600" type="curve" smooth="yes"/>
      <point x="1260" y="-600"/>
      <point x="1544" y="-388"/>
      <point x="1544" y="-12" type="curve" smooth="yes"/>
      <point x="1544" y="380"/>
      <point x="1284" y="596"/>
      <point x="836" y="596" type="curve"/>
    </contour>
    <component base="l" xOffset="4"/>
  </outline>
</glyph>
<glyph name="Nsmallcap" format="1">
  <advance width="1504"/>
  <unicode hex="0274"/>
  <outline>
    <contour>
      <point x="748" y="1776" type="move" name="top"/>
    </contour>
    <contour>
      <point x="748" y="0" type="move" name="bottom"/>
    </contour>
    <contour>
      <point x="1544" y="1776" type="move" name="top0315"/>
    </contour>
    <contour>
      <point x="424" y="1488" type="line"/>
      <point x="1268" y="132" type="line"/>
      <point x="1084" y="0" type="line"/>
      <point x="244" y="1356" type="line"/>
    </contour>
    <contour>
      <point x="424" y="0" type="line"/>
      <point x="148" y="0" type="line"/>
      <point x="148" y="1488" type="line"/>
      <point x="424" y="1488" type="line"/>
    </contour>
    <contour>
      <point x="1356" y="0" type="line"/>
      <point x="1084" y="0" type="line"/>
      <point x="1084" y="1488" type="line"/>
      <point x="1356" y="1488" type="line"/>
    </contour>
  </outline>
</glyph>
<glyph name="philatin" format="1">
  <advance width="1760"/>
  <unicode hex="0278"/>
  <outline>
    <contour>
      <point x="880" y="2200" type="move" name="top"/>
    </contour>
    <contour>
      <point x="880" y="-616" type="move" name="bottom"/>
    </contour>
    <contour>
      <point x="1688" y="2200" type="move" name="top0315"/>
    </contour>
    <contour>
      <point x="200" y="728" type="line"/>
      <point x="200" y="300"/>
      <point x="460" y="-28"/>
      <point x="880" y="-28" type="curve" smooth="yes"/>
      <point x="1304" y="-28"/>
      <point x="1560" y="300"/>
      <point x="1560" y="728" type="curve" smooth="yes"/>
      <point x="1560" y="760" type="line" smooth="yes"/>
      <point x="1560" y="1188"/>
      <point x="1304" y="1516"/>
      <point x="880" y="1516" type="curve" smooth="yes"/>
      <point x="460" y="1516"/>
      <point x="200" y="1188"/>
      <point x="200" y="760" type="curve" smooth="yes"/>
    </contour>
    <contour>
      <point x="476" y="760" type="line"/>
      <point x="476" y="1044"/>
      <point x="608" y="1296"/>
      <point x="880" y="1296" type="curve" smooth="yes"/>
      <point x="1152" y="1296"/>
      <point x="1284" y="1044"/>
      <point x="1284" y="760" type="curve" smooth="yes"/>
      <point x="1284" y="728" type="line" smooth="yes"/>
      <point x="1284" y="440"/>
      <point x="1152" y="192"/>
      <point x="880" y="192" type="curve" smooth="yes"/>
      <point x="608" y="192"/>
      <point x="476" y="440"/>
      <point x="476" y="728" type="curve" smooth="yes"/>
    </contour>
    <contour>
      <point x="744" y="-572" type="line"/>
      <point x="1016" y="-572" type="line"/>
      <point x="1016" y="2112" type="line"/>
      <point x="744" y="2112" type="line"/>
    </contour>
  </outline>
</glyph>
<glyph name="rturnascend" format="1">
  <advance width="992"/>
  <unicode hex="027A"/>
  <outline>
    <contour>
      <point x="416" y="2200" type="move" name="top"/>
    </contour>
    <contour>
      <point x="416" y="0" type="move" name="bottom"/>
    </contour>
    <contour>
      <point x="1048" y="2200" type="move" name="top0315"/>
    </contour>
    <contour>
      <point x="584" y="232" type="line"/>
      <point x="592" y="0" type="line"/>
      <point x="860" y="0" type="line"/>
      <point x="860" y="2112" type="line"/>
      <point x="584" y="2112" type="line"/>
    </contour>
    <contour>
      <point x="132" y="-8" type="line"/>
      <point x="152" y="-16"/>
      <point x="212" y="-28"/>
      <point x="248" y="-28" type="curve"/>
      <point x="564" y="-28"/>
      <point x="700" y="272"/>
      <point x="700" y="624" type="curve"/>
      <point x="628" y="580" type="line"/>
      <point x="600" y="376"/>
      <point x="488" y="232"/>
      <point x="260" y="232" type="curve"/>
      <point x="212" y="232"/>
      <point x="180" y="236"/>
      <point x="132" y="244" type="curve"/>
    </contour>
  </outline>
</glyph>
<glyph name="rfishhook" format="1">
  <advance width="992"/>
  <unicode hex="027E"/>
  <outline>
    <contour>
      <point x="360" y="1776" type="move" name="top"/>
    </contour>
    <contour>
      <point x="360" y="0" type="move" name="bottom"/>
    </contour>
    <contour>
      <point x="816" y="1776" type="move" name="top0315"/>
    </contour>
    <contour>
      <point x="492" y="0" type="line"/>
      <point x="492" y="1108" type="line" smooth="yes"/>
      <point x="492" y="1264"/>
      <point x="572" y="1320"/>
      <point x="700" y="1320" type="curve" smooth="yes"/>
      <point x="720" y="1320"/>
      <point x="752" y="1316"/>
      <point x="776" y="1312" type="curve"/>
      <point x="776" y="1496" type="line"/>
      <point x="740" y="1508"/>
      <point x="680" y="1516"/>
      <point x="640" y="1516" type="curve" smooth="yes"/>
      <point x="416" y="1516"/>
      <point x="220" y="1372"/>
      <point x="220" y="1108" type="curve" smooth="yes"/>
      <point x="220" y="0" type="line"/>
    </contour>
  </outline>
</glyph>
<glyph name="rfishhookrev" format="1">
  <advance width="736"/>
  <unicode hex="027F"/>
  <outline>
    <contour>
      <point x="516" y="1776" type="move" name="top"/>
    </contour>
    <contour>
      <point x="516" y="-616" type="move" name="bottom"/>
    </contour>
    <contour>
      <point x="836" y="1776" type="move" name="top0315"/>
    </contour>
    <contour>
      <point x="648" y="-572" type="line"/>
      <point x="648" y="1108" type="line" smooth="yes"/>
      <point x="648" y="1372"/>
      <point x="452" y="1516"/>
      <point x="228" y="1516" type="curve" smooth="yes"/>
      <point x="184" y="1516"/>
      <point x="128" y="1508"/>
      <point x="92" y="1500" type="curve"/>
      <point x="92" y="1316" type="line"/>
      <point x="112" y="1320"/>
      <point x="144" y="1324"/>
      <point x="168" y="1324" type="curve" smooth="yes"/>
      <point x="292" y="1324"/>
      <point x="372" y="1264"/>
      <point x="372" y="1108" type="curve" smooth="yes"/>
      <point x="372" y="-572" type="line"/>
    </contour>
  </outline>
</glyph>
<glyph name="Rsmallcap" format="1">
  <advance width="1760"/>
  <unicode hex="0280"/>
  <outline>
    <contour>
      <point x="808" y="1776" type="move" name="top"/>
    </contour>
    <contour>
      <point x="808" y="0" type="move" name="bottom"/>
    </contour>
    <contour>
      <point x="1644" y="1776" type="move" name="top0315"/>
    </contour>
    <contour>
      <point x="792" y="716" type="line"/>
      <point x="1228" y="0" type="line"/>
      <point x="1524" y="0" type="line"/>
      <point x="1088" y="716" type="line"/>
    </contour>
    <contour>
      <point x="236" y="1488" type="line"/>
      <point x="236" y="0" type="line"/>
      <point x="512" y="0" type="line"/>
      <point x="512" y="1272" type="line"/>
      <point x="868" y="1272" type="line" smooth="yes"/>
      <point x="1076" y="1272"/>
      <point x="1164" y="1148"/>
      <point x="1164" y="1032" type="curve" smooth="yes"/>
      <point x="1164" y="916"/>
      <point x="1084" y="796"/>
      <point x="896" y="796" type="curve" smooth="yes"/>
      <point x="440" y="796" type="line"/>
      <point x="440" y="576" type="line"/>
      <point x="896" y="576" type="line" smooth="yes"/>
      <point x="1240" y="576"/>
      <point x="1440" y="772"/>
      <point x="1440" y="1032" type="curve" smooth="yes"/>
      <point x="1440" y="1296"/>
      <point x="1232" y="1488"/>
      <point x="868" y="1488" type="curve" smooth="yes"/>
    </contour>
  </outline>
</glyph>
<glyph name="esh" format="1">
  <advance width="1248"/>
  <unicode hex="0283"/>
  <outline>
    <contour>
      <point x="836" y="2340" type="move" name="top"/>
    </contour>
    <contour>
      <point x="344" y="-616" type="move" name="bottom"/>
    </contour>
    <contour>
      <point x="1204" y="2340" type="move" name="top0315"/>
    </contour>
    <contour>
      <point x="760" y="0" type="line"/>
      <point x="760" y="1640" type="line" smooth="yes"/>
      <point x="760" y="1816"/>
      <point x="856" y="1912"/>
      <point x="1012" y="1912" type="curve" smooth="yes"/>
      <point x="1060" y="1912"/>
      <point x="1112" y="1908"/>
      <point x="1148" y="1900" type="curve"/>
      <point x="1164" y="2120" type="line"/>
      <point x="1104" y="2132"/>
      <point x="1044" y="2140"/>
      <point x="988" y="2140" type="curve" smooth="yes"/>
      <point x="676" y="2140"/>
      <point x="488" y="1964"/>
      <point x="488" y="1640" type="curve" smooth="yes"/>
      <point x="488" y="0" type="line"/>
    </contour>
    <contour>
      <point x="488" y="1540" type="line"/>
      <point x="488" y="-100" type="line" smooth="yes"/>
      <point x="488" y="-276"/>
      <point x="396" y="-372"/>
      <point x="236" y="-372" type="curve" smooth="yes"/>
      <point x="188" y="-372"/>
      <point x="136" y="-368"/>
      <point x="100" y="-360" type="curve"/>
      <point x="88" y="-580" type="line"/>
      <point x="144" y="-592"/>
      <point x="204" y="-600"/>
      <point x="260" y="-600" type="curve" smooth="yes"/>
      <point x="572" y="-600"/>
      <point x="760" y="-424"/>
      <point x="760" y="-100" type="curve" smooth="yes"/>
      <point x="760" y="1540" type="line"/>
    </contour>
  </outline>
</glyph>
<glyph name="vscript" format="1">
  <advance width="1504"/>
  <unicode hex="028B"/>
  <outline>
    <contour>
      <point x="752" y="1776" type="move" name="top"/>
    </contour>
    <contour>
      <point x="752" y="0" type="move" name="bottom"/>
    </contour>
    <contour>
      <point x="1512" y="1776" type="move" name="top0315"/>
    </contour>
    <contour>
      <point x="752" y="200" type="line"/>
      <point x="584" y="200"/>
      <point x="452" y="280"/>
      <point x="452" y="608" type="curve" smooth="yes"/>
      <point x="452" y="1488" type="line"/>
      <point x="180" y="1488" type="line"/>
      <point x="180" y="608" type="line" smooth="yes"/>
      <point x="180" y="156"/>
      <point x="416" y="-28"/>
      <point x="752" y="-28" type="curve"/>
    </contour>
    <contour>
      <point x="752" y="-28" type="line"/>
      <point x="1092" y="-28"/>
      <point x="1328" y="156"/>
      <point x="1328" y="608" type="curve" smooth="yes"/>
      <point x="1328" y="1092" type="line" smooth="yes"/>
      <point x="1328" y="1296"/>
      <point x="1312" y="1516"/>
      <point x="1044" y="1516" type="curve" smooth="yes"/>
      <point x="936" y="1516"/>
      <point x="820" y="1484"/>
      <point x="732" y="1456" type="curve"/>
      <point x="764" y="1244" type="line"/>
      <point x="832" y="1260"/>
      <point x="876" y="1268"/>
      <point x="932" y="1268" type="curve" smooth="yes"/>
      <point x="1012" y="1268"/>
      <point x="1052" y="1220"/>
      <point x="1052" y="1096" type="curve" smooth="yes"/>
      <point x="1052" y="608" type="line" smooth="yes"/>
      <point x="1052" y="280"/>
      <point x="924" y="200"/>
      <point x="752" y="200" type="curve"/>
    </contour>
  </outline>
</glyph>
